IBM Plex Mono-Thin Italic.ufo
<glyph name="exclam" format="2">
  <advance width="600"/>
  <unicode hex="0021"/>
  <outline>
    <contour>
      <point x="292" y="176" type="line"/>
      <point x="337" y="415" type="line"/>
      <point x="384" y="698" type="line"/>
      <point x="362" y="698" type="line"/>
      <point x="315" y="415" type="line"/>
      <point x="280" y="176" type="line"/>
    </contour>
    <contour>
      <point x="256" y="-5" type="curve" smooth="yes"/>
      <point x="277" y="-5"/>
      <point x="290" y="5"/>
      <point x="293" y="21" type="curve" smooth="yes"/>
      <point x="294" y="26"/>
      <point x="295" y="31"/>
      <point x="295" y="35" type="curve" smooth="yes"/>
      <point x="295" y="49"/>
      <point x="286" y="57"/>
      <point x="266" y="57" type="curve" smooth="yes"/>
      <point x="245" y="57"/>
      <point x="232" y="47"/>
      <point x="229" y="31" type="curve" smooth="yes"/>
      <point x="228" y="26"/>
      <point x="227" y="21"/>
      <point x="227" y="17" type="curve" smooth="yes"/>
      <point x="227" y="3"/>
      <point x="236" y="-5"/>
    </contour>
  </outline>
</glyph>
<glyph name="quotesingle" format="2">
  <advance width="600"/>
  <unicode hex="0027"/>
  <outline>
    <contour>
      <point x="351" y="490" type="line"/>
      <point x="393" y="740" type="line"/>
      <point x="369" y="740" type="line"/>
      <point x="327" y="490" type="line"/>
    </contour>
  </outline>
</glyph>
<glyph name="parenright" format="2">
  <advance width="600"/>
  <unicode hex="0029"/>
  <outline>
    <contour>
      <point x="383" y="390" type="curve" smooth="yes"/>
      <point x="383" y="546"/>
      <point x="320" y="669"/>
      <point x="245" y="760" type="curve"/>
      <point x="224" y="760" type="line"/>
      <point x="312" y="654"/>
      <point x="364" y="539"/>
      <point x="364" y="390" type="curve" smooth="yes"/>
      <point x="364" y="361"/>
      <point x="363" y="333"/>
      <point x="357" y="303" type="curve" smooth="yes"/>
      <point x="351" y="269" type="line" smooth="yes"/>
      <point x="321" y="100"/>
      <point x="204" y="-47"/>
      <point x="73" y="-138" type="curve"/>
      <point x="99" y="-138" type="line"/>
      <point x="250" y="-32"/>
      <point x="383" y="149"/>
    </contour>
  </outline>
</glyph>
<glyph name="asterisk" format="2">
  <advance width="600"/>
  <unicode hex="002A"/>
  <guideline x="318" y="423" angle="80.5" identifier="0Y4ZRnxlqe"/>
  <outline>
    <contour>
      <point x="304" y="275" type="line"/>
      <point x="427" y="57" type="line"/>
      <point x="445" y="67" type="line"/>
      <point x="323" y="284" type="line"/>
      <point x="572" y="359" type="line"/>
      <point x="568" y="378" type="line"/>
      <point x="319" y="304" type="line"/>
      <point x="361" y="555" type="line"/>
      <point x="340" y="555" type="line"/>
      <point x="298" y="303" type="line"/>
      <point x="74" y="377" type="line"/>
      <point x="65" y="360" type="line"/>
      <point x="288" y="286" type="line"/>
      <point x="94" y="69" type="line"/>
      <point x="110" y="57" type="line"/>
    </contour>
  </outline>
</glyph>
<glyph name="plus" format="2">
  <advance width="600"/>
  <unicode hex="002B"/>
  <outline>
    <contour>
      <point x="278" y="62" type="line"/>
      <point x="317" y="296" type="line"/>
      <point x="545" y="296" type="line"/>
      <point x="548" y="315" type="line"/>
      <point x="320" y="315" type="line"/>
      <point x="359" y="549" type="line"/>
      <point x="338" y="549" type="line"/>
      <point x="299" y="315" type="line"/>
      <point x="71" y="315" type="line"/>
      <point x="68" y="296" type="line"/>
      <point x="296" y="296" type="line"/>
      <point x="257" y="62" type="line"/>
    </contour>
  </outline>
</glyph>
<glyph name="comma" format="2">
  <advance width="600"/>
  <unicode hex="002C"/>
  <outline>
    <contour>
      <point x="158" y="-172" type="line"/>
      <point x="176" y="-172" type="line"/>
      <point x="295" y="78" type="line"/>
      <point x="253" y="78" type="line"/>
    </contour>
  </outline>
</glyph>
<glyph name="hyphen" format="2">
  <advance width="600"/>
  <unicode hex="002D"/>
  <outline>
    <contour>
      <point x="438" y="295" type="line"/>
      <point x="441" y="315" type="line"/>
      <point x="177" y="315" type="line"/>
      <point x="174" y="295" type="line"/>
    </contour>
  </outline>
</glyph>
<glyph name="period" format="2">
  <advance width="600"/>
  <unicode hex="002E"/>
  <outline>
    <contour>
      <point x="256" y="-5" type="curve" smooth="yes"/>
      <point x="277" y="-5"/>
      <point x="290" y="5"/>
      <point x="293" y="21" type="curve" smooth="yes"/>
      <point x="294" y="26"/>
      <point x="295" y="31"/>
      <point x="295" y="35" type="curve" smooth="yes"/>
      <point x="295" y="49"/>
      <point x="286" y="57"/>
      <point x="266" y="57" type="curve" smooth="yes"/>
      <point x="245" y="57"/>
      <point x="232" y="47"/>
      <point x="229" y="31" type="curve" smooth="yes"/>
      <point x="228" y="26"/>
      <point x="227" y="21"/>
      <point x="227" y="17" type="curve" smooth="yes"/>
      <point x="227" y="3"/>
      <point x="236" y="-5"/>
    </contour>
  </outline>
</glyph>
<glyph name="slash" format="2">
  <advance width="600"/>
  <unicode hex="002F"/>
  <outline>
    <contour>
      <point x="59" y="-138" type="line"/>
      <point x="570" y="760" type="line"/>
      <point x="550" y="760" type="line"/>
      <point x="39" y="-138" type="line"/>
    </contour>
  </outline>
</glyph>
<glyph name="one" format="2">
  <advance width="600"/>
  <unicode hex="0031"/>
  <outline>
    <contour>
      <point x="502" y="0" type="line"/>
      <point x="505" y="20" type="line"/>
      <point x="294" y="20" type="line"/>
      <point x="407" y="698" type="line"/>
      <point x="367" y="698" type="line"/>
      <point x="123" y="517" type="line"/>
      <point x="134" y="501" type="line"/>
      <point x="379" y="682" type="line"/>
      <point x="382" y="682" type="line"/>
      <point x="272" y="20" type="line"/>
      <point x="53" y="20" type="line"/>
      <point x="50" y="0" type="line"/>
    </contour>
  </outline>
</glyph>
<glyph name="four" format="2">
  <advance width="600"/>
  <unicode hex="0034"/>
  <outline>
    <contour>
      <point x="390" y="0" type="line"/>
      <point x="417" y="160" type="line"/>
      <point x="534" y="160" type="line"/>
      <point x="537" y="179" type="line"/>
      <point x="420" y="179" type="line"/>
      <point x="507" y="698" type="line"/>
      <point x="480" y="698" type="line"/>
      <point x="34" y="181" type="line"/>
      <point x="31" y="160" type="line"/>
      <point x="396" y="160" type="line"/>
      <point x="369" y="0" type="line"/>
    </contour>
    <contour>
      <point x="477" y="667" type="line"/>
      <point x="480" y="667" type="line"/>
      <point x="399" y="179" type="line"/>
      <point x="58" y="179" type="line"/>
    </contour>
  </outline>
</glyph>
<glyph name="five" format="2">
  <advance width="600"/>
  <unicode hex="0035"/>
  <outline>
    <contour>
      <point x="554" y="698" type="line"/>
      <point x="212" y="698" type="line"/>
      <point x="124" y="326" type="line"/>
      <point x="148" y="323" type="line"/>
      <point x="196" y="370"/>
      <point x="237" y="393"/>
      <point x="316" y="393" type="curve" smooth="yes"/>
      <point x="422" y="393"/>
      <point x="476" y="334"/>
      <point x="476" y="242" type="curve" smooth="yes"/>
      <point x="476" y="230"/>
      <point x="476" y="218"/>
      <point x="469" y="178" type="curve" smooth="yes"/>
      <point x="452" y="75"/>
      <point x="385" y="8"/>
      <point x="260" y="8" type="curve" smooth="yes"/>
      <point x="184" y="8"/>
      <point x="109" y="33"/>
      <point x="76" y="105" type="curve"/>
      <point x="59" y="95" type="line"/>
      <point x="92" y="21"/>
      <point x="173" y="-12"/>
      <point x="261" y="-12" type="curve" smooth="yes"/>
      <point x="407" y="-12"/>
      <point x="498" y="78"/>
      <point x="498" y="242" type="curve" smooth="yes"/>
      <point x="498" y="346"/>
      <point x="434" y="413"/>
      <point x="317" y="413" type="curve" smooth="yes"/>
      <point x="246" y="413"/>
      <point x="194" y="393"/>
      <point x="151" y="343" type="curve"/>
      <point x="148" y="344" type="line"/>
      <point x="227" y="678" type="line"/>
      <point x="551" y="678" type="line"/>
    </contour>
  </outline>
</glyph>
<glyph name="seven" format="2">
  <advance width="600"/>
  <unicode hex="0037"/>
  <outline>
    <contour>
      <point x="168" y="0" type="line"/>
      <point x="582" y="678" type="line"/>
      <point x="585" y="698" type="line"/>
      <point x="150" y="698" type="line"/>
      <point x="119" y="512" type="line"/>
      <point x="140" y="512" type="line"/>
      <point x="168" y="678" type="line"/>
      <point x="558" y="678" type="line"/>
      <point x="144" y="0" type="line"/>
    </contour>
  </outline>
</glyph>
<glyph name="less" format="2">
  <advance width="600"/>
  <unicode hex="003C"/>
  <outline>
    <contour>
      <point x="478" y="38" type="line"/>
      <point x="482" y="59" type="line"/>
      <point x="116" y="303" type="line"/>
      <point x="116" y="305" type="line"/>
      <point x="563" y="547" type="line"/>
      <point x="567" y="572" type="line"/>
      <point x="94" y="314" type="line"/>
      <point x="91" y="296" type="line"/>
    </contour>
  </outline>
</glyph>
<glyph name="equal" format="2">
  <advance width="600"/>
  <unicode hex="003D"/>
  <outline>
    <contour>
      <point x="560" y="385" type="line"/>
      <point x="563" y="404" type="line"/>
      <point x="86" y="404" type="line"/>
      <point x="83" y="385" type="line"/>
    </contour>
    <contour>
      <point x="530" y="207" type="line"/>
      <point x="533" y="226" type="line"/>
      <point x="56" y="226" type="line"/>
      <point x="53" y="207" type="line"/>
    </contour>
  </outline>
</glyph>
<glyph name="greater" format="2">
  <advance width="600"/>
  <unicode hex="003E"/>
  <outline>
    <contour>
      <point x="48" y="38" type="line"/>
      <point x="521" y="296" type="line"/>
      <point x="524" y="314" type="line"/>
      <point x="137" y="572" type="line"/>
      <point x="133" y="551" type="line"/>
      <point x="499" y="307" type="line"/>
      <point x="499" y="305" type="line"/>
      <point x="52" y="63" type="line"/>
    </contour>
  </outline>
</glyph>
<glyph name="A" format="2">
  <advance width="600"/>
  <unicode hex="0041"/>
  <anchor x="257.0" y="0.0" name="bottom"/>
  <anchor x="505.0" y="0.0" name="bottomright"/>
  <anchor x="374.0" y="698.0" name="top"/>
  <outline>
    <contour>
      <point x="505" y="0" type="line"/>
      <point x="388" y="698" type="line"/>
      <point x="358" y="698" type="line"/>
      <point x="9" y="0" type="line"/>
      <point x="33" y="0" type="line"/>
      <point x="150" y="234" type="line"/>
      <point x="444" y="234" type="line"/>
      <point x="483" y="0" type="line"/>
    </contour>
    <contour>
      <point x="441" y="253" type="line"/>
      <point x="159" y="253" type="line"/>
      <point x="368" y="673" type="line"/>
      <point x="371" y="673" type="line"/>
    </contour>
  </outline>
</glyph>
<glyph name="B" format="2">
  <advance width="600"/>
  <unicode hex="0042"/>
  <anchor x="250.0" y="0.0" name="bottom"/>
  <anchor x="346.0" y="698.0" name="top"/>
  <outline>
    <contour>
      <point x="59" y="0" type="line"/>
      <point x="306" y="0" type="line" smooth="yes"/>
      <point x="436" y="0"/>
      <point x="509" y="75"/>
      <point x="509" y="216" type="curve" smooth="yes"/>
      <point x="509" y="286"/>
      <point x="475" y="340"/>
      <point x="407" y="354" type="curve"/>
      <point x="407" y="357" type="line"/>
      <point x="496" y="380"/>
      <point x="533" y="458"/>
      <point x="533" y="549" type="curve" smooth="yes"/>
      <point x="533" y="646"/>
      <point x="478" y="698"/>
      <point x="379" y="698" type="curve" smooth="yes"/>
      <point x="175" y="698" type="line"/>
    </contour>
    <contour>
      <point x="84" y="20" type="line"/>
      <point x="138" y="344" type="line"/>
      <point x="357" y="344" type="line" smooth="yes"/>
      <point x="448" y="344"/>
      <point x="487" y="286"/>
      <point x="487" y="216" type="curve" smooth="yes"/>
      <point x="487" y="206"/>
      <point x="487" y="198"/>
      <point x="485" y="186" type="curve" smooth="yes"/>
      <point x="479" y="149" type="line" smooth="yes"/>
      <point x="467" y="75"/>
      <point x="408" y="20"/>
      <point x="306" y="20" type="curve" smooth="yes"/>
    </contour>
    <contour>
      <point x="142" y="364" type="line"/>
      <point x="194" y="678" type="line"/>
      <point x="379" y="678" type="line" smooth="yes"/>
      <point x="473" y="678"/>
      <point x="511" y="626"/>
      <point x="511" y="555" type="curve" smooth="yes"/>
      <point x="511" y="546"/>
      <point x="511" y="541"/>
      <point x="509" y="527" type="curve" smooth="yes"/>
      <point x="504" y="495" type="line" smooth="yes"/>
      <point x="493" y="422"/>
      <point x="439" y="364"/>
      <point x="345" y="364" type="curve" smooth="yes"/>
    </contour>
  </outline>
</glyph>
<glyph name="D" format="2">
  <advance width="600"/>
  <unicode hex="0044"/>
  <anchor x="242.0" y="0.0" name="bottom"/>
  <anchor x="345.0" y="698.0" name="top"/>
  <outline>
    <contour>
      <point x="65" y="0" type="line"/>
      <point x="260" y="0" type="line" smooth="yes"/>
      <point x="472" y="0"/>
      <point x="552" y="228"/>
      <point x="552" y="469" type="curve" smooth="yes"/>
      <point x="552" y="620"/>
      <point x="466" y="698"/>
      <point x="343" y="698" type="curve" smooth="yes"/>
      <point x="181" y="698" type="line"/>
    </contour>
    <contour>
      <point x="90" y="20" type="line"/>
      <point x="200" y="678" type="line"/>
      <point x="344" y="678" type="line" smooth="yes"/>
      <point x="460" y="678"/>
      <point x="531" y="603"/>
      <point x="531" y="468" type="curve" smooth="yes"/>
      <point x="531" y="434"/>
      <point x="530" y="397"/>
      <point x="523" y="357" type="curve" smooth="yes"/>
      <point x="513" y="298" type="line" smooth="yes"/>
      <point x="482" y="115"/>
      <point x="389" y="20"/>
      <point x="260" y="20" type="curve" smooth="yes"/>
    </contour>
  </outline>
</glyph>
<glyph name="E" format="2">
  <advance width="600"/>
  <unicode hex="0045"/>
  <anchor x="268.0" y="0.0" name="bottom"/>
  <anchor x="471.0" y="0.0" name="bottomright"/>
  <anchor x="385.0" y="698.0" name="top"/>
  <outline>
    <contour>
      <point x="471" y="0" type="line"/>
      <point x="474" y="20" type="line"/>
      <point x="90" y="20" type="line"/>
      <point x="144" y="344" type="line"/>
      <point x="514" y="344" type="line"/>
      <point x="518" y="364" type="line"/>
      <point x="148" y="364" type="line"/>
      <point x="200" y="678" type="line"/>
      <point x="584" y="678" type="line"/>
      <point x="587" y="698" type="line"/>
      <point x="181" y="698" type="line"/>
      <point x="65" y="0" type="line"/>
    </contour>
  </outline>
</glyph>
<glyph name="F" format="2">
  <advance width="600"/>
  <unicode hex="0046"/>
  <anchor x="76.0" y="0.0" name="bottom"/>
  <anchor x="385.0" y="698.0" name="top"/>
  <outline>
    <contour>
      <point x="87" y="0" type="line"/>
      <point x="144" y="344" type="line"/>
      <point x="504" y="344" type="line"/>
      <point x="508" y="364" type="line"/>
      <point x="148" y="364" type="line"/>
      <point x="200" y="678" type="line"/>
      <point x="588" y="678" type="line"/>
      <point x="591" y="698" type="line"/>
      <point x="181" y="698" type="line"/>
      <point x="65" y="0" type="line"/>
    </contour>
  </outline>
</glyph>
<glyph name="G" format="2">
  <advance width="600"/>
  <unicode hex="0047"/>
  <anchor x="271.0" y="0.0" name="bottom"/>
  <anchor x="378.0" y="698.0" name="top"/>
  <outline>
    <contour>
      <point x="448" y="0" type="line"/>
      <point x="470" y="0" type="line"/>
      <point x="523" y="315" type="line"/>
      <point x="323" y="315" type="line"/>
      <point x="319" y="295" type="line"/>
      <point x="498" y="295" type="line"/>
      <point x="481" y="195" type="line" smooth="yes"/>
      <point x="462" y="86"/>
      <point x="388" y="8"/>
      <point x="284" y="8" type="curve" smooth="yes"/>
      <point x="161" y="8"/>
      <point x="110" y="79"/>
      <point x="110" y="219" type="curve" smooth="yes"/>
      <point x="110" y="253"/>
      <point x="111" y="291"/>
      <point x="118" y="331" type="curve" smooth="yes"/>
      <point x="128" y="390" type="line" smooth="yes"/>
      <point x="161" y="582"/>
      <point x="249" y="690"/>
      <point x="376" y="690" type="curve" smooth="yes"/>
      <point x="468" y="690"/>
      <point x="517" y="642"/>
      <point x="540" y="563" type="curve"/>
      <point x="560" y="569" type="line"/>
      <point x="535" y="656"/>
      <point x="479" y="710"/>
      <point x="376" y="710" type="curve" smooth="yes"/>
      <point x="172" y="710"/>
      <point x="89" y="461"/>
      <point x="89" y="219" type="curve" smooth="yes"/>
      <point x="89" y="58"/>
      <point x="156" y="-12"/>
      <point x="284" y="-12" type="curve" smooth="yes"/>
      <point x="378" y="-12"/>
      <point x="426" y="39"/>
      <point x="463" y="103" type="curve"/>
      <point x="466" y="103" type="line"/>
    </contour>
  </outline>
</glyph>
<glyph name="H" format="2">
  <advance width="600"/>
  <unicode hex="0048"/>
  <anchor x="259.0" y="0.0" name="bottom"/>
  <anchor x="374.0" y="698.0" name="top"/>
  <outline>
    <contour>
      <point x="437" y="0" type="line"/>
      <point x="459" y="0" type="line"/>
      <point x="575" y="698" type="line"/>
      <point x="553" y="698" type="line"/>
      <point x="498" y="364" type="line"/>
      <point x="138" y="364" type="line"/>
      <point x="193" y="698" type="line"/>
      <point x="171" y="698" type="line"/>
      <point x="55" y="0" type="line"/>
      <point x="77" y="0" type="line"/>
      <point x="134" y="344" type="line"/>
      <point x="494" y="344" type="line"/>
    </contour>
  </outline>
</glyph>
<glyph name="I" format="2">
  <advance width="600"/>
  <unicode hex="0049"/>
  <anchor x="257.0" y="0.0" name="bottom"/>
  <anchor x="465.0" y="0.0" name="bottomright"/>
  <anchor x="374.0" y="698.0" name="top"/>
  <outline>
    <contour>
      <point x="465" y="0" type="line"/>
      <point x="468" y="19" type="line"/>
      <point x="271" y="19" type="line"/>
      <point x="381" y="679" type="line"/>
      <point x="578" y="679" type="line"/>
      <point x="581" y="698" type="line"/>
      <point x="165" y="698" type="line"/>
      <point x="162" y="679" type="line"/>
      <point x="359" y="679" type="line"/>
      <point x="249" y="19" type="line"/>
      <point x="52" y="19" type="line"/>
      <point x="49" y="0" type="line"/>
    </contour>
  </outline>
</glyph>
<glyph name="K" format="2">
  <advance width="600"/>
  <unicode hex="004B"/>
  <anchor x="268.0" y="0.0" name="bottom"/>
  <anchor x="374.0" y="698.0" name="top"/>
  <outline>
    <contour>
      <point x="479" y="0" type="line"/>
      <point x="503" y="0" type="line"/>
      <point x="302" y="402" type="line"/>
      <point x="618" y="698" type="line"/>
      <point x="590" y="698" type="line"/>
      <point x="295" y="423" type="line"/>
      <point x="135" y="273" type="line"/>
      <point x="132" y="273" type="line"/>
      <point x="203" y="698" type="line"/>
      <point x="181" y="698" type="line"/>
      <point x="65" y="0" type="line"/>
      <point x="87" y="0" type="line"/>
      <point x="127" y="240" type="line"/>
      <point x="285" y="387" type="line"/>
    </contour>
  </outline>
</glyph>
<glyph name="L" format="2">
  <advance width="600"/>
  <unicode hex="004C"/>
  <anchor x="298.0" y="0.0" name="bottom"/>
  <anchor x="230.0" y="698.0" name="top"/>
  <anchor x="355.0" y="740.0" name="topright"/>
  <outline>
    <contour>
      <point x="485" y="0" type="line"/>
      <point x="488" y="20" type="line"/>
      <point x="128" y="20" type="line"/>
      <point x="241" y="698" type="line"/>
      <point x="219" y="698" type="line"/>
      <point x="103" y="0" type="line"/>
    </contour>
  </outline>
</glyph>
<glyph name="M" format="2">
  <advance width="600"/>
  <unicode hex="004D"/>
  <anchor x="257.0" y="0.0" name="bottom"/>
  <anchor x="375.0" y="698.0" name="top"/>
  <outline>
    <contour>
      <point x="451" y="0" type="line"/>
      <point x="472" y="0" type="line"/>
      <point x="588" y="698" type="line"/>
      <point x="555" y="698" type="line"/>
      <point x="306" y="295" type="line"/>
      <point x="303" y="295" type="line"/>
      <point x="189" y="698" type="line"/>
      <point x="158" y="698" type="line"/>
      <point x="42" y="0" type="line"/>
      <point x="63" y="0" type="line"/>
      <point x="174" y="667" type="line"/>
      <point x="177" y="667" type="line"/>
      <point x="298" y="245" type="line"/>
      <point x="559" y="667" type="line"/>
      <point x="562" y="667" type="line"/>
    </contour>
  </outline>
</glyph>
<glyph name="N" format="2">
  <advance width="600"/>
  <unicode hex="004E"/>
  <anchor x="258.0" y="0.0" name="bottom"/>
  <anchor x="374.0" y="698.0" name="top"/>
  <outline>
    <contour>
      <point x="426" y="0" type="line"/>
      <point x="459" y="0" type="line"/>
      <point x="575" y="698" type="line"/>
      <point x="554" y="698" type="line"/>
      <point x="442" y="26" type="line"/>
      <point x="439" y="26" type="line"/>
      <point x="204" y="698" type="line"/>
      <point x="171" y="698" type="line"/>
      <point x="55" y="0" type="line"/>
      <point x="76" y="0" type="line"/>
      <point x="188" y="672" type="line"/>
      <point x="191" y="672" type="line"/>
    </contour>
  </outline>
</glyph>
<glyph name="O" format="2">
  <advance width="600"/>
  <unicode hex="004F"/>
  <anchor x="262.0" y="0.0" name="bottom"/>
  <anchor x="369.0" y="698.0" name="top"/>
  <outline>
    <contour>
      <point x="262" y="-12" type="curve" smooth="yes"/>
      <point x="466" y="-12"/>
      <point x="550" y="237"/>
      <point x="550" y="479" type="curve" smooth="yes"/>
      <point x="550" y="640"/>
      <point x="485" y="710"/>
      <point x="364" y="710" type="curve" smooth="yes"/>
      <point x="160" y="710"/>
      <point x="76" y="461"/>
      <point x="76" y="219" type="curve" smooth="yes"/>
      <point x="76" y="58"/>
      <point x="141" y="-12"/>
    </contour>
    <contour>
      <point x="262" y="8" type="curve" smooth="yes"/>
      <point x="146" y="8"/>
      <point x="97" y="79"/>
      <point x="97" y="219" type="curve" smooth="yes"/>
      <point x="97" y="253"/>
      <point x="98" y="291"/>
      <point x="105" y="331" type="curve" smooth="yes"/>
      <point x="115" y="390" type="line" smooth="yes"/>
      <point x="148" y="582"/>
      <point x="237" y="690"/>
      <point x="364" y="690" type="curve" smooth="yes"/>
      <point x="480" y="690"/>
      <point x="529" y="619"/>
      <point x="529" y="479" type="curve" smooth="yes"/>
      <point x="529" y="445"/>
      <point x="528" y="407"/>
      <point x="521" y="367" type="curve" smooth="yes"/>
      <point x="511" y="308" type="line" smooth="yes"/>
      <point x="478" y="116"/>
      <point x="389" y="8"/>
    </contour>
  </outline>
</glyph>
<glyph name="P" format="2">
  <advance width="600"/>
  <unicode hex="0050"/>
  <anchor x="76.0" y="0.0" name="bottom"/>
  <anchor x="376.0" y="698.0" name="top"/>
  <outline>
    <contour>
      <point x="87" y="0" type="line"/>
      <point x="141" y="322" type="line"/>
      <point x="371" y="322" type="line" smooth="yes"/>
      <point x="502" y="322"/>
      <point x="572" y="411"/>
      <point x="572" y="547" type="curve" smooth="yes"/>
      <point x="572" y="633"/>
      <point x="513" y="698"/>
      <point x="415" y="698" type="curve" smooth="yes"/>
      <point x="181" y="698" type="line"/>
      <point x="65" y="0" type="line"/>
    </contour>
    <contour>
      <point x="200" y="678" type="line"/>
      <point x="415" y="678" type="line" smooth="yes"/>
      <point x="508" y="678"/>
      <point x="550" y="616"/>
      <point x="550" y="547" type="curve" smooth="yes"/>
      <point x="550" y="538"/>
      <point x="549" y="530"/>
      <point x="548" y="521" type="curve" smooth="yes"/>
      <point x="542" y="484" type="line" smooth="yes"/>
      <point x="529" y="402"/>
      <point x="474" y="342"/>
      <point x="371" y="342" type="curve" smooth="yes"/>
      <point x="144" y="342" type="line"/>
    </contour>
  </outline>
</glyph>
<glyph name="Q" format="2">
  <advance width="600"/>
  <unicode hex="0051"/>
  <anchor x="369.0" y="698.0" name="top"/>
  <outline>
    <contour>
      <point x="375" y="-169" type="curve" smooth="yes"/>
      <point x="381" y="-169"/>
      <point x="388" y="-167"/>
      <point x="395" y="-161" type="curve" smooth="yes"/>
      <point x="514" y="-59" type="line"/>
      <point x="501" y="-47" type="line"/>
      <point x="378" y="-150" type="line"/>
      <point x="375" y="-150" type="line"/>
      <point x="281" y="-11" type="line"/>
      <point x="471" y="3"/>
      <point x="550" y="245"/>
      <point x="550" y="479" type="curve" smooth="yes"/>
      <point x="550" y="640"/>
      <point x="485" y="710"/>
      <point x="364" y="710" type="curve" smooth="yes"/>
      <point x="160" y="710"/>
      <point x="76" y="461"/>
      <point x="76" y="219" type="curve" smooth="yes"/>
      <point x="76" y="61"/>
      <point x="139" y="-10"/>
      <point x="256" y="-12" type="curve"/>
      <point x="354" y="-156" type="line" smooth="yes"/>
      <point x="360" y="-165"/>
      <point x="367" y="-169"/>
    </contour>
    <contour>
      <point x="262" y="8" type="curve" smooth="yes"/>
      <point x="146" y="8"/>
      <point x="97" y="79"/>
      <point x="97" y="219" type="curve" smooth="yes"/>
      <point x="97" y="253"/>
      <point x="98" y="291"/>
      <point x="105" y="331" type="curve" smooth="yes"/>
      <point x="115" y="390" type="line" smooth="yes"/>
      <point x="148" y="582"/>
      <point x="237" y="690"/>
      <point x="364" y="690" type="curve" smooth="yes"/>
      <point x="480" y="690"/>
      <point x="529" y="619"/>
      <point x="529" y="479" type="curve" smooth="yes"/>
      <point x="529" y="445"/>
      <point x="528" y="407"/>
      <point x="521" y="367" type="curve" smooth="yes"/>
      <point x="511" y="308" type="line" smooth="yes"/>
      <point x="478" y="116"/>
      <point x="389" y="8"/>
    </contour>
  </outline>
</glyph>
<glyph name="R" format="2">
  <advance width="600"/>
  <unicode hex="0052"/>
  <anchor x="258.0" y="0.0" name="bottom"/>
  <anchor x="364.0" y="698.0" name="top"/>
  <outline>
    <contour>
      <point x="141" y="322" type="line"/>
      <point x="303" y="322" type="line"/>
      <point x="455" y="0" type="line"/>
      <point x="478" y="0" type="line"/>
      <point x="325" y="322" type="line"/>
      <point x="371" y="322" type="line" smooth="yes"/>
      <point x="502" y="322"/>
      <point x="572" y="411"/>
      <point x="572" y="547" type="curve" smooth="yes"/>
      <point x="572" y="633"/>
      <point x="513" y="698"/>
      <point x="415" y="698" type="curve" smooth="yes"/>
      <point x="181" y="698" type="line"/>
      <point x="65" y="0" type="line"/>
      <point x="87" y="0" type="line"/>
    </contour>
    <contour>
      <point x="144" y="342" type="line"/>
      <point x="200" y="678" type="line"/>
      <point x="415" y="678" type="line" smooth="yes"/>
      <point x="508" y="678"/>
      <point x="550" y="616"/>
      <point x="550" y="547" type="curve" smooth="yes"/>
      <point x="550" y="538"/>
      <point x="549" y="530"/>
      <point x="548" y="521" type="curve" smooth="yes"/>
      <point x="542" y="484" type="line" smooth="yes"/>
      <point x="529" y="402"/>
      <point x="474" y="342"/>
      <point x="371" y="342" type="curve" smooth="yes"/>
    </contour>
  </outline>
</glyph>
<glyph name="T" format="2">
  <advance width="600"/>
  <unicode hex="0054"/>
  <anchor x="257.0" y="0.0" name="bottom"/>
  <anchor x="373.0" y="698.0" name="top"/>
  <outline>
    <contour>
      <point x="629" y="678" type="line"/>
      <point x="632" y="698" type="line"/>
      <point x="114" y="698" type="line"/>
      <point x="111" y="678" type="line"/>
      <point x="359" y="678" type="line"/>
      <point x="246" y="0" type="line"/>
      <point x="268" y="0" type="line"/>
      <point x="381" y="678" type="line"/>
    </contour>
  </outline>
</glyph>
<glyph name="U" format="2">
  <advance width="600"/>
  <unicode hex="0055"/>
  <anchor x="256.0" y="0.0" name="bottom"/>
  <anchor x="348.0" y="0.0" name="bottomright"/>
  <anchor x="373.0" y="698.0" name="top"/>
  <outline>
    <contour>
      <point x="171" y="698" type="line"/>
      <point x="101" y="276" type="line" smooth="yes"/>
      <point x="93" y="228"/>
      <point x="87" y="184"/>
      <point x="87" y="149" type="curve" smooth="yes"/>
      <point x="87" y="32"/>
      <point x="142" y="-12"/>
      <point x="259" y="-12" type="curve" smooth="yes"/>
      <point x="412" y="-12"/>
      <point x="469" y="57"/>
      <point x="504" y="270" type="curve" smooth="yes"/>
      <point x="575" y="698" type="line"/>
      <point x="553" y="698" type="line"/>
      <point x="482" y="271" type="line" smooth="yes"/>
      <point x="449" y="73"/>
      <point x="401" y="8"/>
      <point x="261" y="8" type="curve" smooth="yes"/>
      <point x="154" y="8"/>
      <point x="108" y="44"/>
      <point x="108" y="149" type="curve" smooth="yes"/>
      <point x="108" y="183"/>
      <point x="114" y="221"/>
      <point x="122" y="271" type="curve" smooth="yes"/>
      <point x="193" y="698" type="line"/>
    </contour>
  </outline>
</glyph>
<glyph name="V" format="2">
  <advance width="600"/>
  <unicode hex="0056"/>
  <anchor x="257.0" y="0.0" name="bottom"/>
  <anchor x="374.0" y="698.0" name="top"/>
  <outline>
    <contour>
      <point x="272" y="0" type="line"/>
      <point x="618" y="698" type="line"/>
      <point x="594" y="698" type="line"/>
      <point x="262" y="26" type="line"/>
      <point x="259" y="26" type="line"/>
      <point x="151" y="698" type="line"/>
      <point x="128" y="698" type="line"/>
      <point x="242" y="0" type="line"/>
    </contour>
  </outline>
</glyph>
<glyph name="W" format="2">
  <advance width="600"/>
  <unicode hex="0057"/>
  <anchor x="257.0" y="0.0" name="bottom"/>
  <anchor x="373.0" y="698.0" name="top"/>
  <outline>
    <contour>
      <point x="121" y="0" type="line"/>
      <point x="331" y="454" type="line"/>
      <point x="334" y="454" type="line"/>
      <point x="393" y="0" type="line"/>
      <point x="431" y="0" type="line"/>
      <point x="615" y="698" type="line"/>
      <point x="595" y="698" type="line"/>
      <point x="415" y="22" type="line"/>
      <point x="411" y="22" type="line"/>
      <point x="351" y="484" type="line"/>
      <point x="323" y="484" type="line"/>
      <point x="109" y="22" type="line"/>
      <point x="105" y="22" type="line"/>
      <point x="151" y="698" type="line"/>
      <point x="131" y="698" type="line"/>
      <point x="83" y="0" type="line"/>
    </contour>
  </outline>
</glyph>
<glyph name="X" format="2">
  <advance width="600"/>
  <unicode hex="0058"/>
  <anchor x="258.0" y="0.0" name="bottom"/>
  <anchor x="374.0" y="698.0" name="top"/>
  <outline>
    <contour>
      <point x="332" y="355" type="line"/>
      <point x="617" y="698" type="line"/>
      <point x="589" y="698" type="line"/>
      <point x="322" y="375" type="line"/>
      <point x="319" y="375" type="line"/>
      <point x="157" y="698" type="line"/>
      <point x="133" y="698" type="line"/>
      <point x="305" y="356" type="line"/>
      <point x="8" y="0" type="line"/>
      <point x="36" y="0" type="line"/>
      <point x="315" y="336" type="line"/>
      <point x="318" y="336" type="line"/>
      <point x="486" y="0" type="line"/>
      <point x="510" y="0" type="line"/>
    </contour>
  </outline>
</glyph>
<glyph name="Y" format="2">
  <advance width="600"/>
  <unicode hex="0059"/>
  <anchor x="257.0" y="0.0" name="bottom"/>
  <anchor x="374.0" y="698.0" name="top"/>
  <outline>
    <contour>
      <point x="268" y="0" type="line"/>
      <point x="317" y="294" type="line"/>
      <point x="645" y="698" type="line"/>
      <point x="619" y="698" type="line"/>
      <point x="310" y="317" type="line"/>
      <point x="307" y="317" type="line"/>
      <point x="124" y="698" type="line"/>
      <point x="101" y="698" type="line"/>
      <point x="295" y="294" type="line"/>
      <point x="246" y="0" type="line"/>
    </contour>
  </outline>
</glyph>
<glyph name="Z" format="2">
  <advance width="600"/>
  <unicode hex="005A"/>
  <anchor x="257.0" y="0.0" name="bottom"/>
  <anchor x="374.0" y="698.0" name="top"/>
  <outline>
    <contour>
      <point x="512" y="20" type="line"/>
      <point x="35" y="20" type="line"/>
      <point x="599" y="676" type="line"/>
      <point x="603" y="698" type="line"/>
      <point x="144" y="698" type="line"/>
      <point x="141" y="678" type="line"/>
      <point x="573" y="678" type="line"/>
      <point x="9" y="22" type="line"/>
      <point x="5" y="0" type="line"/>
      <point x="509" y="0" type="line"/>
    </contour>
  </outline>
</glyph>
<glyph name="bracketleft" format="2">
  <advance width="600"/>
  <unicode hex="005B"/>
  <outline>
    <contour>
      <point x="436" y="-138" type="line"/>
      <point x="439" y="-120" type="line"/>
      <point x="221" y="-120" type="line"/>
      <point x="365" y="742" type="line"/>
      <point x="583" y="742" type="line"/>
      <point x="586" y="760" type="line"/>
      <point x="348" y="760" type="line"/>
      <point x="198" y="-138" type="line"/>
    </contour>
  </outline>
</glyph>
<glyph name="bracketright" format="2">
  <advance width="600"/>
  <unicode hex="005D"/>
  <outline>
    <contour>
      <point x="181" y="760" type="line"/>
      <point x="178" y="742" type="line"/>
      <point x="396" y="742" type="line"/>
      <point x="252" y="-120" type="line"/>
      <point x="34" y="-120" type="line"/>
      <point x="31" y="-138" type="line"/>
      <point x="269" y="-138" type="line"/>
      <point x="419" y="760" type="line"/>
    </contour>
  </outline>
</glyph>
<glyph name="asciicircum" format="2">
  <advance width="600"/>
  <unicode hex="005E"/>
  <outline>
    <contour>
      <point x="545" y="331" type="line"/>
      <point x="384" y="698" type="line"/>
      <point x="362" y="698" type="line"/>
      <point x="82" y="332" type="line"/>
      <point x="98" y="321" type="line"/>
      <point x="370" y="676" type="line"/>
      <point x="372" y="676" type="line"/>
      <point x="527" y="322" type="line"/>
    </contour>
  </outline>
</glyph>
<glyph name="underscore" format="2">
  <advance width="600"/>
  <unicode hex="005F"/>
  <outline>
    <contour>
      <point x="474" y="-141" type="line"/>
      <point x="477" y="-122" type="line"/>
      <point x="-3" y="-122" type="line"/>
      <point x="-6" y="-141" type="line"/>
    </contour>
  </outline>
</glyph>
<glyph name="grave" format="2">
  <advance width="600"/>
  <unicode hex="0060"/>
  <anchor x="300.0" y="516.0" name="_top"/>
  <outline>
    <contour>
      <point x="331" y="597" type="line"/>
      <point x="347" y="606" type="line"/>
      <point x="262" y="761" type="line"/>
      <point x="242" y="750" type="line"/>
    </contour>
  </outline>
</glyph>
<glyph name="d" format="2">
  <advance width="600"/>
  <unicode hex="0064"/>
  <anchor x="244.0" y="0.0" name="bottom"/>
  <anchor x="626.0" y="740.0" name="topright"/>
  <outline>
    <contour>
      <point x="412" y="0" type="line"/>
      <point x="433" y="0" type="line"/>
      <point x="556" y="740" type="line"/>
      <point x="535" y="740" type="line"/>
      <point x="483" y="423" type="line"/>
      <point x="480" y="423" type="line"/>
      <point x="460" y="484"/>
      <point x="404" y="528"/>
      <point x="313" y="528" type="curve" smooth="yes"/>
      <point x="167" y="528"/>
      <point x="71" y="384"/>
      <point x="71" y="186" type="curve" smooth="yes"/>
      <point x="71" y="72"/>
      <point x="130" y="-12"/>
      <point x="244" y="-12" type="curve" smooth="yes"/>
      <point x="335" y="-12"/>
      <point x="389" y="40"/>
      <point x="428" y="115" type="curve"/>
      <point x="431" y="115" type="line"/>
    </contour>
    <contour>
      <point x="244" y="7" type="curve" smooth="yes"/>
      <point x="135" y="7"/>
      <point x="91" y="89"/>
      <point x="91" y="186" type="curve" smooth="yes"/>
      <point x="91" y="203"/>
      <point x="92" y="220"/>
      <point x="95" y="237" type="curve" smooth="yes"/>
      <point x="103" y="286" type="line" smooth="yes"/>
      <point x="124" y="412"/>
      <point x="199" y="509"/>
      <point x="313" y="509" type="curve" smooth="yes"/>
      <point x="441" y="509"/>
      <point x="482" y="424"/>
      <point x="471" y="355" type="curve" smooth="yes"/>
      <point x="446" y="204" type="line" smooth="yes"/>
      <point x="435" y="138"/>
      <point x="397" y="83"/>
      <point x="358" y="48" type="curve" smooth="yes"/>
      <point x="325" y="19"/>
      <point x="288" y="7"/>
    </contour>
  </outline>
</glyph>
<glyph name="f" format="2">
  <advance width="600"/>
  <unicode hex="0066"/>
  <outline>
    <contour>
      <point x="209" y="-212" type="curve" smooth="yes"/>
      <point x="225" y="-212"/>
      <point x="231" y="-201"/>
      <point x="235" y="-178" type="curve" smooth="yes"/>
      <point x="348" y="497" type="line"/>
      <point x="573" y="497" type="line"/>
      <point x="576" y="516" type="line"/>
      <point x="351" y="516" type="line"/>
      <point x="385" y="721" type="line"/>
      <point x="610" y="721" type="line"/>
      <point x="613" y="740" type="line"/>
      <point x="394" y="740" type="line" smooth="yes"/>
      <point x="374" y="740"/>
      <point x="365" y="732"/>
      <point x="362" y="711" type="curve" smooth="yes"/>
      <point x="330" y="516" type="line"/>
      <point x="137" y="516" type="line"/>
      <point x="134" y="497" type="line"/>
      <point x="327" y="497" type="line"/>
      <point x="212" y="-191" type="line"/>
      <point x="206" y="-193" type="line"/>
      <point x="4" y="-12" type="line"/>
      <point x="-10" y="-26" type="line"/>
      <point x="178" y="-195" type="line" smooth="yes"/>
      <point x="191" y="-206"/>
      <point x="199" y="-212"/>
    </contour>
  </outline>
</glyph>
<glyph name="h" format="2">
  <advance width="600"/>
  <unicode hex="0068"/>
  <anchor x="262.0" y="0.0" name="bottom"/>
  <anchor x="215.0" y="698.0" name="top"/>
  <outline>
    <contour>
      <point x="88" y="0" type="line"/>
      <point x="109" y="0" type="line"/>
      <point x="161" y="312" type="line" smooth="yes"/>
      <point x="171" y="370"/>
      <point x="202" y="418"/>
      <point x="223" y="444" type="curve" smooth="yes"/>
      <point x="261" y="492"/>
      <point x="310" y="509"/>
      <point x="357" y="509" type="curve" smooth="yes"/>
      <point x="435" y="509"/>
      <point x="477" y="468"/>
      <point x="477" y="386" type="curve" smooth="yes"/>
      <point x="477" y="367"/>
      <point x="475" y="346"/>
      <point x="472" y="329" type="curve" smooth="yes"/>
      <point x="417" y="0" type="line"/>
      <point x="438" y="0" type="line"/>
      <point x="493" y="330" type="line" smooth="yes"/>
      <point x="496" y="349"/>
      <point x="498" y="368"/>
      <point x="498" y="387" type="curve" smooth="yes"/>
      <point x="498" y="476"/>
      <point x="449" y="528"/>
      <point x="360" y="528" type="curve" smooth="yes"/>
      <point x="272" y="528"/>
      <point x="218" y="480"/>
      <point x="179" y="402" type="curve"/>
      <point x="176" y="402" type="line"/>
      <point x="232" y="740" type="line"/>
      <point x="211" y="740" type="line"/>
    </contour>
  </outline>
</glyph>
<glyph name="j" format="2">
  <advance width="600"/>
  <unicode hex="006A"/>
  <outline>
    <contour>
      <point x="329" y="-212" type="curve" smooth="yes"/>
      <point x="345" y="-212"/>
      <point x="351" y="-201"/>
      <point x="355" y="-178" type="curve" smooth="yes"/>
      <point x="470" y="516" type="line"/>
      <point x="139" y="516" type="line"/>
      <point x="136" y="497" type="line"/>
      <point x="446" y="497" type="line"/>
      <point x="332" y="-190" type="line"/>
      <point x="326" y="-192" type="line"/>
      <point x="124" y="-12" type="line"/>
      <point x="110" y="-26" type="line"/>
      <point x="298" y="-195" type="line" smooth="yes"/>
      <point x="311" y="-206"/>
      <point x="319" y="-212"/>
    </contour>
    <contour>
      <point x="487" y="691" type="curve" smooth="yes"/>
      <point x="505" y="691"/>
      <point x="514" y="699"/>
      <point x="517" y="713" type="curve" smooth="yes"/>
      <point x="518" y="719"/>
      <point x="519" y="723"/>
      <point x="519" y="727" type="curve" smooth="yes"/>
      <point x="519" y="736"/>
      <point x="513" y="745"/>
      <point x="493" y="745" type="curve" smooth="yes"/>
      <point x="475" y="745"/>
      <point x="466" y="737"/>
      <point x="463" y="723" type="curve" smooth="yes"/>
      <point x="462" y="717"/>
      <point x="461" y="713"/>
      <point x="461" y="709" type="curve" smooth="yes"/>
      <point x="461" y="700"/>
      <point x="467" y="691"/>
    </contour>
  </outline>
</glyph>
<glyph name="k" format="2">
  <advance width="600"/>
  <unicode hex="006B"/>
  <anchor x="233.0" y="0.0" name="bottom"/>
  <outline>
    <contour>
      <point x="79" y="0" type="line"/>
      <point x="100" y="0" type="line"/>
      <point x="152" y="312" type="line" smooth="yes"/>
      <point x="162" y="369"/>
      <point x="191" y="425"/>
      <point x="237" y="464" type="curve" smooth="yes"/>
      <point x="273" y="495"/>
      <point x="319" y="509"/>
      <point x="368" y="509" type="curve" smooth="yes"/>
      <point x="452" y="509"/>
      <point x="484" y="469"/>
      <point x="484" y="411" type="curve" smooth="yes"/>
      <point x="484" y="340"/>
      <point x="429" y="277"/>
      <point x="231" y="231" type="curve"/>
      <point x="355" y="13" type="line" smooth="yes"/>
      <point x="365" y="-4"/>
      <point x="370" y="-12"/>
      <point x="382" y="-12" type="curve" smooth="yes"/>
      <point x="395" y="-12"/>
      <point x="403" y="-3"/>
      <point x="434" y="26" type="curve" smooth="yes"/>
      <point x="574" y="158" type="line"/>
      <point x="562" y="171" type="line"/>
      <point x="386" y="9" type="line"/>
      <point x="381" y="9" type="line"/>
      <point x="259" y="222" type="line"/>
      <point x="460" y="268"/>
      <point x="506" y="344"/>
      <point x="506" y="411" type="curve" smooth="yes"/>
      <point x="506" y="478"/>
      <point x="464" y="528"/>
      <point x="369" y="528" type="curve" smooth="yes"/>
      <point x="291" y="528"/>
      <point x="218" y="494"/>
      <point x="170" y="402" type="curve"/>
      <point x="167" y="402" type="line"/>
      <point x="223" y="740" type="line"/>
      <point x="202" y="740" type="line"/>
    </contour>
  </outline>
</glyph>
<glyph name="l" format="2">
  <advance width="600"/>
  <unicode hex="006C"/>
  <anchor x="216.0" y="0.0" name="bottom"/>
  <anchor x="339.0" y="698.0" name="top"/>
  <anchor x="462.0" y="740.0" name="topright"/>
  <outline>
    <contour>
      <point x="214" y="-12" type="curve" smooth="yes"/>
      <point x="226" y="-12"/>
      <point x="238" y="-3"/>
      <point x="255" y="9" type="curve" smooth="yes"/>
      <point x="498" y="174" type="line"/>
      <point x="487" y="189" type="line"/>
      <point x="222" y="10" type="line"/>
      <point x="217" y="13" type="line"/>
      <point x="358" y="740" type="line"/>
      <point x="128" y="740" type="line"/>
      <point x="125" y="721" type="line"/>
      <point x="333" y="721" type="line"/>
      <point x="201" y="42" type="line" smooth="yes"/>
      <point x="197" y="21"/>
      <point x="196" y="11"/>
      <point x="196" y="7" type="curve" smooth="yes"/>
      <point x="196" y="-4"/>
      <point x="202" y="-12"/>
    </contour>
  </outline>
</glyph>
<glyph name="o" format="2">
  <advance width="600"/>
  <unicode hex="006F"/>
  <anchor x="266.0" y="0.0" name="bottom"/>
  <anchor x="333.0" y="516.0" name="top"/>
  <outline>
    <contour>
      <point x="266" y="-12" type="curve" smooth="yes"/>
      <point x="420" y="-12"/>
      <point x="518" y="118"/>
      <point x="518" y="335" type="curve" smooth="yes"/>
      <point x="518" y="445"/>
      <point x="453" y="528"/>
      <point x="334" y="528" type="curve" smooth="yes"/>
      <point x="180" y="528"/>
      <point x="82" y="398"/>
      <point x="82" y="181" type="curve" smooth="yes"/>
      <point x="82" y="71"/>
      <point x="147" y="-12"/>
    </contour>
    <contour>
      <point x="268" y="7" type="curve" smooth="yes"/>
      <point x="151" y="7"/>
      <point x="102" y="86"/>
      <point x="102" y="183" type="curve" smooth="yes"/>
      <point x="102" y="208"/>
      <point x="103" y="218"/>
      <point x="106" y="237" type="curve" smooth="yes"/>
      <point x="114" y="286" type="line" smooth="yes"/>
      <point x="137" y="425"/>
      <point x="213" y="509"/>
      <point x="332" y="509" type="curve" smooth="yes"/>
      <point x="449" y="509"/>
      <point x="498" y="430"/>
      <point x="498" y="333" type="curve" smooth="yes"/>
      <point x="498" y="308"/>
      <point x="497" y="298"/>
      <point x="494" y="279" type="curve" smooth="yes"/>
      <point x="486" y="230" type="line" smooth="yes"/>
      <point x="463" y="91"/>
      <point x="387" y="7"/>
    </contour>
  </outline>
</glyph>
<glyph name="p" format="2">
  <advance width="600"/>
  <unicode hex="0070"/>
  <anchor x="355.0" y="516.0" name="top"/>
  <outline>
    <contour>
      <point x="47" y="-200" type="line"/>
      <point x="68" y="-200" type="line"/>
      <point x="116" y="93" type="line"/>
      <point x="119" y="93" type="line"/>
      <point x="139" y="32"/>
      <point x="195" y="-12"/>
      <point x="286" y="-12" type="curve" smooth="yes"/>
      <point x="432" y="-12"/>
      <point x="528" y="132"/>
      <point x="528" y="330" type="curve" smooth="yes"/>
      <point x="528" y="444"/>
      <point x="469" y="528"/>
      <point x="355" y="528" type="curve" smooth="yes"/>
      <point x="264" y="528"/>
      <point x="210" y="476"/>
      <point x="171" y="401" type="curve"/>
      <point x="168" y="401" type="line"/>
      <point x="187" y="516" type="line"/>
      <point x="166" y="516" type="line"/>
    </contour>
    <contour>
      <point x="286" y="7" type="curve" smooth="yes"/>
      <point x="158" y="7"/>
      <point x="117" y="92"/>
      <point x="128" y="161" type="curve" smooth="yes"/>
      <point x="153" y="312" type="line" smooth="yes"/>
      <point x="164" y="378"/>
      <point x="202" y="433"/>
      <point x="241" y="468" type="curve" smooth="yes"/>
      <point x="274" y="497"/>
      <point x="311" y="509"/>
      <point x="355" y="509" type="curve" smooth="yes"/>
      <point x="464" y="509"/>
      <point x="508" y="427"/>
      <point x="508" y="330" type="curve" smooth="yes"/>
      <point x="508" y="313"/>
      <point x="507" y="296"/>
      <point x="504" y="279" type="curve" smooth="yes"/>
      <point x="496" y="230" type="line" smooth="yes"/>
      <point x="475" y="104"/>
      <point x="400" y="7"/>
    </contour>
  </outline>
</glyph>
<glyph name="r" format="2">
  <advance width="600"/>
  <unicode hex="0072"/>
  <anchor x="225.0" y="0.0" name="bottom"/>
  <anchor x="365.0" y="516.0" name="top"/>
  <outline>
    <contour>
      <point x="236" y="0" type="line"/>
      <point x="296" y="359" type="line" smooth="yes"/>
      <point x="304" y="408"/>
      <point x="331" y="443"/>
      <point x="367" y="466" type="curve" smooth="yes"/>
      <point x="399" y="487"/>
      <point x="438" y="497"/>
      <point x="477" y="497" type="curve" smooth="yes"/>
      <point x="596" y="497" type="line"/>
      <point x="599" y="516" type="line"/>
      <point x="480" y="516" type="line" smooth="yes"/>
      <point x="388" y="516"/>
      <point x="348" y="483"/>
      <point x="310" y="429" type="curve"/>
      <point x="307" y="429" type="line"/>
      <point x="322" y="516" type="line"/>
      <point x="123" y="516" type="line"/>
      <point x="120" y="497" type="line"/>
      <point x="298" y="497" type="line"/>
      <point x="215" y="0" type="line"/>
    </contour>
  </outline>
</glyph>
<glyph name="s" format="2">
  <advance width="600"/>
  <unicode hex="0073"/>
  <anchor x="275.0" y="0.0" name="bottom"/>
  <anchor x="334.0" y="516.0" name="top"/>
  <outline>
    <contour>
      <point x="285" y="-12" type="curve" smooth="yes"/>
      <point x="404" y="-12"/>
      <point x="499" y="41"/>
      <point x="499" y="154" type="curve" smooth="yes"/>
      <point x="499" y="236"/>
      <point x="440" y="266"/>
      <point x="358" y="273" type="curve" smooth="yes"/>
      <point x="280" y="280" type="line" smooth="yes"/>
      <point x="200" y="287"/>
      <point x="156" y="312"/>
      <point x="156" y="380" type="curve" smooth="yes"/>
      <point x="156" y="468"/>
      <point x="224" y="509"/>
      <point x="329" y="509" type="curve" smooth="yes"/>
      <point x="431" y="509"/>
      <point x="481" y="474"/>
      <point x="510" y="433" type="curve"/>
      <point x="526" y="447" type="line"/>
      <point x="494" y="489"/>
      <point x="438" y="528"/>
      <point x="330" y="528" type="curve" smooth="yes"/>
      <point x="224" y="528"/>
      <point x="135" y="486"/>
      <point x="135" y="380" type="curve" smooth="yes"/>
      <point x="135" y="298"/>
      <point x="193" y="268"/>
      <point x="275" y="261" type="curve" smooth="yes"/>
      <point x="353" y="254" type="line" smooth="yes"/>
      <point x="433" y="247"/>
      <point x="478" y="221"/>
      <point x="478" y="153" type="curve" smooth="yes"/>
      <point x="478" y="56"/>
      <point x="401" y="7"/>
      <point x="285" y="7" type="curve" smooth="yes"/>
      <point x="190" y="7"/>
      <point x="122" y="34"/>
      <point x="80" y="102" type="curve"/>
      <point x="63" y="90" type="line"/>
      <point x="108" y="21"/>
      <point x="182" y="-12"/>
    </contour>
  </outline>
</glyph>
<glyph name="t" format="2">
  <advance width="600"/>
  <unicode hex="0074"/>
  <anchor x="213.0" y="0.0" name="bottom"/>
  <anchor x="473.0" y="760.0" name="topright"/>
  <outline>
    <contour>
      <point x="213" y="-12" type="curve" smooth="yes"/>
      <point x="226" y="-12"/>
      <point x="238" y="-2"/>
      <point x="256" y="9" type="curve" smooth="yes"/>
      <point x="512" y="167" type="line"/>
      <point x="502" y="183" type="line"/>
      <point x="221" y="10" type="line"/>
      <point x="216" y="13" type="line"/>
      <point x="298" y="497" type="line"/>
      <point x="562" y="497" type="line"/>
      <point x="565" y="516" type="line"/>
      <point x="301" y="516" type="line"/>
      <point x="331" y="698" type="line"/>
      <point x="310" y="698" type="line"/>
      <point x="285" y="545" type="line" smooth="yes"/>
      <point x="282" y="525"/>
      <point x="271" y="516"/>
      <point x="251" y="516" type="curve" smooth="yes"/>
      <point x="79" y="516" type="line"/>
      <point x="76" y="497" type="line"/>
      <point x="277" y="497" type="line"/>
      <point x="200" y="42" type="line" smooth="yes"/>
      <point x="196" y="18"/>
      <point x="195" y="11"/>
      <point x="195" y="6" type="curve" smooth="yes"/>
      <point x="195" y="-4"/>
      <point x="201" y="-12"/>
    </contour>
  </outline>
</glyph>
<glyph name="u" format="2">
  <advance width="600"/>
  <unicode hex="0075"/>
  <anchor x="252.0" y="0.0" name="bottom"/>
  <anchor x="426.0" y="0.0" name="bottomright"/>
  <anchor x="338.0" y="516.0" name="top"/>
  <outline>
    <contour>
      <point x="405" y="0" type="line"/>
      <point x="426" y="0" type="line"/>
      <point x="512" y="516" type="line"/>
      <point x="491" y="516" type="line"/>
      <point x="439" y="204" type="line" smooth="yes"/>
      <point x="429" y="146"/>
      <point x="398" y="98"/>
      <point x="377" y="72" type="curve" smooth="yes"/>
      <point x="339" y="24"/>
      <point x="290" y="7"/>
      <point x="243" y="7" type="curve" smooth="yes"/>
      <point x="165" y="7"/>
      <point x="123" y="48"/>
      <point x="123" y="130" type="curve" smooth="yes"/>
      <point x="123" y="149"/>
      <point x="125" y="170"/>
      <point x="128" y="187" type="curve" smooth="yes"/>
      <point x="183" y="516" type="line"/>
      <point x="162" y="516" type="line"/>
      <point x="107" y="186" type="line" smooth="yes"/>
      <point x="104" y="167"/>
      <point x="102" y="148"/>
      <point x="102" y="129" type="curve" smooth="yes"/>
      <point x="102" y="40"/>
      <point x="151" y="-12"/>
      <point x="240" y="-12" type="curve" smooth="yes"/>
      <point x="328" y="-12"/>
      <point x="382" y="36"/>
      <point x="421" y="114" type="curve"/>
      <point x="424" y="114" type="line"/>
    </contour>
  </outline>
</glyph>
<glyph name="z" format="2">
  <advance width="600"/>
  <unicode hex="007A"/>
  <anchor x="264.0" y="0.0" name="bottom"/>
  <anchor x="341.0" y="516.0" name="top"/>
  <outline>
    <contour>
      <point x="458" y="-12" type="curve" smooth="yes"/>
      <point x="475" y="-12"/>
      <point x="485" y="1"/>
      <point x="485" y="13" type="curve" smooth="yes"/>
      <point x="485" y="24"/>
      <point x="481" y="46"/>
      <point x="473" y="92" type="curve" smooth="yes"/>
      <point x="456" y="196" type="line"/>
      <point x="439" y="193" type="line"/>
      <point x="465" y="10" type="line"/>
      <point x="459" y="5" type="line"/>
      <point x="100" y="77" type="line"/>
      <point x="527" y="444" type="line"/>
      <point x="540" y="516" type="line"/>
      <point x="519" y="516" type="line"/>
      <point x="506" y="452" type="line"/>
      <point x="503" y="449" type="line"/>
      <point x="459" y="467" type="line" smooth="yes"/>
      <point x="375" y="501"/>
      <point x="299" y="528"/>
      <point x="246" y="528" type="curve" smooth="yes"/>
      <point x="152" y="528"/>
      <point x="115" y="477"/>
      <point x="110" y="369" type="curve" smooth="yes"/>
      <point x="109" y="348" type="line"/>
      <point x="128" y="347" type="line"/>
      <point x="131" y="477"/>
      <point x="171" y="509"/>
      <point x="246" y="509" type="curve" smooth="yes"/>
      <point x="302" y="509"/>
      <point x="368" y="485"/>
      <point x="488" y="436" type="curve"/>
      <point x="65" y="72" type="line"/>
      <point x="52" y="0" type="line"/>
      <point x="73" y="0" type="line"/>
      <point x="84" y="58" type="line"/>
      <point x="87" y="61" type="line"/>
      <point x="409" y="-5" type="line" smooth="yes"/>
      <point x="432" y="-10"/>
      <point x="444" y="-12"/>
    </contour>
  </outline>
</glyph>
<glyph name="exclamdown" format="2">
  <advance width="600"/>
  <unicode hex="00A1"/>
  <outline>
    <contour>
      <point x="238" y="-182" type="line"/>
      <point x="285" y="101" type="line"/>
      <point x="320" y="340" type="line"/>
      <point x="308" y="340" type="line"/>
      <point x="263" y="101" type="line"/>
      <point x="216" y="-182" type="line"/>
    </contour>
    <contour>
      <point x="334" y="459" type="curve" smooth="yes"/>
      <point x="355" y="459"/>
      <point x="368" y="469"/>
      <point x="371" y="485" type="curve" smooth="yes"/>
      <point x="372" y="490"/>
      <point x="373" y="495"/>
      <point x="373" y="499" type="curve" smooth="yes"/>
      <point x="373" y="513"/>
      <point x="364" y="521"/>
      <point x="344" y="521" type="curve" smooth="yes"/>
      <point x="323" y="521"/>
      <point x="310" y="511"/>
      <point x="307" y="495" type="curve" smooth="yes"/>
      <point x="306" y="490"/>
      <point x="305" y="485"/>
      <point x="305" y="481" type="curve" smooth="yes"/>
      <point x="305" y="467"/>
      <point x="314" y="459"/>
    </contour>
  </outline>
</glyph>
<glyph name="yen" format="2">
  <advance width="600"/>
  <unicode hex="00A5"/>
  <outline>
    <contour>
      <point x="48" y="0" type="line"/>
      <point x="466" y="0" type="line"/>
      <point x="469" y="19" type="line"/>
      <point x="271" y="19" type="line"/>
      <point x="317" y="294" type="line"/>
      <point x="515" y="294" type="line"/>
      <point x="518" y="313" type="line"/>
      <point x="332" y="313" type="line"/>
      <point x="645" y="698" type="line"/>
      <point x="619" y="698" type="line"/>
      <point x="310" y="317" type="line"/>
      <point x="307" y="317" type="line"/>
      <point x="124" y="698" type="line"/>
      <point x="101" y="698" type="line"/>
      <point x="286" y="313" type="line"/>
      <point x="100" y="313" type="line"/>
      <point x="97" y="294" type="line"/>
      <point x="295" y="294" type="line"/>
      <point x="249" y="19" type="line"/>
      <point x="51" y="19" type="line"/>
    </contour>
  </outline>
</glyph>
<glyph name="brokenbar" format="2">
  <advance width="600"/>
  <unicode hex="00A6"/>
  <outline>
    <contour>
      <point x="334" y="401" type="line"/>
      <point x="394" y="760" type="line"/>
      <point x="374" y="760" type="line"/>
      <point x="314" y="401" type="line"/>
    </contour>
    <contour>
      <point x="244" y="-138" type="line"/>
      <point x="304" y="221" type="line"/>
      <point x="284" y="221" type="line"/>
      <point x="224" y="-138" type="line"/>
    </contour>
  </outline>
</glyph>
<glyph name="dieresis" format="2">
  <advance width="600"/>
  <unicode hex="00A8"/>
  <anchor x="300.0" y="516.0" name="_top"/>
  <outline>
    <contour>
      <point x="234" y="649" type="curve" smooth="yes"/>
      <point x="252" y="649"/>
      <point x="261" y="657"/>
      <point x="264" y="671" type="curve" smooth="yes"/>
      <point x="265" y="677"/>
      <point x="266" y="681"/>
      <point x="266" y="685" type="curve" smooth="yes"/>
      <point x="266" y="694"/>
      <point x="260" y="703"/>
      <point x="240" y="703" type="curve" smooth="yes"/>
      <point x="222" y="703"/>
      <point x="213" y="695"/>
      <point x="210" y="681" type="curve" smooth="yes"/>
      <point x="209" y="675"/>
      <point x="208" y="671"/>
      <point x="208" y="667" type="curve" smooth="yes"/>
      <point x="208" y="658"/>
      <point x="214" y="649"/>
    </contour>
    <contour>
      <point x="414" y="649" type="curve" smooth="yes"/>
      <point x="432" y="649"/>
      <point x="441" y="657"/>
      <point x="444" y="671" type="curve" smooth="yes"/>
      <point x="445" y="677"/>
      <point x="446" y="681"/>
      <point x="446" y="685" type="curve" smooth="yes"/>
      <point x="446" y="694"/>
      <point x="440" y="703"/>
      <point x="420" y="703" type="curve" smooth="yes"/>
      <point x="402" y="703"/>
      <point x="393" y="695"/>
      <point x="390" y="681" type="curve" smooth="yes"/>
      <point x="389" y="675"/>
      <point x="388" y="671"/>
      <point x="388" y="667" type="curve" smooth="yes"/>
      <point x="388" y="658"/>
      <point x="394" y="649"/>
    </contour>
  </outline>
</glyph>
<glyph name="logicalnot" format="2">
  <advance width="600"/>
  <unicode hex="00AC"/>
  <outline>
    <contour>
      <point x="496" y="104" type="line"/>
      <point x="531" y="315" type="line"/>
      <point x="71" y="315" type="line"/>
      <point x="68" y="296" type="line"/>
      <point x="507" y="296" type="line"/>
      <point x="475" y="104" type="line"/>
    </contour>
  </outline>
</glyph>
<glyph name="registered" format="2">
  <advance width="600"/>
  <unicode hex="00AE"/>
  <outline>
    <contour>
      <point x="327" y="346" type="curve" smooth="yes"/>
      <point x="441" y="346"/>
      <point x="527" y="425"/>
      <point x="527" y="551" type="curve" smooth="yes"/>
      <point x="527" y="647"/>
      <point x="457" y="710"/>
      <point x="361" y="710" type="curve" smooth="yes"/>
      <point x="247" y="710"/>
      <point x="161" y="631"/>
      <point x="161" y="505" type="curve" smooth="yes"/>
      <point x="161" y="409"/>
      <point x="231" y="346"/>
    </contour>
    <contour>
      <point x="327" y="361" type="curve" smooth="yes"/>
      <point x="240" y="361"/>
      <point x="177" y="415"/>
      <point x="177" y="505" type="curve" smooth="yes"/>
      <point x="177" y="515"/>
      <point x="178" y="526"/>
      <point x="183" y="555" type="curve" smooth="yes"/>
      <point x="199" y="638"/>
      <point x="270" y="695"/>
      <point x="361" y="695" type="curve" smooth="yes"/>
      <point x="448" y="695"/>
      <point x="511" y="641"/>
      <point x="511" y="551" type="curve" smooth="yes"/>
      <point x="511" y="541"/>
      <point x="510" y="530"/>
      <point x="505" y="501" type="curve" smooth="yes"/>
      <point x="489" y="418"/>
      <point x="418" y="361"/>
    </contour>
    <contour>
      <point x="301" y="514" type="line"/>
      <point x="350" y="514" type="line"/>
      <point x="388" y="436" type="line"/>
      <point x="404" y="436" type="line"/>
      <point x="365" y="515" type="line"/>
      <point x="397" y="516"/>
      <point x="421" y="534"/>
      <point x="421" y="578" type="curve" smooth="yes"/>
      <point x="421" y="607"/>
      <point x="403" y="621"/>
      <point x="373" y="621" type="curve" smooth="yes"/>
      <point x="304" y="621" type="line"/>
      <point x="273" y="436" type="line"/>
      <point x="288" y="436" type="line"/>
    </contour>
    <contour>
      <point x="303" y="527" type="line"/>
      <point x="316" y="608" type="line"/>
      <point x="371" y="608" type="line" smooth="yes"/>
      <point x="396" y="608"/>
      <point x="406" y="599"/>
      <point x="406" y="580" type="curve" smooth="yes"/>
      <point x="406" y="576"/>
      <point x="406" y="574"/>
      <point x="404" y="562" type="curve" smooth="yes"/>
      <point x="400" y="537"/>
      <point x="387" y="527"/>
      <point x="358" y="527" type="curve" smooth="yes"/>
    </contour>
  </outline>
</glyph>
<glyph name="degree" format="2">
  <advance width="600"/>
  <unicode hex="00B0"/>
  <outline>
    <contour>
      <point x="330" y="404" type="curve" smooth="yes"/>
      <point x="427" y="404"/>
      <point x="504" y="476"/>
      <point x="504" y="575" type="curve" smooth="yes"/>
      <point x="504" y="653"/>
      <point x="450" y="710"/>
      <point x="368" y="710" type="curve" smooth="yes"/>
      <point x="271" y="710"/>
      <point x="194" y="638"/>
      <point x="194" y="539" type="curve" smooth="yes"/>
      <point x="194" y="461"/>
      <point x="248" y="404"/>
    </contour>
    <contour>
      <point x="332" y="423" type="curve" smooth="yes"/>
      <point x="256" y="423"/>
      <point x="215" y="473"/>
      <point x="215" y="540" type="curve" smooth="yes"/>
      <point x="215" y="627"/>
      <point x="281" y="691"/>
      <point x="366" y="691" type="curve" smooth="yes"/>
      <point x="442" y="691"/>
      <point x="483" y="641"/>
      <point x="483" y="574" type="curve" smooth="yes"/>
      <point x="483" y="487"/>
      <point x="417" y="423"/>
    </contour>
  </outline>
</glyph>
<glyph name="plusminus" format="2">
  <advance width="600"/>
  <unicode hex="00B1"/>
  <outline>
    <contour>
      <point x="287" y="115" type="line"/>
      <point x="326" y="349" type="line"/>
      <point x="554" y="349" type="line"/>
      <point x="557" y="368" type="line"/>
      <point x="329" y="368" type="line"/>
      <point x="368" y="602" type="line"/>
      <point x="347" y="602" type="line"/>
      <point x="308" y="368" type="line"/>
      <point x="80" y="368" type="line"/>
      <point x="77" y="349" type="line"/>
      <point x="305" y="349" type="line"/>
      <point x="266" y="115" type="line"/>
    </contour>
    <contour>
      <point x="496" y="0" type="line"/>
      <point x="499" y="19" type="line"/>
      <point x="22" y="19" type="line"/>
      <point x="19" y="0" type="line"/>
    </contour>
  </outline>
</glyph>
<glyph name="twosuperior" format="2">
  <advance width="600"/>
  <unicode hex="00B2"/>
  <outline>
    <contour>
      <point x="443" y="346" type="line"/>
      <point x="209" y="346" type="line"/>
      <point x="357" y="452" type="line" smooth="yes"/>
      <point x="437" y="509"/>
      <point x="473" y="551"/>
      <point x="473" y="608" type="curve" smooth="yes"/>
      <point x="473" y="661"/>
      <point x="431" y="704"/>
      <point x="364" y="704" type="curve" smooth="yes"/>
      <point x="291" y="704"/>
      <point x="251" y="669"/>
      <point x="228" y="615" type="curve"/>
      <point x="245" y="609" type="line"/>
      <point x="265" y="656"/>
      <point x="300" y="687"/>
      <point x="362" y="687" type="curve" smooth="yes"/>
      <point x="420" y="687"/>
      <point x="454" y="654"/>
      <point x="454" y="608" type="curve" smooth="yes"/>
      <point x="454" y="604"/>
      <point x="454" y="598"/>
      <point x="452" y="584" type="curve" smooth="yes"/>
      <point x="446" y="547"/>
      <point x="410" y="509"/>
      <point x="346" y="463" type="curve" smooth="yes"/>
      <point x="187" y="349" type="line"/>
      <point x="184" y="329" type="line"/>
      <point x="440" y="329" type="line"/>
    </contour>
  </outline>
</glyph>
<glyph name="threesuperior" format="2">
  <advance width="600"/>
  <unicode hex="00B3"/>
  <outline>
    <contour>
      <point x="287" y="529" type="line"/>
      <point x="284" y="512" type="line"/>
      <point x="337" y="512" type="line" smooth="yes"/>
      <point x="402" y="512"/>
      <point x="427" y="488"/>
      <point x="427" y="444" type="curve" smooth="yes"/>
      <point x="427" y="439"/>
      <point x="426" y="431"/>
      <point x="424" y="419" type="curve" smooth="yes"/>
      <point x="415" y="370"/>
      <point x="381" y="340"/>
      <point x="313" y="340" type="curve" smooth="yes"/>
      <point x="253" y="340"/>
      <point x="226" y="359"/>
      <point x="207" y="390" type="curve"/>
      <point x="192" y="380" type="line"/>
      <point x="210" y="348"/>
      <point x="248" y="323"/>
      <point x="313" y="323" type="curve" smooth="yes"/>
      <point x="397" y="323"/>
      <point x="446" y="369"/>
      <point x="446" y="444" type="curve" smooth="yes"/>
      <point x="446" y="486"/>
      <point x="425" y="513"/>
      <point x="381" y="520" type="curve"/>
      <point x="381" y="522" type="line"/>
      <point x="438" y="530"/>
      <point x="469" y="565"/>
      <point x="469" y="617" type="curve" smooth="yes"/>
      <point x="469" y="670"/>
      <point x="431" y="704"/>
      <point x="363" y="704" type="curve" smooth="yes"/>
      <point x="307" y="704"/>
      <point x="267" y="684"/>
      <point x="241" y="651" type="curve"/>
      <point x="254" y="641" type="line"/>
      <point x="280" y="670"/>
      <point x="309" y="687"/>
      <point x="362" y="687" type="curve" smooth="yes"/>
      <point x="420" y="687"/>
      <point x="449" y="660"/>
      <point x="449" y="617" type="curve" smooth="yes"/>
      <point x="449" y="614"/>
      <point x="449" y="609"/>
      <point x="447" y="598" type="curve" smooth="yes"/>
      <point x="439" y="556"/>
      <point x="407" y="529"/>
      <point x="333" y="529" type="curve" smooth="yes"/>
    </contour>
  </outline>
</glyph>
<glyph name="acute" format="2">
  <advance width="600"/>
  <unicode hex="00B4"/>
  <anchor x="300.0" y="516.0" name="_top"/>
  <outline>
    <contour>
      <point x="438" y="748" type="line"/>
      <point x="420" y="761" type="line"/>
      <point x="282" y="608" type="line"/>
      <point x="296" y="597" type="line"/>
    </contour>
  </outline>
</glyph>
<glyph name="mu" format="2">
  <advance width="600"/>
  <unicode hex="00B5"/>
  <outline>
    <contour>
      <point x="69" y="-200" type="line"/>
      <point x="97" y="-32" type="line"/>
      <point x="113" y="83" type="line"/>
      <point x="115" y="83" type="line"/>
      <point x="131" y="22"/>
      <point x="178" y="-12"/>
      <point x="251" y="-12" type="curve" smooth="yes"/>
      <point x="339" y="-12"/>
      <point x="387" y="36"/>
      <point x="426" y="114" type="curve"/>
      <point x="429" y="114" type="line"/>
      <point x="410" y="0" type="line"/>
      <point x="431" y="0" type="line"/>
      <point x="517" y="516" type="line"/>
      <point x="496" y="516" type="line"/>
      <point x="444" y="204" type="line" smooth="yes"/>
      <point x="434" y="146"/>
      <point x="403" y="98"/>
      <point x="382" y="72" type="curve" smooth="yes"/>
      <point x="344" y="24"/>
      <point x="301" y="7"/>
      <point x="254" y="7" type="curve" smooth="yes"/>
      <point x="176" y="7"/>
      <point x="128" y="48"/>
      <point x="128" y="130" type="curve" smooth="yes"/>
      <point x="128" y="149"/>
      <point x="130" y="170"/>
      <point x="133" y="187" type="curve" smooth="yes"/>
      <point x="188" y="516" type="line"/>
      <point x="167" y="516" type="line"/>
      <point x="48" y="-200" type="line"/>
    </contour>
  </outline>
</glyph>
<glyph name="paragraph" format="2">
  <advance width="600"/>
  <unicode hex="00B6"/>
  <outline>
    <contour>
      <point x="234" y="-149" type="line"/>
      <point x="256" y="-149" type="line"/>
      <point x="393" y="678" type="line"/>
      <point x="520" y="678" type="line"/>
      <point x="382" y="-149" type="line"/>
      <point x="404" y="-149" type="line"/>
      <point x="545" y="698" type="line"/>
      <point x="365" y="698" type="line" smooth="yes"/>
      <point x="210" y="698"/>
      <point x="99" y="585"/>
      <point x="99" y="439" type="curve" smooth="yes"/>
      <point x="99" y="326"/>
      <point x="173" y="246"/>
      <point x="300" y="246" type="curve"/>
    </contour>
  </outline>
</glyph>
<glyph name="periodcentered" format="2">
  <advance width="600"/>
  <unicode hex="00B7"/>
  <outline>
    <contour>
      <point x="303" y="273" type="curve" smooth="yes"/>
      <point x="324" y="273"/>
      <point x="337" y="283"/>
      <point x="340" y="299" type="curve" smooth="yes"/>
      <point x="341" y="304"/>
      <point x="342" y="309"/>
      <point x="342" y="313" type="curve" smooth="yes"/>
      <point x="342" y="327"/>
      <point x="333" y="335"/>
      <point x="313" y="335" type="curve" smooth="yes"/>
      <point x="292" y="335"/>
      <point x="279" y="325"/>
      <point x="276" y="309" type="curve" smooth="yes"/>
      <point x="275" y="304"/>
      <point x="274" y="299"/>
      <point x="274" y="295" type="curve" smooth="yes"/>
      <point x="274" y="281"/>
      <point x="283" y="273"/>
    </contour>
  </outline>
</glyph>
<glyph name="cedilla" format="2">
  <advance width="600"/>
  <unicode hex="00B8"/>
  <anchor x="300.0" y="0.0" name="_bottom"/>
  <outline>
    <contour>
      <point x="276" y="-202" type="curve" smooth="yes"/>
      <point x="333" y="-202"/>
      <point x="368" y="-167"/>
      <point x="368" y="-126" type="curve" smooth="yes"/>
      <point x="368" y="-93"/>
      <point x="346" y="-72"/>
      <point x="309" y="-72" type="curve" smooth="yes"/>
      <point x="301" y="-72"/>
      <point x="289" y="-73"/>
      <point x="280" y="-75" type="curve"/>
      <point x="278" y="-73" type="line"/>
      <point x="310" y="3" type="line"/>
      <point x="292" y="3" type="line"/>
      <point x="256" y="-84" type="line"/>
      <point x="294" y="-86" type="line" smooth="yes"/>
      <point x="333" y="-88"/>
      <point x="347" y="-104"/>
      <point x="347" y="-127" type="curve" smooth="yes"/>
      <point x="347" y="-160"/>
      <point x="319" y="-184"/>
      <point x="276" y="-184" type="curve" smooth="yes"/>
      <point x="248" y="-184"/>
      <point x="227" y="-174"/>
      <point x="214" y="-157" type="curve"/>
      <point x="200" y="-170" type="line"/>
      <point x="212" y="-187"/>
      <point x="239" y="-202"/>
    </contour>
  </outline>
</glyph>
<glyph name="onesuperior" format="2">
  <advance width="600"/>
  <unicode hex="00B9"/>
  <outline>
    <contour>
      <point x="470" y="329" type="line"/>
      <point x="473" y="346" type="line"/>
      <point x="355" y="346" type="line"/>
      <point x="413" y="698" type="line"/>
      <point x="382" y="698" type="line"/>
      <point x="235" y="590" type="line"/>
      <point x="245" y="577" type="line"/>
      <point x="390" y="684" type="line"/>
      <point x="392" y="684" type="line"/>
      <point x="336" y="346" type="line"/>
      <point x="207" y="346" type="line"/>
      <point x="204" y="329" type="line"/>
    </contour>
  </outline>
</glyph>
<glyph name="ordmasculine" format="2">
  <advance width="600"/>
  <unicode hex="00BA"/>
  <outline>
    <contour>
      <point x="320" y="367" type="curve" smooth="yes"/>
      <point x="425" y="367"/>
      <point x="492" y="456"/>
      <point x="492" y="583" type="curve" smooth="yes"/>
      <point x="492" y="660"/>
      <point x="446" y="710"/>
      <point x="374" y="710" type="curve" smooth="yes"/>
      <point x="269" y="710"/>
      <point x="202" y="621"/>
      <point x="202" y="494" type="curve" smooth="yes"/>
      <point x="202" y="417"/>
      <point x="248" y="367"/>
    </contour>
    <contour>
      <point x="321" y="384" type="curve" smooth="yes"/>
      <point x="254" y="384"/>
      <point x="221" y="432"/>
      <point x="221" y="494" type="curve" smooth="yes"/>
      <point x="221" y="504"/>
      <point x="222" y="516"/>
      <point x="224" y="527" type="curve" smooth="yes"/>
      <point x="230" y="561" type="line" smooth="yes"/>
      <point x="243" y="633"/>
      <point x="294" y="693"/>
      <point x="373" y="693" type="curve" smooth="yes"/>
      <point x="440" y="693"/>
      <point x="473" y="645"/>
      <point x="473" y="583" type="curve" smooth="yes"/>
      <point x="473" y="573"/>
      <point x="472" y="561"/>
      <point x="470" y="550" type="curve" smooth="yes"/>
      <point x="464" y="516" type="line" smooth="yes"/>
      <point x="451" y="444"/>
      <point x="400" y="384"/>
    </contour>
  </outline>
</glyph>
<glyph name="AE" format="2">
  <advance width="600"/>
  <unicode hex="00C6"/>
  <anchor x="404.0" y="698.0" name="top"/>
  <outline>
    <contour>
      <point x="278" y="0" type="line"/>
      <point x="501" y="0" type="line"/>
      <point x="504" y="20" type="line"/>
      <point x="303" y="20" type="line"/>
      <point x="357" y="344" type="line"/>
      <point x="544" y="344" type="line"/>
      <point x="548" y="364" type="line"/>
      <point x="361" y="364" type="line"/>
      <point x="413" y="678" type="line"/>
      <point x="614" y="678" type="line"/>
      <point x="617" y="698" type="line"/>
      <point x="329" y="698" type="line"/>
      <point x="-10" y="0" type="line"/>
      <point x="14" y="0" type="line"/>
      <point x="127" y="234" type="line"/>
      <point x="317" y="234" type="line"/>
    </contour>
    <contour>
      <point x="391" y="678" type="line"/>
      <point x="320" y="253" type="line"/>
      <point x="136" y="253" type="line"/>
      <point x="342" y="678" type="line"/>
    </contour>
  </outline>
</glyph>
<glyph name="multiply" format="2">
  <advance width="600"/>
  <unicode hex="00D7"/>
  <outline>
    <contour>
      <point x="458" y="110" type="line"/>
      <point x="472" y="123" type="line"/>
      <point x="321" y="305" type="line"/>
      <point x="532" y="487" type="line"/>
      <point x="520" y="500" type="line"/>
      <point x="308" y="318" type="line"/>
      <point x="157" y="500" type="line"/>
      <point x="143" y="487" type="line"/>
      <point x="294" y="305" type="line"/>
      <point x="83" y="123" type="line"/>
      <point x="95" y="110" type="line"/>
      <point x="307" y="292" type="line"/>
    </contour>
  </outline>
</glyph>
<glyph name="Thorn" format="2">
  <advance width="600"/>
  <unicode hex="00DE"/>
  <outline>
    <contour>
      <point x="87" y="0" type="line"/>
      <point x="115" y="167" type="line"/>
      <point x="345" y="167" type="line" smooth="yes"/>
      <point x="476" y="167"/>
      <point x="546" y="256"/>
      <point x="546" y="392" type="curve" smooth="yes"/>
      <point x="546" y="478"/>
      <point x="487" y="543"/>
      <point x="389" y="543" type="curve" smooth="yes"/>
      <point x="177" y="543" type="line"/>
      <point x="203" y="698" type="line"/>
      <point x="181" y="698" type="line"/>
      <point x="65" y="0" type="line"/>
    </contour>
    <contour>
      <point x="174" y="523" type="line"/>
      <point x="389" y="523" type="line" smooth="yes"/>
      <point x="482" y="523"/>
      <point x="524" y="461"/>
      <point x="524" y="392" type="curve" smooth="yes"/>
      <point x="524" y="383"/>
      <point x="523" y="375"/>
      <point x="522" y="366" type="curve" smooth="yes"/>
      <point x="516" y="329" type="line" smooth="yes"/>
      <point x="503" y="247"/>
      <point x="448" y="187"/>
      <point x="345" y="187" type="curve" smooth="yes"/>
      <point x="118" y="187" type="line"/>
    </contour>
  </outline>
</glyph>
<glyph name="thorn" format="2">
  <advance width="600"/>
  <unicode hex="00FE"/>
  <outline>
    <contour>
      <point x="47" y="-200" type="line"/>
      <point x="68" y="-200" type="line"/>
      <point x="116" y="93" type="line"/>
      <point x="119" y="93" type="line"/>
      <point x="139" y="32"/>
      <point x="195" y="-12"/>
      <point x="286" y="-12" type="curve" smooth="yes"/>
      <point x="432" y="-12"/>
      <point x="528" y="132"/>
      <point x="528" y="330" type="curve" smooth="yes"/>
      <point x="528" y="444"/>
      <point x="469" y="528"/>
      <point x="355" y="528" type="curve" smooth="yes"/>
      <point x="264" y="528"/>
      <point x="210" y="476"/>
      <point x="171" y="401" type="curve"/>
      <point x="168" y="401" type="line"/>
      <point x="224" y="740" type="line"/>
      <point x="203" y="740" type="line"/>
    </contour>
    <contour>
      <point x="286" y="7" type="curve" smooth="yes"/>
      <point x="158" y="7"/>
      <point x="117" y="92"/>
      <point x="128" y="161" type="curve" smooth="yes"/>
      <point x="153" y="312" type="line" smooth="yes"/>
      <point x="164" y="378"/>
      <point x="202" y="433"/>
      <point x="241" y="468" type="curve" smooth="yes"/>
      <point x="274" y="497"/>
      <point x="311" y="509"/>
      <point x="355" y="509" type="curve" smooth="yes"/>
      <point x="464" y="509"/>
      <point x="508" y="427"/>
      <point x="508" y="330" type="curve" smooth="yes"/>
      <point x="508" y="313"/>
      <point x="507" y="296"/>
      <point x="504" y="279" type="curve" smooth="yes"/>
      <point x="496" y="230" type="line" smooth="yes"/>
      <point x="475" y="104"/>
      <point x="400" y="7"/>
    </contour>
  </outline>
</glyph>
<glyph name="Aogonek" format="2">
  <advance width="600"/>
  <unicode hex="0104"/>
  <anchor x="257.0" y="0.0" name="bottom"/>
  <anchor x="374.0" y="698.0" name="top"/>
  <outline>
    <contour>
      <point x="9" y="0" type="line"/>
      <point x="33" y="0" type="line"/>
      <point x="150" y="234" type="line"/>
      <point x="444" y="234" type="line"/>
      <point x="483" y="1" type="line"/>
      <point x="363" y="-58"/>
      <point x="340" y="-100"/>
      <point x="340" y="-137" type="curve" smooth="yes"/>
      <point x="340" y="-182"/>
      <point x="373" y="-202"/>
      <point x="414" y="-202" type="curve" smooth="yes"/>
      <point x="448" y="-202"/>
      <point x="476" y="-188"/>
      <point x="491" y="-170" type="curve"/>
      <point x="478" y="-159" type="line"/>
      <point x="466" y="-171"/>
      <point x="446" y="-184"/>
      <point x="414" y="-184" type="curve" smooth="yes"/>
      <point x="385" y="-184"/>
      <point x="361" y="-169"/>
      <point x="361" y="-137" type="curve" smooth="yes"/>
      <point x="361" y="-86"/>
      <point x="404" y="-58"/>
      <point x="505" y="0" type="curve"/>
      <point x="388" y="698" type="line"/>
      <point x="358" y="698" type="line"/>
    </contour>
    <contour>
      <point x="441" y="253" type="line"/>
      <point x="159" y="253" type="line"/>
      <point x="368" y="673" type="line"/>
      <point x="371" y="673" type="line"/>
    </contour>
  </outline>
</glyph>
<glyph name="aogonek" format="2">
  <advance width="600"/>
  <unicode hex="0105"/>
  <anchor x="235.0" y="0.0" name="bottom"/>
  <anchor x="321.0" y="516.0" name="top"/>
  <outline>
    <contour>
      <point x="426" y="-202" type="curve" smooth="yes"/>
      <point x="460" y="-202"/>
      <point x="488" y="-188"/>
      <point x="503" y="-170" type="curve"/>
      <point x="490" y="-159" type="line"/>
      <point x="478" y="-171"/>
      <point x="458" y="-184"/>
      <point x="426" y="-184" type="curve" smooth="yes"/>
      <point x="397" y="-184"/>
      <point x="373" y="-169"/>
      <point x="373" y="-137" type="curve" smooth="yes"/>
      <point x="373" y="-86"/>
      <point x="416" y="-58"/>
      <point x="517" y="0" type="curve"/>
      <point x="521" y="19" type="line"/>
      <point x="436" y="19" type="line"/>
      <point x="519" y="516" type="line"/>
      <point x="498" y="516" type="line"/>
      <point x="483" y="423" type="line"/>
      <point x="480" y="423" type="line"/>
      <point x="460" y="484"/>
      <point x="404" y="528"/>
      <point x="313" y="528" type="curve" smooth="yes"/>
      <point x="167" y="528"/>
      <point x="71" y="384"/>
      <point x="71" y="186" type="curve" smooth="yes"/>
      <point x="71" y="72"/>
      <point x="130" y="-12"/>
      <point x="244" y="-12" type="curve" smooth="yes"/>
      <point x="335" y="-12"/>
      <point x="389" y="40"/>
      <point x="428" y="115" type="curve"/>
      <point x="431" y="115" type="line"/>
      <point x="417" y="30" type="line" smooth="yes"/>
      <point x="414" y="10"/>
      <point x="420" y="0"/>
      <point x="440" y="0" type="curve" smooth="yes"/>
      <point x="492" y="0" type="line"/>
      <point x="374" y="-60"/>
      <point x="352" y="-100"/>
      <point x="352" y="-137" type="curve" smooth="yes"/>
      <point x="352" y="-182"/>
      <point x="385" y="-202"/>
    </contour>
    <contour>
      <point x="244" y="7" type="curve" smooth="yes"/>
      <point x="135" y="7"/>
      <point x="91" y="89"/>
      <point x="91" y="186" type="curve" smooth="yes"/>
      <point x="91" y="203"/>
      <point x="92" y="220"/>
      <point x="95" y="237" type="curve" smooth="yes"/>
      <point x="103" y="286" type="line" smooth="yes"/>
      <point x="124" y="412"/>
      <point x="199" y="509"/>
      <point x="313" y="509" type="curve" smooth="yes"/>
      <point x="441" y="509"/>
      <point x="482" y="424"/>
      <point x="471" y="355" type="curve" smooth="yes"/>
      <point x="446" y="204" type="line" smooth="yes"/>
      <point x="435" y="138"/>
      <point x="397" y="83"/>
      <point x="358" y="48" type="curve" smooth="yes"/>
      <point x="325" y="19"/>
      <point x="288" y="7"/>
    </contour>
  </outline>
</glyph>
<glyph name="Eogonek" format="2">
  <advance width="600"/>
  <unicode hex="0118"/>
  <anchor x="268.0" y="0.0" name="bottom"/>
  <anchor x="385.0" y="698.0" name="top"/>
  <outline>
    <contour>
      <point x="65" y="0" type="line"/>
      <point x="442" y="0" type="line"/>
      <point x="443" y="-2" type="line"/>
      <point x="329" y="-58"/>
      <point x="306" y="-100"/>
      <point x="306" y="-137" type="curve" smooth="yes"/>
      <point x="306" y="-182"/>
      <point x="339" y="-202"/>
      <point x="380" y="-202" type="curve" smooth="yes"/>
      <point x="414" y="-202"/>
      <point x="442" y="-188"/>
      <point x="457" y="-170" type="curve"/>
      <point x="444" y="-159" type="line"/>
      <point x="432" y="-171"/>
      <point x="412" y="-184"/>
      <point x="380" y="-184" type="curve" smooth="yes"/>
      <point x="351" y="-184"/>
      <point x="327" y="-169"/>
      <point x="327" y="-137" type="curve" smooth="yes"/>
      <point x="327" y="-86"/>
      <point x="370" y="-58"/>
      <point x="471" y="0" type="curve"/>
      <point x="474" y="20" type="line"/>
      <point x="90" y="20" type="line"/>
      <point x="144" y="344" type="line"/>
      <point x="514" y="344" type="line"/>
      <point x="518" y="364" type="line"/>
      <point x="148" y="364" type="line"/>
      <point x="200" y="678" type="line"/>
      <point x="584" y="678" type="line"/>
      <point x="587" y="698" type="line"/>
      <point x="181" y="698" type="line"/>
    </contour>
  </outline>
</glyph>
<glyph name="Hbar" format="2">
  <advance width="600"/>
  <unicode hex="0126"/>
  <outline>
    <contour>
      <point x="437" y="0" type="line"/>
      <point x="459" y="0" type="line"/>
      <point x="548" y="537" type="line"/>
      <point x="632" y="537" type="line"/>
      <point x="636" y="556" type="line"/>
      <point x="551" y="556" type="line"/>
      <point x="575" y="698" type="line"/>
      <point x="553" y="698" type="line"/>
      <point x="530" y="556" type="line"/>
      <point x="169" y="556" type="line"/>
      <point x="193" y="698" type="line"/>
      <point x="171" y="698" type="line"/>
      <point x="147" y="556" type="line"/>
      <point x="64" y="556" type="line"/>
      <point x="60" y="537" type="line"/>
      <point x="144" y="537" type="line"/>
      <point x="55" y="0" type="line"/>
      <point x="77" y="0" type="line"/>
      <point x="134" y="344" type="line"/>
      <point x="494" y="344" type="line"/>
    </contour>
    <contour>
      <point x="138" y="364" type="line"/>
      <point x="166" y="537" type="line"/>
      <point x="527" y="537" type="line"/>
      <point x="498" y="364" type="line"/>
    </contour>
  </outline>
</glyph>
<glyph name="hbar" format="2">
  <advance width="600"/>
  <unicode hex="0127"/>
  <outline>
    <contour>
      <point x="88" y="0" type="line"/>
      <point x="109" y="0" type="line"/>
      <point x="161" y="312" type="line" smooth="yes"/>
      <point x="171" y="370"/>
      <point x="202" y="418"/>
      <point x="223" y="444" type="curve" smooth="yes"/>
      <point x="261" y="492"/>
      <point x="310" y="509"/>
      <point x="357" y="509" type="curve" smooth="yes"/>
      <point x="435" y="509"/>
      <point x="477" y="468"/>
      <point x="477" y="386" type="curve" smooth="yes"/>
      <point x="477" y="367"/>
      <point x="475" y="346"/>
      <point x="472" y="329" type="curve" smooth="yes"/>
      <point x="417" y="0" type="line"/>
      <point x="438" y="0" type="line"/>
      <point x="493" y="330" type="line" smooth="yes"/>
      <point x="496" y="349"/>
      <point x="498" y="368"/>
      <point x="498" y="387" type="curve" smooth="yes"/>
      <point x="498" y="476"/>
      <point x="449" y="528"/>
      <point x="360" y="528" type="curve" smooth="yes"/>
      <point x="272" y="528"/>
      <point x="218" y="480"/>
      <point x="179" y="402" type="curve"/>
      <point x="176" y="402" type="line"/>
      <point x="215" y="636" type="line"/>
      <point x="380" y="636" type="line"/>
      <point x="383" y="654" type="line"/>
      <point x="218" y="654" type="line"/>
      <point x="232" y="740" type="line"/>
      <point x="211" y="740" type="line"/>
      <point x="197" y="654" type="line"/>
      <point x="125" y="654" type="line"/>
      <point x="122" y="636" type="line"/>
      <point x="194" y="636" type="line"/>
    </contour>
  </outline>
</glyph>
<glyph name="Iogonek" format="2">
  <advance width="600"/>
  <unicode hex="012E"/>
  <anchor x="257.0" y="0.0" name="bottom"/>
  <anchor x="374.0" y="698.0" name="top"/>
  <outline>
    <contour>
      <point x="49" y="0" type="line"/>
      <point x="436" y="0" type="line"/>
      <point x="437" y="-2" type="line"/>
      <point x="323" y="-58"/>
      <point x="300" y="-100"/>
      <point x="300" y="-137" type="curve" smooth="yes"/>
      <point x="300" y="-182"/>
      <point x="333" y="-202"/>
      <point x="374" y="-202" type="curve" smooth="yes"/>
      <point x="408" y="-202"/>
      <point x="436" y="-188"/>
      <point x="451" y="-170" type="curve"/>
      <point x="438" y="-159" type="line"/>
      <point x="426" y="-171"/>
      <point x="406" y="-184"/>
      <point x="374" y="-184" type="curve" smooth="yes"/>
      <point x="345" y="-184"/>
      <point x="321" y="-169"/>
      <point x="321" y="-137" type="curve" smooth="yes"/>
      <point x="321" y="-86"/>
      <point x="364" y="-58"/>
      <point x="465" y="0" type="curve"/>
      <point x="468" y="19" type="line"/>
      <point x="271" y="19" type="line"/>
      <point x="381" y="679" type="line"/>
      <point x="578" y="679" type="line"/>
      <point x="581" y="698" type="line"/>
      <point x="165" y="698" type="line"/>
      <point x="162" y="679" type="line"/>
      <point x="359" y="679" type="line"/>
      <point x="249" y="19" type="line"/>
      <point x="52" y="19" type="line"/>
    </contour>
  </outline>
</glyph>
<glyph name="dotlessi" format="2">
  <advance width="600"/>
  <unicode hex="0131"/>
  <anchor x="222.0" y="0.0" name="bottom"/>
  <anchor x="250.0" y="0.0" name="bottomright"/>
  <anchor x="313.0" y="516.0" name="top"/>
  <outline>
    <contour>
      <point x="223" y="-12" type="curve" smooth="yes"/>
      <point x="235" y="-12"/>
      <point x="247" y="-2"/>
      <point x="264" y="9" type="curve" smooth="yes"/>
      <point x="507" y="174" type="line"/>
      <point x="496" y="189" type="line"/>
      <point x="231" y="10" type="line"/>
      <point x="226" y="13" type="line"/>
      <point x="324" y="516" type="line"/>
      <point x="94" y="516" type="line"/>
      <point x="91" y="497" type="line"/>
      <point x="299" y="497" type="line"/>
      <point x="211" y="42" type="line" smooth="yes"/>
      <point x="206" y="17"/>
      <point x="205" y="11"/>
      <point x="205" y="7" type="curve" smooth="yes"/>
      <point x="205" y="-4"/>
      <point x="211" y="-12"/>
    </contour>
  </outline>
</glyph>
<glyph name="IJ" format="2">
  <advance width="600"/>
  <unicode hex="0132"/>
  <outline>
    <contour>
      <point x="535" y="698" type="line"/>
      <point x="450" y="188" type="line" smooth="yes"/>
      <point x="430" y="69"/>
      <point x="365" y="8"/>
      <point x="260" y="8" type="curve" smooth="yes"/>
      <point x="165" y="8"/>
      <point x="124" y="57"/>
      <point x="115" y="132" type="curve"/>
      <point x="94" y="128" type="line"/>
      <point x="103" y="42"/>
      <point x="157" y="-12"/>
      <point x="259" y="-12" type="curve" smooth="yes"/>
      <point x="375" y="-12"/>
      <point x="450" y="56"/>
      <point x="472" y="189" type="curve" smooth="yes"/>
      <point x="557" y="698" type="line"/>
    </contour>
    <contour>
      <point x="118" y="271" type="line"/>
      <point x="140" y="271" type="line"/>
      <point x="211" y="698" type="line"/>
      <point x="189" y="698" type="line"/>
    </contour>
  </outline>
</glyph>
<glyph name="kgreenlandic" format="2">
  <advance width="600"/>
  <unicode hex="0138"/>
  <anchor x="284.0" y="0.0" name="bottom"/>
  <outline>
    <contour>
      <point x="493" y="0" type="line"/>
      <point x="518" y="0" type="line"/>
      <point x="306" y="305" type="line"/>
      <point x="576" y="516" type="line"/>
      <point x="545" y="516" type="line"/>
      <point x="291" y="317" type="line"/>
      <point x="155" y="210" type="line"/>
      <point x="152" y="210" type="line"/>
      <point x="203" y="516" type="line"/>
      <point x="182" y="516" type="line"/>
      <point x="96" y="0" type="line"/>
      <point x="117" y="0" type="line"/>
      <point x="147" y="181" type="line"/>
      <point x="290" y="292" type="line"/>
    </contour>
  </outline>
</glyph>
<glyph name="napostrophe" format="2">
  <advance width="600"/>
  <unicode hex="0149"/>
  <outline>
    <contour>
      <point x="88" y="0" type="line"/>
      <point x="109" y="0" type="line"/>
      <point x="161" y="312" type="line" smooth="yes"/>
      <point x="171" y="370"/>
      <point x="202" y="418"/>
      <point x="223" y="444" type="curve" smooth="yes"/>
      <point x="261" y="492"/>
      <point x="310" y="509"/>
      <point x="357" y="509" type="curve" smooth="yes"/>
      <point x="435" y="509"/>
      <point x="477" y="468"/>
      <point x="477" y="386" type="curve" smooth="yes"/>
      <point x="477" y="367"/>
      <point x="475" y="346"/>
      <point x="472" y="329" type="curve" smooth="yes"/>
      <point x="417" y="0" type="line"/>
      <point x="438" y="0" type="line"/>
      <point x="493" y="330" type="line" smooth="yes"/>
      <point x="496" y="349"/>
      <point x="498" y="368"/>
      <point x="498" y="387" type="curve" smooth="yes"/>
      <point x="498" y="476"/>
      <point x="449" y="528"/>
      <point x="360" y="528" type="curve" smooth="yes"/>
      <point x="272" y="528"/>
      <point x="218" y="480"/>
      <point x="179" y="402" type="curve"/>
      <point x="176" y="402" type="line"/>
      <point x="195" y="516" type="line"/>
      <point x="174" y="516" type="line"/>
    </contour>
    <contour>
      <point x="42" y="490" type="line"/>
      <point x="60" y="490" type="line"/>
      <point x="179" y="740" type="line"/>
      <point x="137" y="740" type="line"/>
    </contour>
  </outline>
</glyph>
<glyph name="Eng" format="2">
  <advance width="600"/>
  <unicode hex="014A"/>
  <anchor x="374.0" y="698.0" name="top"/>
  <outline>
    <contour>
      <point x="76" y="0" type="line"/>
      <point x="188" y="672" type="line"/>
      <point x="191" y="672" type="line"/>
      <point x="426" y="0" type="line"/>
      <point x="438" y="0" type="line"/>
      <point x="406" y="-190" type="line"/>
      <point x="400" y="-192" type="line"/>
      <point x="232" y="-47" type="line"/>
      <point x="218" y="-61" type="line"/>
      <point x="372" y="-195" type="line" smooth="yes"/>
      <point x="384" y="-206"/>
      <point x="393" y="-212"/>
      <point x="403" y="-212" type="curve" smooth="yes"/>
      <point x="419" y="-212"/>
      <point x="425" y="-201"/>
      <point x="429" y="-178" type="curve" smooth="yes"/>
      <point x="575" y="698" type="line"/>
      <point x="554" y="698" type="line"/>
      <point x="442" y="26" type="line"/>
      <point x="439" y="26" type="line"/>
      <point x="204" y="698" type="line"/>
      <point x="171" y="698" type="line"/>
      <point x="55" y="0" type="line"/>
    </contour>
  </outline>
</glyph>
<glyph name="eng" format="2">
  <advance width="600"/>
  <unicode hex="014B"/>
  <anchor x="349.0" y="516.0" name="top"/>
  <outline>
    <contour>
      <point x="382" y="-212" type="curve" smooth="yes"/>
      <point x="398" y="-212"/>
      <point x="404" y="-201"/>
      <point x="408" y="-178" type="curve" smooth="yes"/>
      <point x="493" y="330" type="line" smooth="yes"/>
      <point x="496" y="349"/>
      <point x="498" y="368"/>
      <point x="498" y="387" type="curve" smooth="yes"/>
      <point x="498" y="476"/>
      <point x="449" y="528"/>
      <point x="360" y="528" type="curve" smooth="yes"/>
      <point x="272" y="528"/>
      <point x="218" y="480"/>
      <point x="179" y="402" type="curve"/>
      <point x="176" y="402" type="line"/>
      <point x="195" y="516" type="line"/>
      <point x="174" y="516" type="line"/>
      <point x="88" y="0" type="line"/>
      <point x="109" y="0" type="line"/>
      <point x="161" y="312" type="line" smooth="yes"/>
      <point x="171" y="370"/>
      <point x="202" y="418"/>
      <point x="223" y="444" type="curve" smooth="yes"/>
      <point x="261" y="492"/>
      <point x="310" y="509"/>
      <point x="357" y="509" type="curve" smooth="yes"/>
      <point x="435" y="509"/>
      <point x="477" y="468"/>
      <point x="477" y="386" type="curve" smooth="yes"/>
      <point x="477" y="367"/>
      <point x="475" y="346"/>
      <point x="472" y="329" type="curve" smooth="yes"/>
      <point x="385" y="-190" type="line"/>
      <point x="379" y="-192" type="line"/>
      <point x="214" y="-46" type="line"/>
      <point x="201" y="-60" type="line"/>
      <point x="351" y="-195" type="line" smooth="yes"/>
      <point x="364" y="-207"/>
      <point x="372" y="-212"/>
    </contour>
  </outline>
</glyph>
<glyph name="tcedilla" format="2">
  <advance width="600"/>
  <unicode hex="0163"/>
  <anchor x="473.0" y="760.0" name="topright"/>
  <outline>
    <contour>
      <point x="189" y="-202" type="curve" smooth="yes"/>
      <point x="246" y="-202"/>
      <point x="281" y="-167"/>
      <point x="281" y="-126" type="curve" smooth="yes"/>
      <point x="281" y="-93"/>
      <point x="259" y="-72"/>
      <point x="222" y="-72" type="curve" smooth="yes"/>
      <point x="214" y="-72"/>
      <point x="202" y="-73"/>
      <point x="193" y="-75" type="curve"/>
      <point x="191" y="-73" type="line"/>
      <point x="216" y="-12" type="line"/>
      <point x="228" y="-10"/>
      <point x="239" y="-1"/>
      <point x="256" y="9" type="curve" smooth="yes"/>
      <point x="512" y="167" type="line"/>
      <point x="502" y="183" type="line"/>
      <point x="221" y="10" type="line"/>
      <point x="216" y="13" type="line"/>
      <point x="298" y="497" type="line"/>
      <point x="562" y="497" type="line"/>
      <point x="565" y="516" type="line"/>
      <point x="301" y="516" type="line"/>
      <point x="331" y="698" type="line"/>
      <point x="310" y="698" type="line"/>
      <point x="285" y="545" type="line" smooth="yes"/>
      <point x="282" y="525"/>
      <point x="271" y="516"/>
      <point x="251" y="516" type="curve" smooth="yes"/>
      <point x="79" y="516" type="line"/>
      <point x="76" y="497" type="line"/>
      <point x="277" y="497" type="line"/>
      <point x="200" y="42" type="line" smooth="yes"/>
      <point x="196" y="18"/>
      <point x="195" y="11"/>
      <point x="195" y="6" type="curve" smooth="yes"/>
      <point x="195" y="0"/>
      <point x="196" y="-4"/>
      <point x="200" y="-8" type="curve"/>
      <point x="169" y="-84" type="line"/>
      <point x="207" y="-86" type="line" smooth="yes"/>
      <point x="246" y="-88"/>
      <point x="260" y="-104"/>
      <point x="260" y="-127" type="curve" smooth="yes"/>
      <point x="260" y="-160"/>
      <point x="232" y="-184"/>
      <point x="189" y="-184" type="curve" smooth="yes"/>
      <point x="161" y="-184"/>
      <point x="140" y="-174"/>
      <point x="127" y="-157" type="curve"/>
      <point x="113" y="-170" type="line"/>
      <point x="125" y="-187"/>
      <point x="152" y="-202"/>
    </contour>
  </outline>
</glyph>
<glyph name="Tbar" format="2">
  <advance width="600"/>
  <unicode hex="0166"/>
  <anchor x="257.0" y="0.0" name="bottom"/>
  <anchor x="373.0" y="698.0" name="top"/>
  <outline>
    <contour>
      <point x="520" y="365" type="line"/>
      <point x="523" y="384" type="line"/>
      <point x="332" y="384" type="line"/>
      <point x="381" y="678" type="line"/>
      <point x="629" y="678" type="line"/>
      <point x="632" y="698" type="line"/>
      <point x="114" y="698" type="line"/>
      <point x="111" y="678" type="line"/>
      <point x="359" y="678" type="line"/>
      <point x="310" y="384" type="line"/>
      <point x="119" y="384" type="line"/>
      <point x="116" y="365" type="line"/>
      <point x="307" y="365" type="line"/>
      <point x="246" y="0" type="line"/>
      <point x="268" y="0" type="line"/>
      <point x="329" y="365" type="line"/>
    </contour>
  </outline>
</glyph>
<glyph name="florin" format="2">
  <advance width="600"/>
  <unicode hex="0192"/>
  <outline>
    <contour>
      <point x="156" y="-212" type="curve" smooth="yes"/>
      <point x="172" y="-212"/>
      <point x="180" y="-201"/>
      <point x="186" y="-178" type="curve" smooth="yes"/>
      <point x="331" y="395" type="line"/>
      <point x="557" y="395" type="line"/>
      <point x="562" y="414" type="line"/>
      <point x="336" y="414" type="line"/>
      <point x="403" y="679" type="line"/>
      <point x="629" y="679" type="line"/>
      <point x="634" y="698" type="line"/>
      <point x="414" y="698" type="line" smooth="yes"/>
      <point x="392" y="698"/>
      <point x="383" y="691"/>
      <point x="378" y="669" type="curve" smooth="yes"/>
      <point x="314" y="414" type="line"/>
      <point x="123" y="414" type="line"/>
      <point x="118" y="395" type="line"/>
      <point x="309" y="395" type="line"/>
      <point x="161" y="-191" type="line"/>
      <point x="155" y="-193" type="line"/>
      <point x="-32" y="-12" type="line"/>
      <point x="-46" y="-26" type="line"/>
      <point x="127" y="-195" type="line" smooth="yes"/>
      <point x="139" y="-206"/>
      <point x="146" y="-212"/>
    </contour>
  </outline>
</glyph>
<glyph name="ohorn" format="2">
  <advance width="600"/>
  <unicode hex="01A1"/>
  <anchor x="266.0" y="0.0" name="bottom"/>
  <anchor x="333.0" y="516.0" name="top"/>
  <outline>
    <contour>
      <point x="540" y="627" type="line"/>
      <point x="522" y="516" type="line"/>
      <point x="406" y="516" type="line"/>
      <point x="385" y="524"/>
      <point x="361" y="528"/>
      <point x="334" y="528" type="curve" smooth="yes"/>
      <point x="180" y="528"/>
      <point x="82" y="398"/>
      <point x="82" y="181" type="curve" smooth="yes"/>
      <point x="82" y="71"/>
      <point x="147" y="-12"/>
      <point x="266" y="-12" type="curve" smooth="yes"/>
      <point x="420" y="-12"/>
      <point x="518" y="118"/>
      <point x="518" y="335" type="curve" smooth="yes"/>
      <point x="518" y="405"/>
      <point x="491" y="464"/>
      <point x="441" y="498" type="curve"/>
      <point x="510" y="498" type="line" smooth="yes"/>
      <point x="531" y="498"/>
      <point x="542" y="507"/>
      <point x="545" y="527" type="curve" smooth="yes"/>
      <point x="561" y="627" type="line"/>
    </contour>
    <contour>
      <point x="268" y="7" type="curve" smooth="yes"/>
      <point x="151" y="7"/>
      <point x="102" y="86"/>
      <point x="102" y="183" type="curve" smooth="yes"/>
      <point x="102" y="208"/>
      <point x="103" y="218"/>
      <point x="106" y="237" type="curve" smooth="yes"/>
      <point x="114" y="286" type="line" smooth="yes"/>
      <point x="137" y="425"/>
      <point x="213" y="509"/>
      <point x="332" y="509" type="curve" smooth="yes"/>
      <point x="449" y="509"/>
      <point x="498" y="430"/>
      <point x="498" y="333" type="curve" smooth="yes"/>
      <point x="498" y="308"/>
      <point x="497" y="298"/>
      <point x="494" y="279" type="curve" smooth="yes"/>
      <point x="486" y="230" type="line" smooth="yes"/>
      <point x="463" y="91"/>
      <point x="387" y="7"/>
    </contour>
  </outline>
</glyph>
<glyph name="dotlessj" format="2">
  <advance width="600"/>
  <unicode hex="0237"/>
  <anchor x="460.0" y="516.0" name="top"/>
  <outline>
    <contour>
      <point x="329" y="-212" type="curve" smooth="yes"/>
      <point x="345" y="-212"/>
      <point x="351" y="-201"/>
      <point x="355" y="-178" type="curve" smooth="yes"/>
      <point x="470" y="516" type="line"/>
      <point x="139" y="516" type="line"/>
      <point x="136" y="497" type="line"/>
      <point x="446" y="497" type="line"/>
      <point x="332" y="-190" type="line"/>
      <point x="326" y="-192" type="line"/>
      <point x="124" y="-12" type="line"/>
      <point x="110" y="-26" type="line"/>
      <point x="298" y="-195" type="line" smooth="yes"/>
      <point x="311" y="-206"/>
      <point x="319" y="-212"/>
    </contour>
  </outline>
</glyph>
<glyph name="commaturnedtop" format="2">
  <advance width="600"/>
  <unicode hex="02BB"/>
  <anchor x="300.0" y="516.0" name="_top"/>
  <outline>
    <contour>
      <point x="301" y="593" type="line"/>
      <point x="326" y="593" type="line"/>
      <point x="409" y="769" type="line"/>
      <point x="391" y="769" type="line"/>
    </contour>
  </outline>
</glyph>
<glyph name="caron" format="2">
  <advance width="600"/>
  <unicode hex="02C7"/>
  <anchor x="300.0" y="516.0" name="_top"/>
  <outline>
    <contour>
      <point x="328" y="613" type="line"/>
      <point x="478" y="745" type="line"/>
      <point x="465" y="757" type="line"/>
      <point x="317" y="630" type="line"/>
      <point x="213" y="757" type="line"/>
      <point x="198" y="747" type="line"/>
      <point x="304" y="613" type="line"/>
    </contour>
  </outline>
</glyph>
<glyph name="breve" format="2">
  <advance width="600"/>
  <unicode hex="02D8"/>
  <anchor x="300.0" y="516.0" name="_top"/>
  <outline>
    <contour>
      <point x="318" y="611" type="curve" smooth="yes"/>
      <point x="389" y="611"/>
      <point x="422" y="655"/>
      <point x="476" y="740" type="curve"/>
      <point x="461" y="747" type="line"/>
      <point x="425" y="698" type="line" smooth="yes"/>
      <point x="387" y="646"/>
      <point x="360" y="630"/>
      <point x="318" y="630" type="curve" smooth="yes"/>
      <point x="276" y="630"/>
      <point x="256" y="646"/>
      <point x="235" y="698" type="curve" smooth="yes"/>
      <point x="215" y="747" type="line"/>
      <point x="200" y="740" type="line"/>
      <point x="226" y="655"/>
      <point x="247" y="611"/>
    </contour>
  </outline>
</glyph>
<glyph name="dotaccent" format="2">
  <advance width="600"/>
  <unicode hex="02D9"/>
  <anchor x="300.0" y="516.0" name="_top"/>
  <outline>
    <contour>
      <point x="324" y="649" type="curve" smooth="yes"/>
      <point x="342" y="649"/>
      <point x="351" y="657"/>
      <point x="354" y="671" type="curve" smooth="yes"/>
      <point x="355" y="677"/>
      <point x="356" y="681"/>
      <point x="356" y="685" type="curve" smooth="yes"/>
      <point x="356" y="694"/>
      <point x="350" y="703"/>
      <point x="330" y="703" type="curve" smooth="yes"/>
      <point x="312" y="703"/>
      <point x="303" y="695"/>
      <point x="300" y="681" type="curve" smooth="yes"/>
      <point x="299" y="675"/>
      <point x="298" y="671"/>
      <point x="298" y="667" type="curve" smooth="yes"/>
      <point x="298" y="658"/>
      <point x="304" y="649"/>
    </contour>
  </outline>
</glyph>
<glyph name="tilde" format="2">
  <advance width="600"/>
  <unicode hex="02DC"/>
  <anchor x="300.0" y="516.0" name="_top"/>
  <outline>
    <contour>
      <point x="391" y="638" type="curve" smooth="yes"/>
      <point x="420" y="638"/>
      <point x="448" y="648"/>
      <point x="477" y="677" type="curve"/>
      <point x="466" y="689" type="line"/>
      <point x="441" y="667"/>
      <point x="420" y="656"/>
      <point x="396" y="656" type="curve" smooth="yes"/>
      <point x="374" y="656"/>
      <point x="357" y="665"/>
      <point x="333" y="682" type="curve" smooth="yes"/>
      <point x="303" y="703"/>
      <point x="287" y="712"/>
      <point x="262" y="712" type="curve" smooth="yes"/>
      <point x="233" y="712"/>
      <point x="205" y="702"/>
      <point x="176" y="673" type="curve"/>
      <point x="187" y="661" type="line"/>
      <point x="212" y="683"/>
      <point x="233" y="694"/>
      <point x="257" y="694" type="curve" smooth="yes"/>
      <point x="279" y="694"/>
      <point x="296" y="685"/>
      <point x="320" y="668" type="curve" smooth="yes"/>
      <point x="350" y="647"/>
      <point x="366" y="638"/>
    </contour>
  </outline>
</glyph>
<glyph name="hungarumlaut" format="2">
  <advance width="600"/>
  <unicode hex="02DD"/>
  <anchor x="300.0" y="516.0" name="_top"/>
  <outline>
    <contour>
      <point x="376" y="748" type="line"/>
      <point x="358" y="761" type="line"/>
      <point x="220" y="608" type="line"/>
      <point x="234" y="597" type="line"/>
    </contour>
    <contour>
      <point x="536" y="748" type="line"/>
      <point x="518" y="761" type="line"/>
      <point x="380" y="608" type="line"/>
      <point x="394" y="597" type="line"/>
    </contour>
  </outline>
</glyph>
<glyph name="hookcomb" format="2">
  <unicode hex="0309"/>
  <anchor x="0.0" y="516.0" name="_top"/>
  <outline>
    <contour>
      <point x="-36" y="729" type="line"/>
      <point x="104" y="729" type="line"/>
      <point x="6" y="604" type="line"/>
      <point x="21" y="595" type="line"/>
      <point x="88" y="677" type="line" smooth="yes"/>
      <point x="121" y="717"/>
      <point x="124" y="723"/>
      <point x="124" y="732" type="curve" smooth="yes"/>
      <point x="124" y="741"/>
      <point x="118" y="747"/>
      <point x="100" y="747" type="curve" smooth="yes"/>
      <point x="-33" y="747" type="line"/>
    </contour>
  </outline>
</glyph>
<glyph name="horncomb" format="2">
  <unicode hex="031B"/>
  <outline>
    <contour>
      <point x="61" y="627" type="line"/>
      <point x="40" y="627" type="line"/>
      <point x="22" y="516" type="line"/>
      <point x="-58" y="516" type="line"/>
      <point x="-61" y="498" type="line"/>
      <point x="10" y="498" type="line" smooth="yes"/>
      <point x="31" y="498"/>
      <point x="42" y="507"/>
      <point x="45" y="527" type="curve" smooth="yes"/>
    </contour>
  </outline>
</glyph>
<glyph name="dotbelowcomb" format="2">
  <unicode hex="0323"/>
  <anchor x="0.0" y="0.0" name="_bottom"/>
  <outline>
    <contour>
      <point x="-21" y="-137" type="curve" smooth="yes"/>
      <point x="-3" y="-137"/>
      <point x="6" y="-129"/>
      <point x="9" y="-115" type="curve" smooth="yes"/>
      <point x="10" y="-109"/>
      <point x="11" y="-105"/>
      <point x="11" y="-101" type="curve" smooth="yes"/>
      <point x="11" y="-92"/>
      <point x="5" y="-83"/>
      <point x="-15" y="-83" type="curve" smooth="yes"/>
      <point x="-33" y="-83"/>
      <point x="-42" y="-91"/>
      <point x="-45" y="-105" type="curve" smooth="yes"/>
      <point x="-46" y="-111"/>
      <point x="-47" y="-115"/>
      <point x="-47" y="-119" type="curve" smooth="yes"/>
      <point x="-47" y="-128"/>
      <point x="-41" y="-137"/>
    </contour>
  </outline>
</glyph>
<glyph name="commabelowcomb" format="2">
  <unicode hex="0326"/>
  <anchor x="0.0" y="0.0" name="_bottom"/>
  <outline>
    <contour>
      <point x="-78" y="-251" type="line"/>
      <point x="-60" y="-251" type="line"/>
      <point x="1" y="-68" type="line"/>
      <point x="-24" y="-68" type="line"/>
    </contour>
  </outline>
</glyph>
<glyph name="circumflexbelowcomb" format="2">
  <unicode hex="032D"/>
  <guideline x="0" y="0" angle="80.5" identifier="RhuwEgVOqw"/>
  <anchor x="0.0" y="0.0" name="_bottom"/>
  <outline>
    <contour>
      <point x="-22" y="-68" type="line"/>
      <point x="-172" y="-200" type="line"/>
      <point x="-159" y="-212" type="line"/>
      <point x="-11" y="-85" type="line"/>
      <point x="93" y="-212" type="line"/>
      <point x="108" y="-202" type="line"/>
      <point x="2" y="-68" type="line"/>
    </contour>
  </outline>
</glyph>
<glyph name="brevebelowcomb" format="2">
  <unicode hex="032E"/>
  <guideline x="0" y="0" angle="80.5" identifier="Y0MBUQCDyy"/>
  <anchor x="0.0" y="0.0" name="_bottom"/>
  <outline>
    <contour>
      <point x="-31" y="-212" type="curve" smooth="yes"/>
      <point x="40" y="-212"/>
      <point x="73" y="-168"/>
      <point x="127" y="-83" type="curve"/>
      <point x="112" y="-76" type="line"/>
      <point x="76" y="-125" type="line" smooth="yes"/>
      <point x="38" y="-177"/>
      <point x="11" y="-193"/>
      <point x="-31" y="-193" type="curve" smooth="yes"/>
      <point x="-73" y="-193"/>
      <point x="-93" y="-177"/>
      <point x="-114" y="-125" type="curve" smooth="yes"/>
      <point x="-134" y="-76" type="line"/>
      <point x="-149" y="-83" type="line"/>
      <point x="-123" y="-168"/>
      <point x="-102" y="-212"/>
    </contour>
  </outline>
</glyph>
<glyph name="macronbelowcomb" format="2">
  <unicode hex="0331"/>
  <guideline x="0" y="0" angle="80.5" identifier="77MVXy0rtt"/>
  <anchor x="0.0" y="0.0" name="_bottom"/>
  <outline>
    <contour>
      <point x="-148" y="-122" type="line"/>
      <point x="110" y="-122" type="line"/>
      <point x="113" y="-104" type="line"/>
      <point x="-145" y="-104" type="line"/>
    </contour>
  </outline>
</glyph>
<glyph name="uni0404" format="2">
  <advance width="600"/>
  <unicode hex="0404"/>
  <outline>
    <contour>
      <point x="280" y="-12" type="curve" smooth="yes"/>
      <point x="376" y="-12"/>
      <point x="439" y="34"/>
      <point x="498" y="142" type="curve"/>
      <point x="479" y="151" type="line"/>
      <point x="429" y="56"/>
      <point x="369" y="8"/>
      <point x="280" y="8" type="curve" smooth="yes"/>
      <point x="173" y="8"/>
      <point x="111" y="79"/>
      <point x="111" y="219" type="curve" smooth="yes"/>
      <point x="111" y="253"/>
      <point x="112" y="291"/>
      <point x="119" y="331" type="curve" smooth="yes"/>
      <point x="121" y="344" type="line"/>
      <point x="397" y="344" type="line"/>
      <point x="401" y="364" type="line"/>
      <point x="124" y="364" type="line"/>
      <point x="129" y="390" type="line" smooth="yes"/>
      <point x="162" y="582"/>
      <point x="259" y="690"/>
      <point x="380" y="690" type="curve" smooth="yes"/>
      <point x="472" y="690"/>
      <point x="514" y="642"/>
      <point x="537" y="563" type="curve"/>
      <point x="557" y="569" type="line"/>
      <point x="532" y="656"/>
      <point x="482" y="710"/>
      <point x="381" y="710" type="curve" smooth="yes"/>
      <point x="182" y="710"/>
      <point x="90" y="461"/>
      <point x="90" y="219" type="curve" smooth="yes"/>
      <point x="90" y="58"/>
      <point x="168" y="-12"/>
    </contour>
  </outline>
</glyph>
<glyph name="uni040F" format="2">
  <advance width="600"/>
  <unicode hex="040F"/>
  <outline>
    <contour>
      <point x="220" y="-150" type="line"/>
      <point x="242" y="-150" type="line"/>
      <point x="267" y="0" type="line"/>
      <point x="451" y="0" type="line"/>
      <point x="567" y="698" type="line"/>
      <point x="545" y="698" type="line"/>
      <point x="432" y="20" type="line"/>
      <point x="88" y="20" type="line"/>
      <point x="200" y="698" type="line"/>
      <point x="178" y="698" type="line"/>
      <point x="62" y="0" type="line"/>
      <point x="245" y="0" type="line"/>
    </contour>
  </outline>
</glyph>
<glyph name="uni0413" format="2">
  <advance width="600"/>
  <unicode hex="0413"/>
  <anchor x="411.0" y="698.0" name="top"/>
  <outline>
    <contour>
      <point x="112" y="0" type="line"/>
      <point x="134" y="0" type="line"/>
      <point x="247" y="678" type="line"/>
      <point x="588" y="678" type="line"/>
      <point x="591" y="698" type="line"/>
      <point x="228" y="698" type="line"/>
    </contour>
  </outline>
</glyph>
<glyph name="uni0416" format="2">
  <advance width="600"/>
  <unicode hex="0416"/>
  <anchor x="375.0" y="698.0" name="top"/>
  <outline>
    <contour>
      <point x="-35" y="0" type="line"/>
      <point x="-10" y="0" type="line"/>
      <point x="189" y="344" type="line"/>
      <point x="305" y="344" type="line"/>
      <point x="247" y="0" type="line"/>
      <point x="269" y="0" type="line"/>
      <point x="327" y="344" type="line"/>
      <point x="442" y="344" type="line"/>
      <point x="529" y="0" type="line"/>
      <point x="551" y="0" type="line"/>
      <point x="471" y="316" type="line" smooth="yes"/>
      <point x="464" y="342"/>
      <point x="459" y="349"/>
      <point x="450" y="352" type="curve"/>
      <point x="451" y="355" type="line"/>
      <point x="463" y="359"/>
      <point x="471" y="366"/>
      <point x="481" y="385" type="curve" smooth="yes"/>
      <point x="649" y="698" type="line"/>
      <point x="625" y="698" type="line"/>
      <point x="446" y="364" type="line"/>
      <point x="330" y="364" type="line"/>
      <point x="386" y="698" type="line"/>
      <point x="364" y="698" type="line"/>
      <point x="308" y="364" type="line"/>
      <point x="192" y="364" type="line"/>
      <point x="122" y="698" type="line"/>
      <point x="101" y="698" type="line"/>
      <point x="165" y="393" type="line" smooth="yes"/>
      <point x="170" y="366"/>
      <point x="174" y="359"/>
      <point x="185" y="355" type="curve"/>
      <point x="184" y="352" type="line"/>
      <point x="172" y="349"/>
      <point x="162" y="340"/>
      <point x="148" y="316" type="curve" smooth="yes"/>
    </contour>
  </outline>
</glyph>
<glyph name="uni0418" format="2">
  <advance width="600"/>
  <unicode hex="0418"/>
  <anchor x="366.0" y="698.0" name="top"/>
  <outline>
    <contour>
      <point x="55" y="0" type="line"/>
      <point x="74" y="0" type="line"/>
      <point x="510" y="604" type="line"/>
      <point x="552" y="671" type="line"/>
      <point x="555" y="671" type="line"/>
      <point x="536" y="596" type="line"/>
      <point x="437" y="0" type="line"/>
      <point x="458" y="0" type="line"/>
      <point x="574" y="698" type="line"/>
      <point x="555" y="698" type="line"/>
      <point x="119" y="94" type="line"/>
      <point x="77" y="27" type="line"/>
      <point x="74" y="27" type="line"/>
      <point x="93" y="102" type="line"/>
      <point x="192" y="698" type="line"/>
      <point x="171" y="698" type="line"/>
    </contour>
  </outline>
</glyph>
<glyph name="uni041A" format="2">
  <advance width="600"/>
  <unicode hex="041A"/>
  <anchor x="354.0" y="698.0" name="top"/>
  <outline>
    <contour>
      <point x="49" y="0" type="line"/>
      <point x="71" y="0" type="line"/>
      <point x="128" y="344" type="line"/>
      <point x="304" y="344" type="line"/>
      <point x="411" y="20" type="line" smooth="yes"/>
      <point x="417" y="3"/>
      <point x="425" y="0"/>
      <point x="441" y="0" type="curve" smooth="yes"/>
      <point x="502" y="0" type="line"/>
      <point x="505" y="20" type="line"/>
      <point x="433" y="20" type="line"/>
      <point x="336" y="314" type="line" smooth="yes"/>
      <point x="326" y="343"/>
      <point x="322" y="348"/>
      <point x="310" y="352" type="curve"/>
      <point x="311" y="355" type="line"/>
      <point x="322" y="358"/>
      <point x="329" y="364"/>
      <point x="345" y="386" type="curve" smooth="yes"/>
      <point x="571" y="698" type="line"/>
      <point x="546" y="698" type="line"/>
      <point x="304" y="364" type="line"/>
      <point x="132" y="364" type="line"/>
      <point x="187" y="698" type="line"/>
      <point x="165" y="698" type="line"/>
    </contour>
  </outline>
</glyph>
<glyph name="uni041B" format="2">
  <advance width="600"/>
  <unicode hex="041B"/>
  <outline>
    <contour>
      <point x="-35" y="0" type="line"/>
      <point x="10" y="0" type="line" smooth="yes"/>
      <point x="29" y="0"/>
      <point x="53" y="8"/>
      <point x="78" y="33" type="curve" smooth="yes"/>
      <point x="129" y="84"/>
      <point x="194" y="211"/>
      <point x="237" y="468" type="curve" smooth="yes"/>
      <point x="272" y="678" type="line"/>
      <point x="539" y="678" type="line"/>
      <point x="426" y="0" type="line"/>
      <point x="448" y="0" type="line"/>
      <point x="564" y="698" type="line"/>
      <point x="253" y="698" type="line"/>
      <point x="216" y="473" type="line" smooth="yes"/>
      <point x="174" y="219"/>
      <point x="102" y="66"/>
      <point x="30" y="20" type="curve"/>
      <point x="-32" y="20" type="line"/>
    </contour>
  </outline>
</glyph>
<glyph name="uni041F" format="2">
  <advance width="600"/>
  <unicode hex="041F"/>
  <outline>
    <contour>
      <point x="62" y="0" type="line"/>
      <point x="84" y="0" type="line"/>
      <point x="197" y="678" type="line"/>
      <point x="541" y="678" type="line"/>
      <point x="429" y="0" type="line"/>
      <point x="451" y="0" type="line"/>
      <point x="567" y="698" type="line"/>
      <point x="178" y="698" type="line"/>
    </contour>
  </outline>
</glyph>
<glyph name="uni0423" format="2">
  <advance width="600"/>
  <unicode hex="0423"/>
  <anchor x="364.0" y="698.0" name="top"/>
  <outline>
    <contour>
      <point x="103" y="0" type="line"/>
      <point x="203" y="0" type="line" smooth="yes"/>
      <point x="222" y="0"/>
      <point x="232" y="6"/>
      <point x="239" y="19" type="curve" smooth="yes"/>
      <point x="611" y="698" type="line"/>
      <point x="587" y="698" type="line"/>
      <point x="389" y="335" type="line"/>
      <point x="303" y="176" type="line"/>
      <point x="301" y="176" type="line"/>
      <point x="258" y="335" type="line"/>
      <point x="159" y="698" type="line"/>
      <point x="136" y="698" type="line"/>
      <point x="287" y="150" type="line"/>
      <point x="215" y="19" type="line"/>
      <point x="106" y="19" type="line"/>
    </contour>
  </outline>
</glyph>
<glyph name="uni0427" format="2">
  <advance width="600"/>
  <unicode hex="0427"/>
  <anchor x="355.0" y="698.0" name="top"/>
  <outline>
    <contour>
      <point x="416" y="0" type="line"/>
      <point x="438" y="0" type="line"/>
      <point x="554" y="698" type="line"/>
      <point x="532" y="698" type="line"/>
      <point x="472" y="332" type="line"/>
      <point x="435" y="311"/>
      <point x="368" y="296"/>
      <point x="304" y="296" type="curve" smooth="yes"/>
      <point x="194" y="296"/>
      <point x="139" y="341"/>
      <point x="139" y="435" type="curve" smooth="yes"/>
      <point x="139" y="453"/>
      <point x="141" y="473"/>
      <point x="144" y="492" type="curve" smooth="yes"/>
      <point x="178" y="698" type="line"/>
      <point x="156" y="698" type="line"/>
      <point x="123" y="499" type="line" smooth="yes"/>
      <point x="119" y="477"/>
      <point x="117" y="450"/>
      <point x="117" y="431" type="curve" smooth="yes"/>
      <point x="117" y="327"/>
      <point x="179" y="276"/>
      <point x="301" y="276" type="curve" smooth="yes"/>
      <point x="365" y="276"/>
      <point x="428" y="290"/>
      <point x="466" y="311" type="curve"/>
      <point x="468" y="311" type="line"/>
    </contour>
  </outline>
</glyph>
<glyph name="uni0428" format="2">
  <advance width="600"/>
  <unicode hex="0428"/>
  <outline>
    <contour>
      <point x="22" y="0" type="line"/>
      <point x="492" y="0" type="line"/>
      <point x="608" y="698" type="line"/>
      <point x="586" y="698" type="line"/>
      <point x="473" y="20" type="line"/>
      <point x="271" y="20" type="line"/>
      <point x="384" y="698" type="line"/>
      <point x="362" y="698" type="line"/>
      <point x="249" y="20" type="line"/>
      <point x="47" y="20" type="line"/>
      <point x="160" y="698" type="line"/>
      <point x="138" y="698" type="line"/>
    </contour>
  </outline>
</glyph>
<glyph name="uni042B" format="2">
  <advance width="600"/>
  <unicode hex="042B"/>
  <anchor x="364.0" y="698.0" name="top"/>
  <outline>
    <contour>
      <point x="47" y="20" type="line"/>
      <point x="103" y="356" type="line"/>
      <point x="237" y="356" type="line" smooth="yes"/>
      <point x="326" y="356"/>
      <point x="365" y="303"/>
      <point x="365" y="241" type="curve" smooth="yes"/>
      <point x="365" y="231"/>
      <point x="364" y="221"/>
      <point x="362" y="209" type="curve" smooth="yes"/>
      <point x="355" y="167" type="line" smooth="yes"/>
      <point x="342" y="91"/>
      <point x="283" y="20"/>
      <point x="180" y="20" type="curve" smooth="yes"/>
    </contour>
    <contour>
      <point x="22" y="0" type="line"/>
      <point x="180" y="0" type="line" smooth="yes"/>
      <point x="304" y="0"/>
      <point x="386" y="91"/>
      <point x="386" y="239" type="curve" smooth="yes"/>
      <point x="386" y="319"/>
      <point x="336" y="376"/>
      <point x="237" y="376" type="curve" smooth="yes"/>
      <point x="107" y="376" type="line"/>
      <point x="160" y="698" type="line"/>
      <point x="138" y="698" type="line"/>
    </contour>
    <contour>
      <point x="470" y="0" type="line"/>
      <point x="492" y="0" type="line"/>
      <point x="608" y="698" type="line"/>
      <point x="586" y="698" type="line"/>
    </contour>
  </outline>
</glyph>
<glyph name="uni042C" format="2">
  <advance width="600"/>
  <unicode hex="042C"/>
  <outline>
    <contour>
      <point x="104" y="20" type="line"/>
      <point x="160" y="356" type="line"/>
      <point x="375" y="356" type="line" smooth="yes"/>
      <point x="464" y="356"/>
      <point x="503" y="303"/>
      <point x="503" y="241" type="curve" smooth="yes"/>
      <point x="503" y="231"/>
      <point x="502" y="221"/>
      <point x="500" y="209" type="curve" smooth="yes"/>
      <point x="493" y="167" type="line" smooth="yes"/>
      <point x="480" y="91"/>
      <point x="421" y="20"/>
      <point x="318" y="20" type="curve" smooth="yes"/>
    </contour>
    <contour>
      <point x="79" y="0" type="line"/>
      <point x="318" y="0" type="line" smooth="yes"/>
      <point x="442" y="0"/>
      <point x="524" y="91"/>
      <point x="524" y="239" type="curve" smooth="yes"/>
      <point x="524" y="319"/>
      <point x="474" y="376"/>
      <point x="375" y="376" type="curve" smooth="yes"/>
      <point x="164" y="376" type="line"/>
      <point x="217" y="698" type="line"/>
      <point x="195" y="698" type="line"/>
    </contour>
  </outline>
</glyph>
<glyph name="uni042D" format="2">
  <advance width="600"/>
  <unicode hex="042D"/>
  <outline>
    <contour>
      <point x="220" y="344" type="line"/>
      <point x="496" y="344" type="line"/>
      <point x="490" y="308" type="line" smooth="yes"/>
      <point x="457" y="116"/>
      <point x="360" y="8"/>
      <point x="239" y="8" type="curve" smooth="yes"/>
      <point x="147" y="8"/>
      <point x="102" y="56"/>
      <point x="78" y="150" type="curve"/>
      <point x="58" y="144" type="line"/>
      <point x="84" y="42"/>
      <point x="137" y="-12"/>
      <point x="238" y="-12" type="curve" smooth="yes"/>
      <point x="437" y="-12"/>
      <point x="529" y="237"/>
      <point x="529" y="479" type="curve" smooth="yes"/>
      <point x="529" y="640"/>
      <point x="451" y="710"/>
      <point x="339" y="710" type="curve" smooth="yes"/>
      <point x="243" y="710"/>
      <point x="183" y="663"/>
      <point x="129" y="572" type="curve"/>
      <point x="148" y="563" type="line"/>
      <point x="196" y="643"/>
      <point x="250" y="690"/>
      <point x="339" y="690" type="curve" smooth="yes"/>
      <point x="446" y="690"/>
      <point x="508" y="619"/>
      <point x="508" y="479" type="curve" smooth="yes"/>
      <point x="508" y="445"/>
      <point x="507" y="407"/>
      <point x="500" y="367" type="curve" smooth="yes"/>
      <point x="499" y="364" type="line"/>
      <point x="224" y="364" type="line"/>
    </contour>
  </outline>
</glyph>
<glyph name="uni0432" format="2">
  <advance width="600"/>
  <unicode hex="0432"/>
  <outline>
    <contour>
      <point x="283" y="-12" type="curve" smooth="yes"/>
      <point x="415" y="-12"/>
      <point x="487" y="64"/>
      <point x="487" y="159" type="curve" smooth="yes"/>
      <point x="487" y="225"/>
      <point x="449" y="272"/>
      <point x="346" y="274" type="curve"/>
      <point x="346" y="277" type="line"/>
      <point x="452" y="300"/>
      <point x="503" y="345"/>
      <point x="503" y="424" type="curve" smooth="yes"/>
      <point x="503" y="484"/>
      <point x="453" y="528"/>
      <point x="357" y="528" type="curve" smooth="yes"/>
      <point x="191" y="528"/>
      <point x="118" y="417"/>
      <point x="98" y="274" type="curve" smooth="yes"/>
      <point x="94" y="244"/>
      <point x="92" y="213"/>
      <point x="92" y="181" type="curve" smooth="yes"/>
      <point x="92" y="71"/>
      <point x="153" y="-12"/>
    </contour>
    <contour>
      <point x="283" y="7" type="curve" smooth="yes"/>
      <point x="158" y="7"/>
      <point x="112" y="90"/>
      <point x="112" y="183" type="curve" smooth="yes"/>
      <point x="112" y="201"/>
      <point x="114" y="228"/>
      <point x="116" y="242" type="curve"/>
      <point x="223" y="254" type="line" smooth="yes"/>
      <point x="267" y="259"/>
      <point x="298" y="262"/>
      <point x="326" y="262" type="curve" smooth="yes"/>
      <point x="424" y="262"/>
      <point x="466" y="220"/>
      <point x="466" y="159" type="curve" smooth="yes"/>
      <point x="466" y="151"/>
      <point x="465" y="141"/>
      <point x="463" y="130" type="curve" smooth="yes"/>
      <point x="449" y="55"/>
      <point x="388" y="7"/>
    </contour>
    <contour>
      <point x="118" y="261" type="line"/>
      <point x="123" y="291" type="line" smooth="yes"/>
      <point x="147" y="431"/>
      <point x="219" y="509"/>
      <point x="356" y="509" type="curve" smooth="yes"/>
      <point x="443" y="509"/>
      <point x="482" y="474"/>
      <point x="482" y="424" type="curve" smooth="yes"/>
      <point x="482" y="418"/>
      <point x="481" y="408"/>
      <point x="480" y="402" type="curve" smooth="yes"/>
      <point x="468" y="331"/>
      <point x="401" y="289"/>
      <point x="221" y="272" type="curve" smooth="yes"/>
    </contour>
  </outline>
</glyph>
<glyph name="uni0433" format="2">
  <advance width="600"/>
  <unicode hex="0433"/>
  <anchor x="350.0" y="516.0" name="top"/>
  <outline>
    <contour>
      <point x="246" y="-12" type="curve" smooth="yes"/>
      <point x="342" y="-12"/>
      <point x="430" y="19"/>
      <point x="492" y="88" type="curve"/>
      <point x="477" y="102" type="line"/>
      <point x="415" y="34"/>
      <point x="339" y="7"/>
      <point x="248" y="7" type="curve" smooth="yes"/>
      <point x="148" y="7"/>
      <point x="98" y="40"/>
      <point x="98" y="113" type="curve" smooth="yes"/>
      <point x="98" y="207"/>
      <point x="180" y="242"/>
      <point x="259" y="253" type="curve" smooth="yes"/>
      <point x="338" y="264" type="line" smooth="yes"/>
      <point x="439" y="278"/>
      <point x="517" y="323"/>
      <point x="517" y="415" type="curve" smooth="yes"/>
      <point x="517" y="498"/>
      <point x="453" y="528"/>
      <point x="364" y="528" type="curve" smooth="yes"/>
      <point x="261" y="528"/>
      <point x="190" y="489"/>
      <point x="148" y="447" type="curve"/>
      <point x="163" y="433" type="line"/>
      <point x="204" y="474"/>
      <point x="263" y="509"/>
      <point x="363" y="509" type="curve" smooth="yes"/>
      <point x="453" y="509"/>
      <point x="497" y="481"/>
      <point x="497" y="415" type="curve" smooth="yes"/>
      <point x="497" y="329"/>
      <point x="422" y="294"/>
      <point x="338" y="282" type="curve" smooth="yes"/>
      <point x="259" y="271" type="line" smooth="yes"/>
      <point x="167" y="258"/>
      <point x="78" y="218"/>
      <point x="78" y="114" type="curve" smooth="yes"/>
      <point x="78" y="24"/>
      <point x="143" y="-12"/>
    </contour>
  </outline>
</glyph>
<glyph name="uni0436" format="2">
  <advance width="600"/>
  <unicode hex="0436"/>
  <anchor x="343.0" y="516.0" name="top"/>
  <outline>
    <contour>
      <point x="-14" y="0" type="line"/>
      <point x="22" y="0" type="line" smooth="yes"/>
      <point x="49" y="0"/>
      <point x="74" y="13"/>
      <point x="97" y="49" type="curve" smooth="yes"/>
      <point x="122" y="89"/>
      <point x="144" y="156"/>
      <point x="162" y="261" type="curve"/>
      <point x="292" y="261" type="line"/>
      <point x="248" y="0" type="line"/>
      <point x="269" y="0" type="line"/>
      <point x="313" y="261" type="line"/>
      <point x="443" y="261" type="line"/>
      <point x="436" y="217"/>
      <point x="433" y="168"/>
      <point x="433" y="123" type="curve" smooth="yes"/>
      <point x="433" y="36"/>
      <point x="460" y="0"/>
      <point x="496" y="0" type="curve" smooth="yes"/>
      <point x="534" y="0" type="line"/>
      <point x="537" y="19" type="line"/>
      <point x="483" y="19" type="line"/>
      <point x="465" y="33"/>
      <point x="453" y="69"/>
      <point x="453" y="123" type="curve" smooth="yes"/>
      <point x="453" y="169"/>
      <point x="455" y="213"/>
      <point x="465" y="273" type="curve" smooth="yes"/>
      <point x="488" y="411"/>
      <point x="519" y="468"/>
      <point x="557" y="497" type="curve"/>
      <point x="609" y="497" type="line"/>
      <point x="612" y="516" type="line"/>
      <point x="579" y="516" type="line" smooth="yes"/>
      <point x="553" y="516"/>
      <point x="526" y="501"/>
      <point x="503" y="462" type="curve" smooth="yes"/>
      <point x="481" y="425"/>
      <point x="461" y="367"/>
      <point x="446" y="280" type="curve"/>
      <point x="316" y="280" type="line"/>
      <point x="355" y="516" type="line"/>
      <point x="334" y="516" type="line"/>
      <point x="295" y="280" type="line"/>
      <point x="165" y="280" type="line"/>
      <point x="172" y="324"/>
      <point x="175" y="375"/>
      <point x="175" y="411" type="curve" smooth="yes"/>
      <point x="175" y="489"/>
      <point x="148" y="516"/>
      <point x="116" y="516" type="curve" smooth="yes"/>
      <point x="80" y="516" type="line"/>
      <point x="77" y="497" type="line"/>
      <point x="129" y="497" type="line"/>
      <point x="146" y="481"/>
      <point x="155" y="457"/>
      <point x="155" y="411" type="curve" smooth="yes"/>
      <point x="155" y="375"/>
      <point x="153" y="328"/>
      <point x="143" y="268" type="curve" smooth="yes"/>
      <point x="115" y="100"/>
      <point x="79" y="45"/>
      <point x="43" y="19" type="curve"/>
      <point x="-11" y="19" type="line"/>
    </contour>
  </outline>
</glyph>
<glyph name="uni0437" format="2">
  <advance width="600"/>
  <unicode hex="0437"/>
  <anchor x="343.0" y="516.0" name="top"/>
  <outline>
    <contour>
      <point x="257" y="-12" type="curve" smooth="yes"/>
      <point x="384" y="-12"/>
      <point x="469" y="49"/>
      <point x="469" y="155" type="curve" smooth="yes"/>
      <point x="469" y="219"/>
      <point x="431" y="257"/>
      <point x="357" y="266" type="curve"/>
      <point x="357" y="268" type="line"/>
      <point x="443" y="282"/>
      <point x="498" y="332"/>
      <point x="498" y="419" type="curve" smooth="yes"/>
      <point x="498" y="487"/>
      <point x="444" y="528"/>
      <point x="345" y="528" type="curve" smooth="yes"/>
      <point x="265" y="528"/>
      <point x="200" y="495"/>
      <point x="157" y="452" type="curve"/>
      <point x="172" y="438" type="line"/>
      <point x="214" y="480"/>
      <point x="269" y="509"/>
      <point x="343" y="509" type="curve" smooth="yes"/>
      <point x="437" y="509"/>
      <point x="477" y="473"/>
      <point x="477" y="419" type="curve" smooth="yes"/>
      <point x="477" y="413"/>
      <point x="477" y="402"/>
      <point x="474" y="386" type="curve" smooth="yes"/>
      <point x="462" y="318"/>
      <point x="394" y="277"/>
      <point x="302" y="277" type="curve" smooth="yes"/>
      <point x="192" y="277" type="line"/>
      <point x="189" y="258" type="line"/>
      <point x="301" y="258" type="line" smooth="yes"/>
      <point x="393" y="258"/>
      <point x="448" y="223"/>
      <point x="448" y="155" type="curve" smooth="yes"/>
      <point x="448" y="149"/>
      <point x="447" y="137"/>
      <point x="444" y="121" type="curve" smooth="yes"/>
      <point x="431" y="47"/>
      <point x="356" y="7"/>
      <point x="258" y="7" type="curve" smooth="yes"/>
      <point x="181" y="7"/>
      <point x="123" y="36"/>
      <point x="94" y="86" type="curve"/>
      <point x="78" y="74" type="line"/>
      <point x="108" y="21"/>
      <point x="169" y="-12"/>
    </contour>
  </outline>
</glyph>
<glyph name="uni043B" format="2">
  <advance width="600"/>
  <unicode hex="043B"/>
  <outline>
    <contour>
      <point x="1" y="0" type="line"/>
      <point x="40" y="0" type="line" smooth="yes"/>
      <point x="64" y="0"/>
      <point x="81" y="7"/>
      <point x="98" y="24" type="curve" smooth="yes"/>
      <point x="144" y="70"/>
      <point x="196" y="188"/>
      <point x="223" y="348" type="curve" smooth="yes"/>
      <point x="248" y="497" type="line"/>
      <point x="500" y="497" type="line"/>
      <point x="417" y="0" type="line"/>
      <point x="438" y="0" type="line"/>
      <point x="524" y="516" type="line"/>
      <point x="230" y="516" type="line"/>
      <point x="202" y="348" type="line" smooth="yes"/>
      <point x="172" y="168"/>
      <point x="106" y="51"/>
      <point x="62" y="19" type="curve"/>
      <point x="4" y="19" type="line"/>
    </contour>
  </outline>
</glyph>
<glyph name="uni043C" format="2">
  <advance width="600"/>
  <unicode hex="043C"/>
  <outline>
    <contour>
      <point x="40" y="0" type="line"/>
      <point x="61" y="0" type="line"/>
      <point x="123" y="372" type="line"/>
      <point x="143" y="490" type="line"/>
      <point x="146" y="490" type="line"/>
      <point x="276" y="118" type="line"/>
      <point x="530" y="490" type="line"/>
      <point x="533" y="490" type="line"/>
      <point x="513" y="372" type="line"/>
      <point x="451" y="0" type="line"/>
      <point x="472" y="0" type="line"/>
      <point x="558" y="516" type="line"/>
      <point x="525" y="516" type="line"/>
      <point x="285" y="165" type="line"/>
      <point x="281" y="165" type="line"/>
      <point x="158" y="516" type="line"/>
      <point x="126" y="516" type="line"/>
    </contour>
  </outline>
</glyph>
<glyph name="uni043D" format="2">
  <advance width="600"/>
  <unicode hex="043D"/>
  <outline>
    <contour>
      <point x="86" y="0" type="line"/>
      <point x="107" y="0" type="line"/>
      <point x="151" y="261" type="line"/>
      <point x="454" y="261" type="line"/>
      <point x="411" y="0" type="line"/>
      <point x="432" y="0" type="line"/>
      <point x="518" y="516" type="line"/>
      <point x="497" y="516" type="line"/>
      <point x="457" y="280" type="line"/>
      <point x="154" y="280" type="line"/>
      <point x="193" y="516" type="line"/>
      <point x="172" y="516" type="line"/>
    </contour>
  </outline>
</glyph>
<glyph name="uni0448" format="2">
  <advance width="600"/>
  <unicode hex="0448"/>
  <outline>
    <contour>
      <point x="129" y="-12" type="curve" smooth="yes"/>
      <point x="188" y="-12"/>
      <point x="232" y="32"/>
      <point x="256" y="83" type="curve"/>
      <point x="259" y="83" type="line"/>
      <point x="255" y="23"/>
      <point x="287" y="-12"/>
      <point x="344" y="-12" type="curve" smooth="yes"/>
      <point x="406" y="-12"/>
      <point x="445" y="35"/>
      <point x="467" y="78" type="curve"/>
      <point x="470" y="78" type="line"/>
      <point x="457" y="0" type="line"/>
      <point x="478" y="0" type="line"/>
      <point x="564" y="516" type="line"/>
      <point x="543" y="516" type="line"/>
      <point x="483" y="156" type="line" smooth="yes"/>
      <point x="475" y="110"/>
      <point x="452" y="75"/>
      <point x="432" y="50" type="curve" smooth="yes"/>
      <point x="411" y="24"/>
      <point x="385" y="7"/>
      <point x="347" y="7" type="curve" smooth="yes"/>
      <point x="303" y="7"/>
      <point x="277" y="31"/>
      <point x="277" y="78" type="curve" smooth="yes"/>
      <point x="277" y="93"/>
      <point x="280" y="112"/>
      <point x="283" y="132" type="curve" smooth="yes"/>
      <point x="347" y="516" type="line"/>
      <point x="326" y="516" type="line"/>
      <point x="265" y="150" type="line" smooth="yes"/>
      <point x="258" y="110"/>
      <point x="239" y="75"/>
      <point x="219" y="52" type="curve" smooth="yes"/>
      <point x="191" y="20"/>
      <point x="165" y="7"/>
      <point x="132" y="7" type="curve" smooth="yes"/>
      <point x="85" y="7"/>
      <point x="61" y="38"/>
      <point x="61" y="85" type="curve" smooth="yes"/>
      <point x="61" y="98"/>
      <point x="63" y="115"/>
      <point x="66" y="132" type="curve" smooth="yes"/>
      <point x="130" y="516" type="line"/>
      <point x="109" y="516" type="line"/>
      <point x="44" y="126" type="line" smooth="yes"/>
      <point x="42" y="112"/>
      <point x="40" y="97"/>
      <point x="40" y="85" type="curve" smooth="yes"/>
      <point x="40" y="29"/>
      <point x="73" y="-12"/>
    </contour>
  </outline>
</glyph>
<glyph name="uni044B" format="2">
  <advance width="600"/>
  <unicode hex="044B"/>
  <anchor x="343.0" y="516.0" name="top"/>
  <outline>
    <contour>
      <point x="184" y="-12" type="curve" smooth="yes"/>
      <point x="301" y="-12"/>
      <point x="371" y="91"/>
      <point x="371" y="197" type="curve" smooth="yes"/>
      <point x="371" y="295"/>
      <point x="306" y="335"/>
      <point x="234" y="335" type="curve" smooth="yes"/>
      <point x="165" y="335"/>
      <point x="115" y="294"/>
      <point x="86" y="239" type="curve"/>
      <point x="84" y="239" type="line"/>
      <point x="130" y="516" type="line"/>
      <point x="109" y="516" type="line"/>
      <point x="53" y="180" type="line" smooth="yes"/>
      <point x="52" y="172"/>
      <point x="48" y="144"/>
      <point x="48" y="122" type="curve" smooth="yes"/>
      <point x="48" y="41"/>
      <point x="107" y="-12"/>
    </contour>
    <contour>
      <point x="186" y="7" type="curve" smooth="yes"/>
      <point x="115" y="7"/>
      <point x="68" y="52"/>
      <point x="68" y="118" type="curve" smooth="yes"/>
      <point x="68" y="133"/>
      <point x="70" y="151"/>
      <point x="72" y="162" type="curve" smooth="yes"/>
      <point x="87" y="252"/>
      <point x="154" y="316"/>
      <point x="232" y="316" type="curve" smooth="yes"/>
      <point x="310" y="316"/>
      <point x="351" y="271"/>
      <point x="351" y="199" type="curve" smooth="yes"/>
      <point x="351" y="187"/>
      <point x="349" y="170"/>
      <point x="347" y="159" type="curve" smooth="yes"/>
      <point x="332" y="75"/>
      <point x="275" y="7"/>
    </contour>
    <contour>
      <point x="457" y="0" type="line"/>
      <point x="478" y="0" type="line"/>
      <point x="564" y="516" type="line"/>
      <point x="543" y="516" type="line"/>
    </contour>
  </outline>
</glyph>
<glyph name="uni044C" format="2">
  <advance width="600"/>
  <unicode hex="044C"/>
  <outline>
    <contour>
      <point x="279" y="-12" type="curve" smooth="yes"/>
      <point x="417" y="-12"/>
      <point x="493" y="89"/>
      <point x="493" y="199" type="curve" smooth="yes"/>
      <point x="493" y="293"/>
      <point x="427" y="335"/>
      <point x="329" y="335" type="curve" smooth="yes"/>
      <point x="240" y="335"/>
      <point x="187" y="294"/>
      <point x="154" y="239" type="curve"/>
      <point x="152" y="239" type="line"/>
      <point x="198" y="516" type="line"/>
      <point x="177" y="516" type="line"/>
      <point x="121" y="180" type="line" smooth="yes"/>
      <point x="120" y="172"/>
      <point x="116" y="144"/>
      <point x="116" y="122" type="curve" smooth="yes"/>
      <point x="116" y="41"/>
      <point x="170" y="-12"/>
    </contour>
    <contour>
      <point x="281" y="7" type="curve" smooth="yes"/>
      <point x="179" y="7"/>
      <point x="137" y="53"/>
      <point x="137" y="119" type="curve" smooth="yes"/>
      <point x="137" y="134"/>
      <point x="139" y="152"/>
      <point x="141" y="163" type="curve" smooth="yes"/>
      <point x="155" y="252"/>
      <point x="224" y="316"/>
      <point x="327" y="316" type="curve" smooth="yes"/>
      <point x="426" y="316"/>
      <point x="473" y="273"/>
      <point x="473" y="199" type="curve" smooth="yes"/>
      <point x="473" y="187"/>
      <point x="471" y="170"/>
      <point x="469" y="159" type="curve" smooth="yes"/>
      <point x="456" y="79"/>
      <point x="388" y="7"/>
    </contour>
  </outline>
</glyph>
<glyph name="uni044D" format="2">
  <advance width="600"/>
  <unicode hex="044D"/>
  <outline>
    <contour>
      <point x="220" y="261" type="line"/>
      <point x="492" y="261" type="line"/>
      <point x="485" y="214" type="line" smooth="yes"/>
      <point x="464" y="87"/>
      <point x="380" y="7"/>
      <point x="268" y="7" type="curve" smooth="yes"/>
      <point x="184" y="7"/>
      <point x="128" y="52"/>
      <point x="105" y="147" type="curve"/>
      <point x="86" y="142" type="line"/>
      <point x="109" y="41"/>
      <point x="173" y="-12"/>
      <point x="267" y="-12" type="curve" smooth="yes"/>
      <point x="412" y="-12"/>
      <point x="517" y="107"/>
      <point x="517" y="315" type="curve" smooth="yes"/>
      <point x="517" y="439"/>
      <point x="456" y="528"/>
      <point x="336" y="528" type="curve" smooth="yes"/>
      <point x="243" y="528"/>
      <point x="189" y="491"/>
      <point x="147" y="419" type="curve"/>
      <point x="164" y="408" type="line"/>
      <point x="204" y="478"/>
      <point x="252" y="509"/>
      <point x="336" y="509" type="curve" smooth="yes"/>
      <point x="448" y="509"/>
      <point x="497" y="422"/>
      <point x="497" y="315" type="curve" smooth="yes"/>
      <point x="497" y="301"/>
      <point x="497" y="291"/>
      <point x="495" y="280" type="curve"/>
      <point x="223" y="280" type="line"/>
    </contour>
  </outline>
</glyph>
<glyph name="uni044E" format="2">
  <advance width="600"/>
  <unicode hex="044E"/>
  <outline>
    <contour>
      <point x="344" y="-12" type="curve" smooth="yes"/>
      <point x="446" y="-12"/>
      <point x="515" y="67"/>
      <point x="546" y="253" type="curve" smooth="yes"/>
      <point x="552" y="289"/>
      <point x="557" y="337"/>
      <point x="557" y="373" type="curve" smooth="yes"/>
      <point x="557" y="476"/>
      <point x="509" y="528"/>
      <point x="429" y="528" type="curve" smooth="yes"/>
      <point x="327" y="528"/>
      <point x="261" y="448"/>
      <point x="230" y="280" type="curve"/>
      <point x="105" y="280" type="line"/>
      <point x="145" y="516" type="line"/>
      <point x="124" y="516" type="line"/>
      <point x="38" y="0" type="line"/>
      <point x="59" y="0" type="line"/>
      <point x="102" y="261" type="line"/>
      <point x="227" y="261" type="line"/>
      <point x="221" y="227"/>
      <point x="216" y="179"/>
      <point x="216" y="143" type="curve" smooth="yes"/>
      <point x="216" y="40"/>
      <point x="264" y="-12"/>
    </contour>
    <contour>
      <point x="346" y="7" type="curve" smooth="yes"/>
      <point x="273" y="7"/>
      <point x="236" y="51"/>
      <point x="236" y="145" type="curve" smooth="yes"/>
      <point x="236" y="168"/>
      <point x="239" y="195"/>
      <point x="244" y="226" type="curve" smooth="yes"/>
      <point x="254" y="287" type="line" smooth="yes"/>
      <point x="278" y="436"/>
      <point x="339" y="509"/>
      <point x="427" y="509" type="curve" smooth="yes"/>
      <point x="500" y="509"/>
      <point x="537" y="465"/>
      <point x="537" y="371" type="curve" smooth="yes"/>
      <point x="537" y="348"/>
      <point x="534" y="321"/>
      <point x="529" y="290" type="curve" smooth="yes"/>
      <point x="519" y="229" type="line" smooth="yes"/>
      <point x="495" y="80"/>
      <point x="434" y="7"/>
    </contour>
  </outline>
</glyph>
<glyph name="uni044F" format="2">
  <advance width="600"/>
  <unicode hex="044F"/>
  <outline>
    <contour>
      <point x="63" y="0" type="line"/>
      <point x="109" y="0" type="line" smooth="yes"/>
      <point x="126" y="0"/>
      <point x="133" y="2"/>
      <point x="141" y="14" type="curve" smooth="yes"/>
      <point x="285" y="228" type="line"/>
      <point x="442" y="228" type="line"/>
      <point x="403" y="0" type="line"/>
      <point x="424" y="0" type="line"/>
      <point x="508" y="505" type="line"/>
      <point x="460" y="519"/>
      <point x="403" y="528"/>
      <point x="349" y="528" type="curve" smooth="yes"/>
      <point x="187" y="528"/>
      <point x="137" y="455"/>
      <point x="137" y="360" type="curve" smooth="yes"/>
      <point x="137" y="291"/>
      <point x="171" y="244"/>
      <point x="272" y="235" type="curve"/>
      <point x="271" y="232" type="line"/>
      <point x="263" y="230"/>
      <point x="258" y="225"/>
      <point x="246" y="207" type="curve" smooth="yes"/>
      <point x="121" y="19" type="line"/>
      <point x="68" y="19" type="line"/>
    </contour>
    <contour>
      <point x="312" y="247" type="line" smooth="yes"/>
      <point x="207" y="247"/>
      <point x="157" y="282"/>
      <point x="157" y="360" type="curve" smooth="yes"/>
      <point x="157" y="370"/>
      <point x="158" y="382"/>
      <point x="160" y="394" type="curve" smooth="yes"/>
      <point x="173" y="469"/>
      <point x="228" y="509"/>
      <point x="350" y="509" type="curve" smooth="yes"/>
      <point x="398" y="509"/>
      <point x="449" y="502"/>
      <point x="485" y="492" type="curve"/>
      <point x="445" y="247" type="line"/>
    </contour>
  </outline>
</glyph>
<glyph name="uni045A" format="2">
  <advance width="600"/>
  <unicode hex="045A"/>
  <outline>
    <contour>
      <point x="409" y="-12" type="curve" smooth="yes"/>
      <point x="511" y="-12"/>
      <point x="572" y="91"/>
      <point x="572" y="200" type="curve" smooth="yes"/>
      <point x="572" y="294"/>
      <point x="518" y="335"/>
      <point x="453" y="335" type="curve" smooth="yes"/>
      <point x="399" y="335"/>
      <point x="361" y="308"/>
      <point x="329" y="251" type="curve"/>
      <point x="327" y="251" type="line"/>
      <point x="371" y="516" type="line"/>
      <point x="350" y="516" type="line"/>
      <point x="311" y="280" type="line"/>
      <point x="94" y="280" type="line"/>
      <point x="133" y="516" type="line"/>
      <point x="112" y="516" type="line"/>
      <point x="26" y="0" type="line"/>
      <point x="47" y="0" type="line"/>
      <point x="91" y="261" type="line"/>
      <point x="307" y="261" type="line"/>
      <point x="294" y="180" type="line" smooth="yes"/>
      <point x="293" y="172"/>
      <point x="289" y="145"/>
      <point x="289" y="122" type="curve" smooth="yes"/>
      <point x="289" y="37"/>
      <point x="335" y="-12"/>
    </contour>
    <contour>
      <point x="409" y="5" type="curve" smooth="yes"/>
      <point x="345" y="5"/>
      <point x="309" y="51"/>
      <point x="309" y="116" type="curve" smooth="yes"/>
      <point x="309" y="131"/>
      <point x="311" y="151"/>
      <point x="314" y="170" type="curve" smooth="yes"/>
      <point x="328" y="248"/>
      <point x="377" y="316"/>
      <point x="453" y="316" type="curve" smooth="yes"/>
      <point x="515" y="316"/>
      <point x="552" y="275"/>
      <point x="552" y="202" type="curve" smooth="yes"/>
      <point x="552" y="193"/>
      <point x="551" y="175"/>
      <point x="548" y="159" type="curve" smooth="yes"/>
      <point x="534" y="76"/>
      <point x="486" y="5"/>
    </contour>
  </outline>
</glyph>
<glyph name="uni0462" format="2">
  <advance width="600"/>
  <unicode hex="0462"/>
  <outline>
    <contour>
      <point x="114" y="20" type="line"/>
      <point x="170" y="356" type="line"/>
      <point x="385" y="356" type="line" smooth="yes"/>
      <point x="474" y="356"/>
      <point x="513" y="303"/>
      <point x="513" y="241" type="curve" smooth="yes"/>
      <point x="513" y="231"/>
      <point x="512" y="221"/>
      <point x="510" y="209" type="curve" smooth="yes"/>
      <point x="503" y="167" type="line" smooth="yes"/>
      <point x="490" y="91"/>
      <point x="431" y="20"/>
      <point x="328" y="20" type="curve" smooth="yes"/>
    </contour>
    <contour>
      <point x="89" y="0" type="line"/>
      <point x="328" y="0" type="line" smooth="yes"/>
      <point x="452" y="0"/>
      <point x="534" y="91"/>
      <point x="534" y="239" type="curve" smooth="yes"/>
      <point x="534" y="319"/>
      <point x="484" y="376"/>
      <point x="385" y="376" type="curve" smooth="yes"/>
      <point x="174" y="376" type="line"/>
      <point x="204" y="564" type="line"/>
      <point x="434" y="564" type="line"/>
      <point x="438" y="584" type="line"/>
      <point x="208" y="584" type="line"/>
      <point x="227" y="698" type="line"/>
      <point x="205" y="698" type="line"/>
      <point x="186" y="584" type="line"/>
      <point x="74" y="584" type="line"/>
      <point x="70" y="564" type="line"/>
      <point x="182" y="564" type="line"/>
    </contour>
  </outline>
</glyph>
<glyph name="uni0463" format="2">
  <advance width="600"/>
  <unicode hex="0463"/>
  <outline>
    <contour>
      <point x="279" y="-12" type="curve" smooth="yes"/>
      <point x="417" y="-12"/>
      <point x="493" y="89"/>
      <point x="493" y="199" type="curve" smooth="yes"/>
      <point x="493" y="293"/>
      <point x="427" y="335"/>
      <point x="329" y="335" type="curve" smooth="yes"/>
      <point x="240" y="335"/>
      <point x="187" y="294"/>
      <point x="154" y="239" type="curve"/>
      <point x="152" y="239" type="line"/>
      <point x="195" y="497" type="line"/>
      <point x="368" y="497" type="line"/>
      <point x="371" y="516" type="line"/>
      <point x="198" y="516" type="line"/>
      <point x="231" y="710" type="line"/>
      <point x="210" y="710" type="line"/>
      <point x="177" y="516" type="line"/>
      <point x="82" y="516" type="line"/>
      <point x="79" y="497" type="line"/>
      <point x="174" y="497" type="line"/>
      <point x="121" y="180" type="line" smooth="yes"/>
      <point x="120" y="172"/>
      <point x="116" y="144"/>
      <point x="116" y="122" type="curve" smooth="yes"/>
      <point x="116" y="41"/>
      <point x="170" y="-12"/>
    </contour>
    <contour>
      <point x="281" y="7" type="curve" smooth="yes"/>
      <point x="179" y="7"/>
      <point x="137" y="53"/>
      <point x="137" y="119" type="curve" smooth="yes"/>
      <point x="137" y="134"/>
      <point x="139" y="152"/>
      <point x="141" y="163" type="curve" smooth="yes"/>
      <point x="155" y="252"/>
      <point x="224" y="316"/>
      <point x="327" y="316" type="curve" smooth="yes"/>
      <point x="426" y="316"/>
      <point x="473" y="273"/>
      <point x="473" y="199" type="curve" smooth="yes"/>
      <point x="473" y="187"/>
      <point x="471" y="170"/>
      <point x="469" y="159" type="curve" smooth="yes"/>
      <point x="456" y="79"/>
      <point x="388" y="7"/>
    </contour>
  </outline>
</glyph>
<glyph name="uni046A" format="2">
  <advance width="600"/>
  <unicode hex="046A"/>
  <outline>
    <contour>
      <point x="-36" y="0" type="line"/>
      <point x="-11" y="0" type="line"/>
      <point x="191" y="350" type="line"/>
      <point x="303" y="350" type="line"/>
      <point x="245" y="0" type="line"/>
      <point x="267" y="0" type="line"/>
      <point x="325" y="350" type="line"/>
      <point x="439" y="350" type="line"/>
      <point x="528" y="0" type="line"/>
      <point x="550" y="0" type="line"/>
      <point x="470" y="318" type="line" smooth="yes"/>
      <point x="465" y="338"/>
      <point x="459" y="355"/>
      <point x="447" y="358" type="curve"/>
      <point x="447" y="361" type="line"/>
      <point x="635" y="678" type="line"/>
      <point x="638" y="698" type="line"/>
      <point x="108" y="698" type="line"/>
      <point x="105" y="678" type="line"/>
      <point x="187" y="361" type="line"/>
      <point x="187" y="358" type="line"/>
      <point x="173" y="355"/>
      <point x="160" y="338"/>
      <point x="148" y="318" type="curve" smooth="yes"/>
    </contour>
    <contour>
      <point x="206" y="370" type="line"/>
      <point x="128" y="673" type="line"/>
      <point x="129" y="678" type="line"/>
      <point x="609" y="678" type="line"/>
      <point x="608" y="673" type="line"/>
      <point x="428" y="370" type="line"/>
    </contour>
  </outline>
</glyph>
<glyph name="uni046B" format="2">
  <advance width="600"/>
  <unicode hex="046B"/>
  <outline>
    <contour>
      <point x="10" y="0" type="line"/>
      <point x="34" y="0" type="line"/>
      <point x="175" y="261" type="line"/>
      <point x="291" y="261" type="line"/>
      <point x="247" y="0" type="line"/>
      <point x="268" y="0" type="line"/>
      <point x="312" y="261" type="line"/>
      <point x="428" y="261" type="line"/>
      <point x="484" y="0" type="line"/>
      <point x="505" y="0" type="line"/>
      <point x="456" y="231" type="line" smooth="yes"/>
      <point x="452" y="250"/>
      <point x="447" y="266"/>
      <point x="433" y="269" type="curve"/>
      <point x="433" y="272" type="line"/>
      <point x="586" y="497" type="line"/>
      <point x="589" y="516" type="line"/>
      <point x="98" y="516" type="line"/>
      <point x="95" y="497" type="line"/>
      <point x="172" y="272" type="line"/>
      <point x="172" y="269" type="line"/>
      <point x="156" y="266"/>
      <point x="145" y="250"/>
      <point x="135" y="231" type="curve" smooth="yes"/>
    </contour>
    <contour>
      <point x="192" y="280" type="line"/>
      <point x="119" y="492" type="line"/>
      <point x="120" y="497" type="line"/>
      <point x="559" y="497" type="line"/>
      <point x="558" y="492" type="line"/>
      <point x="415" y="280" type="line"/>
    </contour>
  </outline>
</glyph>
<glyph name="uni0472" format="2">
  <advance width="600"/>
  <unicode hex="0472"/>
  <outline>
    <contour>
      <point x="262" y="-12" type="curve" smooth="yes"/>
      <point x="466" y="-12"/>
      <point x="550" y="237"/>
      <point x="550" y="479" type="curve" smooth="yes"/>
      <point x="550" y="640"/>
      <point x="485" y="710"/>
      <point x="364" y="710" type="curve" smooth="yes"/>
      <point x="160" y="710"/>
      <point x="76" y="461"/>
      <point x="76" y="219" type="curve" smooth="yes"/>
      <point x="76" y="58"/>
      <point x="141" y="-12"/>
    </contour>
    <contour>
      <point x="262" y="8" type="curve" smooth="yes"/>
      <point x="146" y="8"/>
      <point x="97" y="79"/>
      <point x="97" y="219" type="curve" smooth="yes"/>
      <point x="97" y="253"/>
      <point x="98" y="291"/>
      <point x="105" y="331" type="curve" smooth="yes"/>
      <point x="106" y="340" type="line"/>
      <point x="136" y="366"/>
      <point x="167" y="380"/>
      <point x="202" y="380" type="curve" smooth="yes"/>
      <point x="235" y="380"/>
      <point x="262" y="369"/>
      <point x="305" y="343" type="curve" smooth="yes"/>
      <point x="353" y="315"/>
      <point x="384" y="304"/>
      <point x="418" y="304" type="curve" smooth="yes"/>
      <point x="457" y="304"/>
      <point x="491" y="320"/>
      <point x="517" y="344" type="curve"/>
      <point x="511" y="308" type="line" smooth="yes"/>
      <point x="478" y="116"/>
      <point x="389" y="8"/>
    </contour>
    <contour>
      <point x="115" y="390" type="line" smooth="yes"/>
      <point x="148" y="582"/>
      <point x="237" y="690"/>
      <point x="364" y="690" type="curve" smooth="yes"/>
      <point x="480" y="690"/>
      <point x="529" y="619"/>
      <point x="529" y="479" type="curve" smooth="yes"/>
      <point x="529" y="445"/>
      <point x="530" y="411"/>
      <point x="522" y="368" type="curve"/>
      <point x="488" y="338"/>
      <point x="457" y="324"/>
      <point x="422" y="324" type="curve" smooth="yes"/>
      <point x="389" y="324"/>
      <point x="363" y="335"/>
      <point x="320" y="361" type="curve" smooth="yes"/>
      <point x="272" y="389"/>
      <point x="240" y="400"/>
      <point x="206" y="400" type="curve" smooth="yes"/>
      <point x="167" y="400"/>
      <point x="133" y="384"/>
      <point x="110" y="364" type="curve"/>
    </contour>
  </outline>
</glyph>
<glyph name="uni0473" format="2">
  <advance width="600"/>
  <unicode hex="0473"/>
  <outline>
    <contour>
      <point x="266" y="-12" type="curve" smooth="yes"/>
      <point x="420" y="-12"/>
      <point x="518" y="118"/>
      <point x="518" y="335" type="curve" smooth="yes"/>
      <point x="518" y="445"/>
      <point x="453" y="528"/>
      <point x="334" y="528" type="curve" smooth="yes"/>
      <point x="180" y="528"/>
      <point x="82" y="398"/>
      <point x="82" y="181" type="curve" smooth="yes"/>
      <point x="82" y="71"/>
      <point x="147" y="-12"/>
    </contour>
    <contour>
      <point x="268" y="7" type="curve" smooth="yes"/>
      <point x="151" y="7"/>
      <point x="102" y="86"/>
      <point x="102" y="183" type="curve" smooth="yes"/>
      <point x="102" y="208"/>
      <point x="103" y="218"/>
      <point x="106" y="237" type="curve" smooth="yes"/>
      <point x="108" y="252" type="line"/>
      <point x="140" y="280"/>
      <point x="165" y="294"/>
      <point x="200" y="294" type="curve" smooth="yes"/>
      <point x="229" y="294"/>
      <point x="249" y="283"/>
      <point x="294" y="257" type="curve" smooth="yes"/>
      <point x="341" y="228"/>
      <point x="366" y="218"/>
      <point x="397" y="218" type="curve" smooth="yes"/>
      <point x="437" y="218"/>
      <point x="461" y="229"/>
      <point x="489" y="252" type="curve"/>
      <point x="486" y="230" type="line" smooth="yes"/>
      <point x="463" y="91"/>
      <point x="387" y="7"/>
    </contour>
    <contour>
      <point x="332" y="509" type="curve" smooth="yes"/>
      <point x="449" y="509"/>
      <point x="498" y="430"/>
      <point x="498" y="333" type="curve" smooth="yes"/>
      <point x="498" y="308"/>
      <point x="497" y="298"/>
      <point x="494" y="279" type="curve" smooth="yes"/>
      <point x="493" y="275" type="line"/>
      <point x="461" y="249"/>
      <point x="435" y="237"/>
      <point x="400" y="237" type="curve" smooth="yes"/>
      <point x="371" y="237"/>
      <point x="351" y="247"/>
      <point x="306" y="273" type="curve" smooth="yes"/>
      <point x="260" y="302"/>
      <point x="234" y="313"/>
      <point x="203" y="313" type="curve" smooth="yes"/>
      <point x="164" y="313"/>
      <point x="140" y="299"/>
      <point x="112" y="276" type="curve"/>
      <point x="114" y="286" type="line" smooth="yes"/>
      <point x="137" y="425"/>
      <point x="213" y="509"/>
    </contour>
  </outline>
</glyph>
<glyph name="uni0474" format="2">
  <advance width="600"/>
  <unicode hex="0474"/>
  <outline>
    <contour>
      <point x="256" y="0" type="line"/>
      <point x="577" y="678" type="line"/>
      <point x="679" y="678" type="line"/>
      <point x="682" y="698" type="line"/>
      <point x="591" y="698" type="line" smooth="yes"/>
      <point x="572" y="698"/>
      <point x="559" y="690"/>
      <point x="549" y="670" type="curve" smooth="yes"/>
      <point x="246" y="25" type="line"/>
      <point x="243" y="25" type="line"/>
      <point x="136" y="698" type="line"/>
      <point x="113" y="698" type="line"/>
      <point x="226" y="0" type="line"/>
    </contour>
  </outline>
</glyph>
<glyph name="uni0475" format="2">
  <advance width="600"/>
  <unicode hex="0475"/>
  <outline>
    <contour>
      <point x="269" y="0" type="line"/>
      <point x="510" y="497" type="line"/>
      <point x="586" y="497" type="line"/>
      <point x="590" y="516" type="line"/>
      <point x="522" y="516" type="line" smooth="yes"/>
      <point x="504" y="516"/>
      <point x="494" y="508"/>
      <point x="487" y="493" type="curve" smooth="yes"/>
      <point x="261" y="24" type="line"/>
      <point x="258" y="24" type="line"/>
      <point x="157" y="516" type="line"/>
      <point x="136" y="516" type="line"/>
      <point x="243" y="0" type="line"/>
    </contour>
  </outline>
</glyph>
<glyph name="uni0490" format="2">
  <advance width="600"/>
  <unicode hex="0490"/>
  <outline>
    <contour>
      <point x="112" y="0" type="line"/>
      <point x="134" y="0" type="line"/>
      <point x="247" y="678" type="line"/>
      <point x="588" y="678" type="line"/>
      <point x="616" y="848" type="line"/>
      <point x="594" y="848" type="line"/>
      <point x="569" y="698" type="line"/>
      <point x="228" y="698" type="line"/>
    </contour>
  </outline>
</glyph>
<glyph name="uni0491" format="2">
  <advance width="600"/>
  <unicode hex="0491"/>
  <outline>
    <contour>
      <point x="121" y="0" type="line"/>
      <point x="142" y="0" type="line"/>
      <point x="225" y="497" type="line"/>
      <point x="548" y="497" type="line"/>
      <point x="574" y="656" type="line"/>
      <point x="553" y="656" type="line"/>
      <point x="530" y="516" type="line"/>
      <point x="207" y="516" type="line"/>
    </contour>
  </outline>
</glyph>
<glyph name="uni0493" format="2">
  <advance width="600"/>
  <unicode hex="0493"/>
  <outline>
    <contour>
      <point x="137" y="0" type="line"/>
      <point x="158" y="0" type="line"/>
      <point x="202" y="261" type="line"/>
      <point x="417" y="261" type="line"/>
      <point x="420" y="280" type="line"/>
      <point x="205" y="280" type="line"/>
      <point x="241" y="497" type="line"/>
      <point x="564" y="497" type="line"/>
      <point x="567" y="516" type="line"/>
      <point x="223" y="516" type="line"/>
      <point x="184" y="280" type="line"/>
      <point x="58" y="280" type="line"/>
      <point x="55" y="261" type="line"/>
      <point x="181" y="261" type="line"/>
    </contour>
  </outline>
</glyph>
<glyph name="uni0494" format="2">
  <advance width="600"/>
  <unicode hex="0494"/>
  <outline>
    <contour>
      <point x="422" y="-172" type="curve" smooth="yes"/>
      <point x="438" y="-172"/>
      <point x="445" y="-161"/>
      <point x="449" y="-138" type="curve" smooth="yes"/>
      <point x="502" y="183" type="line" smooth="yes"/>
      <point x="506" y="205"/>
      <point x="508" y="232"/>
      <point x="508" y="251" type="curve" smooth="yes"/>
      <point x="508" y="355"/>
      <point x="446" y="406"/>
      <point x="324" y="406" type="curve" smooth="yes"/>
      <point x="260" y="406"/>
      <point x="198" y="392"/>
      <point x="160" y="371" type="curve"/>
      <point x="158" y="371" type="line"/>
      <point x="208" y="678" type="line"/>
      <point x="550" y="678" type="line"/>
      <point x="553" y="698" type="line"/>
      <point x="190" y="698" type="line"/>
      <point x="74" y="0" type="line"/>
      <point x="96" y="0" type="line"/>
      <point x="154" y="350" type="line"/>
      <point x="191" y="371"/>
      <point x="257" y="386"/>
      <point x="321" y="386" type="curve" smooth="yes"/>
      <point x="431" y="386"/>
      <point x="486" y="341"/>
      <point x="486" y="247" type="curve" smooth="yes"/>
      <point x="486" y="229"/>
      <point x="484" y="209"/>
      <point x="481" y="190" type="curve" smooth="yes"/>
      <point x="425" y="-150" type="line"/>
      <point x="419" y="-152" type="line"/>
      <point x="293" y="-40" type="line"/>
      <point x="279" y="-54" type="line"/>
      <point x="391" y="-155" type="line" smooth="yes"/>
      <point x="406" y="-168"/>
      <point x="413" y="-172"/>
    </contour>
  </outline>
</glyph>
<glyph name="uni049A" format="2">
  <advance width="600"/>
  <unicode hex="049A"/>
  <outline>
    <contour>
      <point x="455" y="-150" type="line"/>
      <point x="477" y="-150" type="line"/>
      <point x="505" y="20" type="line"/>
      <point x="433" y="20" type="line"/>
      <point x="336" y="312" type="line" smooth="yes"/>
      <point x="329" y="332"/>
      <point x="326" y="350"/>
      <point x="310" y="352" type="curve"/>
      <point x="311" y="355" type="line"/>
      <point x="328" y="359"/>
      <point x="334" y="371"/>
      <point x="347" y="388" type="curve" smooth="yes"/>
      <point x="577" y="698" type="line"/>
      <point x="552" y="698" type="line"/>
      <point x="304" y="364" type="line"/>
      <point x="132" y="364" type="line"/>
      <point x="187" y="698" type="line"/>
      <point x="165" y="698" type="line"/>
      <point x="49" y="0" type="line"/>
      <point x="71" y="0" type="line"/>
      <point x="128" y="344" type="line"/>
      <point x="304" y="344" type="line"/>
      <point x="411" y="20" type="line" smooth="yes"/>
      <point x="417" y="3"/>
      <point x="425" y="0"/>
      <point x="441" y="0" type="curve"/>
      <point x="480" y="0" type="line"/>
    </contour>
  </outline>
</glyph>
<glyph name="uni049E" format="2">
  <advance width="600"/>
  <unicode hex="049E"/>
  <outline>
    <contour>
      <point x="66" y="0" type="line"/>
      <point x="88" y="0" type="line"/>
      <point x="145" y="344" type="line"/>
      <point x="324" y="344" type="line"/>
      <point x="431" y="20" type="line" smooth="yes"/>
      <point x="437" y="3"/>
      <point x="445" y="0"/>
      <point x="461" y="0" type="curve" smooth="yes"/>
      <point x="522" y="0" type="line"/>
      <point x="525" y="20" type="line"/>
      <point x="453" y="20" type="line"/>
      <point x="356" y="314" type="line" smooth="yes"/>
      <point x="346" y="343"/>
      <point x="342" y="348"/>
      <point x="330" y="352" type="curve"/>
      <point x="331" y="355" type="line"/>
      <point x="342" y="358"/>
      <point x="349" y="364"/>
      <point x="365" y="386" type="curve" smooth="yes"/>
      <point x="591" y="698" type="line"/>
      <point x="566" y="698" type="line"/>
      <point x="324" y="364" type="line"/>
      <point x="148" y="364" type="line"/>
      <point x="185" y="580" type="line"/>
      <point x="364" y="580" type="line"/>
      <point x="368" y="599" type="line"/>
      <point x="188" y="599" type="line"/>
      <point x="204" y="698" type="line"/>
      <point x="182" y="698" type="line"/>
      <point x="166" y="599" type="line"/>
      <point x="65" y="599" type="line"/>
      <point x="61" y="580" type="line"/>
      <point x="163" y="580" type="line"/>
    </contour>
  </outline>
</glyph>
<glyph name="uni049F" format="2">
  <advance width="600"/>
  <unicode hex="049F"/>
  <outline>
    <contour>
      <point x="104" y="0" type="line"/>
      <point x="125" y="0" type="line"/>
      <point x="169" y="261" type="line"/>
      <point x="305" y="261" type="line"/>
      <point x="416" y="18" type="line" smooth="yes"/>
      <point x="422" y="5"/>
      <point x="430" y="0"/>
      <point x="442" y="0" type="curve" smooth="yes"/>
      <point x="489" y="0" type="line"/>
      <point x="492" y="19" type="line"/>
      <point x="438" y="19" type="line"/>
      <point x="337" y="240" type="line" smooth="yes"/>
      <point x="326" y="264"/>
      <point x="322" y="267"/>
      <point x="314" y="269" type="curve"/>
      <point x="315" y="272" type="line"/>
      <point x="325" y="274"/>
      <point x="332" y="279"/>
      <point x="352" y="301" type="curve" smooth="yes"/>
      <point x="546" y="516" type="line"/>
      <point x="521" y="516" type="line"/>
      <point x="308" y="280" type="line"/>
      <point x="172" y="280" type="line"/>
      <point x="221" y="580" type="line"/>
      <point x="385" y="580" type="line"/>
      <point x="388" y="598" type="line"/>
      <point x="224" y="598" type="line"/>
      <point x="248" y="740" type="line"/>
      <point x="227" y="740" type="line"/>
      <point x="203" y="598" type="line"/>
      <point x="132" y="598" type="line"/>
      <point x="129" y="580" type="line"/>
      <point x="200" y="580" type="line"/>
    </contour>
  </outline>
</glyph>
<glyph name="uni04A0" format="2">
  <advance width="600"/>
  <unicode hex="04A0"/>
  <outline>
    <contour>
      <point x="135" y="0" type="line"/>
      <point x="157" y="0" type="line"/>
      <point x="214" y="344" type="line"/>
      <point x="337" y="344" type="line"/>
      <point x="444" y="20" type="line" smooth="yes"/>
      <point x="450" y="3"/>
      <point x="458" y="0"/>
      <point x="474" y="0" type="curve" smooth="yes"/>
      <point x="535" y="0" type="line"/>
      <point x="538" y="20" type="line"/>
      <point x="466" y="20" type="line"/>
      <point x="369" y="314" type="line" smooth="yes"/>
      <point x="359" y="343"/>
      <point x="355" y="348"/>
      <point x="343" y="352" type="curve"/>
      <point x="344" y="355" type="line"/>
      <point x="355" y="358"/>
      <point x="362" y="364"/>
      <point x="378" y="386" type="curve" smooth="yes"/>
      <point x="604" y="698" type="line"/>
      <point x="579" y="698" type="line"/>
      <point x="337" y="364" type="line"/>
      <point x="218" y="364" type="line"/>
      <point x="273" y="698" type="line"/>
      <point x="61" y="698" type="line"/>
      <point x="58" y="678" type="line"/>
      <point x="247" y="678" type="line"/>
    </contour>
  </outline>
</glyph>
<glyph name="uni04A1" format="2">
  <advance width="600"/>
  <unicode hex="04A1"/>
  <outline>
    <contour>
      <point x="154" y="0" type="line"/>
      <point x="175" y="0" type="line"/>
      <point x="219" y="261" type="line"/>
      <point x="326" y="261" type="line"/>
      <point x="437" y="18" type="line" smooth="yes"/>
      <point x="443" y="5"/>
      <point x="451" y="0"/>
      <point x="463" y="0" type="curve" smooth="yes"/>
      <point x="510" y="0" type="line"/>
      <point x="513" y="19" type="line"/>
      <point x="459" y="19" type="line"/>
      <point x="358" y="240" type="line" smooth="yes"/>
      <point x="347" y="264"/>
      <point x="343" y="267"/>
      <point x="335" y="269" type="curve"/>
      <point x="336" y="272" type="line"/>
      <point x="346" y="274"/>
      <point x="353" y="279"/>
      <point x="373" y="301" type="curve" smooth="yes"/>
      <point x="567" y="516" type="line"/>
      <point x="542" y="516" type="line"/>
      <point x="329" y="280" type="line"/>
      <point x="222" y="280" type="line"/>
      <point x="261" y="516" type="line"/>
      <point x="61" y="516" type="line"/>
      <point x="58" y="497" type="line"/>
      <point x="237" y="497" type="line"/>
    </contour>
  </outline>
</glyph>
<glyph name="uni04A2" format="2">
  <advance width="600"/>
  <unicode hex="04A2"/>
  <outline>
    <contour>
      <point x="489" y="-150" type="line"/>
      <point x="511" y="-150" type="line"/>
      <point x="539" y="20" type="line"/>
      <point x="448" y="20" type="line"/>
      <point x="561" y="698" type="line"/>
      <point x="539" y="698" type="line"/>
      <point x="484" y="364" type="line"/>
      <point x="144" y="364" type="line"/>
      <point x="199" y="698" type="line"/>
      <point x="177" y="698" type="line"/>
      <point x="61" y="0" type="line"/>
      <point x="83" y="0" type="line"/>
      <point x="140" y="344" type="line"/>
      <point x="480" y="344" type="line"/>
      <point x="423" y="0" type="line"/>
      <point x="514" y="0" type="line"/>
    </contour>
  </outline>
</glyph>
<glyph name="uni04A3" format="2">
  <advance width="600"/>
  <unicode hex="04A3"/>
  <outline>
    <contour>
      <point x="464" y="-140" type="line"/>
      <point x="485" y="-140" type="line"/>
      <point x="511" y="19" type="line"/>
      <point x="418" y="19" type="line"/>
      <point x="501" y="516" type="line"/>
      <point x="480" y="516" type="line"/>
      <point x="440" y="280" type="line"/>
      <point x="145" y="280" type="line"/>
      <point x="184" y="516" type="line"/>
      <point x="163" y="516" type="line"/>
      <point x="77" y="0" type="line"/>
      <point x="98" y="0" type="line"/>
      <point x="142" y="261" type="line"/>
      <point x="437" y="261" type="line"/>
      <point x="394" y="0" type="line"/>
      <point x="487" y="0" type="line"/>
    </contour>
  </outline>
</glyph>
<glyph name="uni04A4" format="2">
  <advance width="600"/>
  <unicode hex="04A4"/>
  <outline>
    <contour>
      <point x="25" y="0" type="line"/>
      <point x="47" y="0" type="line"/>
      <point x="104" y="344" type="line"/>
      <point x="365" y="344" type="line"/>
      <point x="308" y="0" type="line"/>
      <point x="330" y="0" type="line"/>
      <point x="442" y="678" type="line"/>
      <point x="660" y="678" type="line"/>
      <point x="663" y="698" type="line"/>
      <point x="424" y="698" type="line"/>
      <point x="369" y="364" type="line"/>
      <point x="108" y="364" type="line"/>
      <point x="163" y="698" type="line"/>
      <point x="141" y="698" type="line"/>
    </contour>
  </outline>
</glyph>
<glyph name="uni04A5" format="2">
  <advance width="600"/>
  <unicode hex="04A5"/>
  <outline>
    <contour>
      <point x="34" y="0" type="line"/>
      <point x="55" y="0" type="line"/>
      <point x="99" y="261" type="line"/>
      <point x="357" y="261" type="line"/>
      <point x="314" y="0" type="line"/>
      <point x="335" y="0" type="line"/>
      <point x="418" y="497" type="line"/>
      <point x="611" y="497" type="line"/>
      <point x="614" y="516" type="line"/>
      <point x="400" y="516" type="line"/>
      <point x="360" y="280" type="line"/>
      <point x="102" y="280" type="line"/>
      <point x="141" y="516" type="line"/>
      <point x="120" y="516" type="line"/>
    </contour>
  </outline>
</glyph>
<glyph name="uni04A6" format="2">
  <advance width="600"/>
  <unicode hex="04A6"/>
  <outline>
    <contour>
      <point x="287" y="-73" type="line"/>
      <point x="410" y="-158" type="line" smooth="yes"/>
      <point x="424" y="-168"/>
      <point x="432" y="-172"/>
      <point x="442" y="-172" type="curve" smooth="yes"/>
      <point x="454" y="-172"/>
      <point x="462" y="-161"/>
      <point x="466" y="-138" type="curve" smooth="yes"/>
      <point x="533" y="273" type="line" smooth="yes"/>
      <point x="535" y="287"/>
      <point x="537" y="298"/>
      <point x="537" y="310" type="curve" smooth="yes"/>
      <point x="537" y="374"/>
      <point x="501" y="406"/>
      <point x="437" y="406" type="curve" smooth="yes"/>
      <point x="403" y="406"/>
      <point x="370" y="395"/>
      <point x="331" y="371" type="curve"/>
      <point x="329" y="371" type="line"/>
      <point x="383" y="698" type="line"/>
      <point x="139" y="698" type="line"/>
      <point x="22" y="0" type="line"/>
      <point x="44" y="0" type="line"/>
      <point x="158" y="679" type="line"/>
      <point x="358" y="679" type="line"/>
      <point x="244" y="0" type="line"/>
      <point x="266" y="0" type="line"/>
      <point x="325" y="350" type="line"/>
      <point x="363" y="372"/>
      <point x="394" y="386"/>
      <point x="439" y="386" type="curve" smooth="yes"/>
      <point x="488" y="386"/>
      <point x="516" y="361"/>
      <point x="516" y="311" type="curve" smooth="yes"/>
      <point x="516" y="302"/>
      <point x="515" y="292"/>
      <point x="513" y="281" type="curve" smooth="yes"/>
      <point x="442" y="-150" type="line"/>
      <point x="436" y="-152" type="line"/>
      <point x="298" y="-57" type="line"/>
    </contour>
  </outline>
</glyph>
<glyph name="uni04A7" format="2">
  <advance width="600"/>
  <unicode hex="04A7"/>
  <outline>
    <contour>
      <point x="63" y="0" type="line"/>
      <point x="123" y="360" type="line" smooth="yes"/>
      <point x="131" y="406"/>
      <point x="154" y="441"/>
      <point x="174" y="466" type="curve" smooth="yes"/>
      <point x="195" y="492"/>
      <point x="219" y="509"/>
      <point x="257" y="509" type="curve" smooth="yes"/>
      <point x="304" y="509"/>
      <point x="327" y="478"/>
      <point x="327" y="431" type="curve" smooth="yes"/>
      <point x="327" y="418"/>
      <point x="325" y="401"/>
      <point x="322" y="384" type="curve" smooth="yes"/>
      <point x="258" y="0" type="line"/>
      <point x="279" y="0" type="line"/>
      <point x="302" y="142" type="line" smooth="yes"/>
      <point x="310" y="188"/>
      <point x="333" y="223"/>
      <point x="353" y="248" type="curve" smooth="yes"/>
      <point x="374" y="274"/>
      <point x="400" y="291"/>
      <point x="438" y="291" type="curve" smooth="yes"/>
      <point x="486" y="291"/>
      <point x="512" y="260"/>
      <point x="512" y="213" type="curve" smooth="yes"/>
      <point x="512" y="200"/>
      <point x="510" y="183"/>
      <point x="507" y="166" type="curve" smooth="yes"/>
      <point x="448" y="-190" type="line"/>
      <point x="442" y="-192" type="line"/>
      <point x="304" y="-97" type="line"/>
      <point x="293" y="-113" type="line"/>
      <point x="417" y="-198" type="line" smooth="yes"/>
      <point x="431" y="-208"/>
      <point x="437" y="-212"/>
      <point x="447" y="-212" type="curve" smooth="yes"/>
      <point x="459" y="-212"/>
      <point x="467" y="-201"/>
      <point x="471" y="-178" type="curve" smooth="yes"/>
      <point x="529" y="172" type="line" smooth="yes"/>
      <point x="531" y="186"/>
      <point x="533" y="201"/>
      <point x="533" y="213" type="curve" smooth="yes"/>
      <point x="533" y="269"/>
      <point x="500" y="310"/>
      <point x="443" y="310" type="curve" smooth="yes"/>
      <point x="376" y="310"/>
      <point x="340" y="262"/>
      <point x="318" y="220" type="curve"/>
      <point x="315" y="220" type="line"/>
      <point x="344" y="390" type="line" smooth="yes"/>
      <point x="346" y="404"/>
      <point x="348" y="419"/>
      <point x="348" y="431" type="curve" smooth="yes"/>
      <point x="348" y="487"/>
      <point x="316" y="528"/>
      <point x="260" y="528" type="curve" smooth="yes"/>
      <point x="198" y="528"/>
      <point x="161" y="481"/>
      <point x="139" y="438" type="curve"/>
      <point x="136" y="438" type="line"/>
      <point x="149" y="516" type="line"/>
      <point x="128" y="516" type="line"/>
      <point x="42" y="0" type="line"/>
    </contour>
  </outline>
</glyph>
<glyph name="uni04A8" format="2">
  <advance width="600"/>
  <unicode hex="04A8"/>
  <outline>
    <contour>
      <point x="513" y="-12" type="line"/>
      <point x="491" y="-12" type="line" smooth="yes"/>
      <point x="456" y="-12"/>
      <point x="416" y="-1"/>
      <point x="374" y="28" type="curve"/>
      <point x="474" y="93"/>
      <point x="571" y="274"/>
      <point x="571" y="509" type="curve" smooth="yes"/>
      <point x="571" y="590"/>
      <point x="540" y="654"/>
      <point x="459" y="654" type="curve" smooth="yes"/>
      <point x="319" y="654"/>
      <point x="260" y="423"/>
      <point x="260" y="249" type="curve" smooth="yes"/>
      <point x="260" y="177"/>
      <point x="287" y="86"/>
      <point x="342" y="30" type="curve"/>
      <point x="319" y="18"/>
      <point x="290" y="8"/>
      <point x="253" y="8" type="curve" smooth="yes"/>
      <point x="133" y="8"/>
      <point x="75" y="84"/>
      <point x="75" y="209" type="curve" smooth="yes"/>
      <point x="75" y="243"/>
      <point x="76" y="279"/>
      <point x="81" y="311" type="curve" smooth="yes"/>
      <point x="91" y="370" type="line" smooth="yes"/>
      <point x="125" y="573"/>
      <point x="188" y="690"/>
      <point x="299" y="690" type="curve" smooth="yes"/>
      <point x="320" y="690"/>
      <point x="333" y="687"/>
      <point x="340" y="684" type="curve"/>
      <point x="346" y="705" type="line"/>
      <point x="336" y="707"/>
      <point x="323" y="710"/>
      <point x="299" y="710" type="curve" smooth="yes"/>
      <point x="107" y="710"/>
      <point x="54" y="376"/>
      <point x="54" y="210" type="curve" smooth="yes"/>
      <point x="54" y="57"/>
      <point x="132" y="-12"/>
      <point x="253" y="-12" type="curve" smooth="yes"/>
      <point x="291" y="-12"/>
      <point x="331" y="0"/>
      <point x="357" y="16" type="curve"/>
      <point x="404" y="-19"/>
      <point x="449" y="-32"/>
      <point x="487" y="-32" type="curve" smooth="yes"/>
      <point x="509" y="-32" type="line"/>
    </contour>
    <contour>
      <point x="298" y="407" type="line" smooth="yes"/>
      <point x="319" y="530"/>
      <point x="375" y="634"/>
      <point x="459" y="634" type="curve" smooth="yes"/>
      <point x="524" y="634"/>
      <point x="551" y="583"/>
      <point x="551" y="509" type="curve" smooth="yes"/>
      <point x="551" y="480"/>
      <point x="549" y="447"/>
      <point x="543" y="411" type="curve" smooth="yes"/>
      <point x="533" y="351" type="line" smooth="yes"/>
      <point x="517" y="253"/>
      <point x="460" y="104"/>
      <point x="360" y="41" type="curve"/>
      <point x="314" y="82"/>
      <point x="280" y="164"/>
      <point x="280" y="249" type="curve" smooth="yes"/>
      <point x="280" y="278"/>
      <point x="282" y="311"/>
      <point x="288" y="347" type="curve" smooth="yes"/>
    </contour>
  </outline>
</glyph>
<glyph name="uni04A9" format="2">
  <advance width="600"/>
  <unicode hex="04A9"/>
  <outline>
    <contour>
      <point x="518" y="-12" type="line"/>
      <point x="496" y="-12" type="line" smooth="yes"/>
      <point x="454" y="-12"/>
      <point x="412" y="-2"/>
      <point x="374" y="20" type="curve"/>
      <point x="479" y="74"/>
      <point x="555" y="175"/>
      <point x="555" y="353" type="curve" smooth="yes"/>
      <point x="555" y="430"/>
      <point x="520" y="481"/>
      <point x="440" y="481" type="curve" smooth="yes"/>
      <point x="316" y="481"/>
      <point x="257" y="345"/>
      <point x="257" y="201" type="curve" smooth="yes"/>
      <point x="257" y="132"/>
      <point x="288" y="68"/>
      <point x="339" y="23" type="curve"/>
      <point x="312" y="12"/>
      <point x="284" y="7"/>
      <point x="250" y="7" type="curve" smooth="yes"/>
      <point x="134" y="7"/>
      <point x="72" y="83"/>
      <point x="72" y="178" type="curve" smooth="yes"/>
      <point x="72" y="195"/>
      <point x="74" y="214"/>
      <point x="77" y="233" type="curve" smooth="yes"/>
      <point x="85" y="281" type="line" smooth="yes"/>
      <point x="108" y="417"/>
      <point x="179" y="499"/>
      <point x="276" y="499" type="curve" smooth="yes"/>
      <point x="292" y="499"/>
      <point x="304" y="498"/>
      <point x="312" y="495" type="curve"/>
      <point x="317" y="514" type="line"/>
      <point x="306" y="517"/>
      <point x="293" y="518"/>
      <point x="279" y="518" type="curve" smooth="yes"/>
      <point x="99" y="518"/>
      <point x="52" y="289"/>
      <point x="52" y="179" type="curve" smooth="yes"/>
      <point x="52" y="70"/>
      <point x="122" y="-12"/>
      <point x="249" y="-12" type="curve" smooth="yes"/>
      <point x="287" y="-12"/>
      <point x="321" y="-5"/>
      <point x="356" y="9" type="curve"/>
      <point x="400" y="-21"/>
      <point x="446" y="-31"/>
      <point x="493" y="-31" type="curve" smooth="yes"/>
      <point x="515" y="-31" type="line"/>
    </contour>
    <contour>
      <point x="288" y="302" type="line" smooth="yes"/>
      <point x="301" y="383"/>
      <point x="356" y="462"/>
      <point x="439" y="462" type="curve" smooth="yes"/>
      <point x="506" y="462"/>
      <point x="535" y="420"/>
      <point x="535" y="353" type="curve" smooth="yes"/>
      <point x="535" y="337"/>
      <point x="535" y="319"/>
      <point x="532" y="301" type="curve" smooth="yes"/>
      <point x="524" y="252" type="line" smooth="yes"/>
      <point x="510" y="164"/>
      <point x="459" y="81"/>
      <point x="358" y="32" type="curve"/>
      <point x="313" y="69"/>
      <point x="277" y="131"/>
      <point x="277" y="201" type="curve" smooth="yes"/>
      <point x="277" y="217"/>
      <point x="277" y="235"/>
      <point x="280" y="253" type="curve" smooth="yes"/>
    </contour>
  </outline>
</glyph>
<glyph name="uni04AC" format="2">
  <advance width="600"/>
  <unicode hex="04AC"/>
  <outline>
    <contour>
      <point x="629" y="678" type="line"/>
      <point x="632" y="698" type="line"/>
      <point x="114" y="698" type="line"/>
      <point x="111" y="678" type="line"/>
      <point x="359" y="678" type="line"/>
      <point x="246" y="0" type="line"/>
      <point x="337" y="0" type="line"/>
      <point x="312" y="-150" type="line"/>
      <point x="334" y="-150" type="line"/>
      <point x="362" y="20" type="line"/>
      <point x="271" y="20" type="line"/>
      <point x="381" y="678" type="line"/>
    </contour>
  </outline>
</glyph>
<glyph name="uni04AD" format="2">
  <advance width="600"/>
  <unicode hex="04AD"/>
  <outline>
    <contour>
      <point x="55" y="0" type="line"/>
      <point x="115" y="360" type="line" smooth="yes"/>
      <point x="123" y="406"/>
      <point x="146" y="441"/>
      <point x="166" y="466" type="curve" smooth="yes"/>
      <point x="187" y="492"/>
      <point x="213" y="509"/>
      <point x="251" y="509" type="curve" smooth="yes"/>
      <point x="295" y="509"/>
      <point x="321" y="485"/>
      <point x="321" y="438" type="curve" smooth="yes"/>
      <point x="321" y="423"/>
      <point x="318" y="404"/>
      <point x="315" y="384" type="curve" smooth="yes"/>
      <point x="251" y="0" type="line"/>
      <point x="272" y="0" type="line"/>
      <point x="333" y="366" type="line" smooth="yes"/>
      <point x="340" y="406"/>
      <point x="359" y="441"/>
      <point x="379" y="464" type="curve" smooth="yes"/>
      <point x="407" y="496"/>
      <point x="433" y="509"/>
      <point x="466" y="509" type="curve" smooth="yes"/>
      <point x="513" y="509"/>
      <point x="537" y="478"/>
      <point x="537" y="431" type="curve" smooth="yes"/>
      <point x="537" y="418"/>
      <point x="535" y="401"/>
      <point x="532" y="384" type="curve" smooth="yes"/>
      <point x="468" y="0" type="line"/>
      <point x="544" y="0" type="line"/>
      <point x="521" y="-140" type="line"/>
      <point x="542" y="-140" type="line"/>
      <point x="568" y="19" type="line"/>
      <point x="492" y="19" type="line"/>
      <point x="554" y="390" type="line" smooth="yes"/>
      <point x="556" y="404"/>
      <point x="558" y="419"/>
      <point x="558" y="431" type="curve" smooth="yes"/>
      <point x="558" y="487"/>
      <point x="525" y="528"/>
      <point x="469" y="528" type="curve" smooth="yes"/>
      <point x="410" y="528"/>
      <point x="366" y="484"/>
      <point x="342" y="433" type="curve"/>
      <point x="339" y="433" type="line"/>
      <point x="343" y="493"/>
      <point x="311" y="528"/>
      <point x="254" y="528" type="curve" smooth="yes"/>
      <point x="192" y="528"/>
      <point x="153" y="481"/>
      <point x="131" y="438" type="curve"/>
      <point x="128" y="438" type="line"/>
      <point x="141" y="516" type="line"/>
      <point x="120" y="516" type="line"/>
      <point x="34" y="0" type="line"/>
    </contour>
  </outline>
</glyph>
<glyph name="uni04AF" format="2">
  <advance width="600"/>
  <unicode hex="04AF"/>
  <outline>
    <contour>
      <point x="217" y="-200" type="line"/>
      <point x="238" y="-200" type="line"/>
      <point x="271" y="0" type="line"/>
      <point x="553" y="516" type="line"/>
      <point x="531" y="516" type="line"/>
      <point x="399" y="273" type="line"/>
      <point x="266" y="30" type="line"/>
      <point x="263" y="30" type="line"/>
      <point x="212" y="273" type="line"/>
      <point x="160" y="516" type="line"/>
      <point x="139" y="516" type="line"/>
      <point x="250" y="0" type="line"/>
    </contour>
  </outline>
</glyph>
<glyph name="uni04B0" format="2">
  <advance width="600"/>
  <unicode hex="04B0"/>
  <outline>
    <contour>
      <point x="129" y="274" type="line"/>
      <point x="291" y="274" type="line"/>
      <point x="246" y="0" type="line"/>
      <point x="268" y="0" type="line"/>
      <point x="313" y="274" type="line"/>
      <point x="477" y="274" type="line"/>
      <point x="480" y="294" type="line"/>
      <point x="317" y="294" type="line"/>
      <point x="645" y="698" type="line"/>
      <point x="619" y="698" type="line"/>
      <point x="471" y="516" type="line"/>
      <point x="310" y="317" type="line"/>
      <point x="307" y="317" type="line"/>
      <point x="211" y="516" type="line"/>
      <point x="124" y="698" type="line"/>
      <point x="101" y="698" type="line"/>
      <point x="295" y="294" type="line"/>
      <point x="132" y="294" type="line"/>
    </contour>
  </outline>
</glyph>
<glyph name="uni04B1" format="2">
  <advance width="600"/>
  <unicode hex="04B1"/>
  <outline>
    <contour>
      <point x="217" y="-200" type="line"/>
      <point x="238" y="-200" type="line"/>
      <point x="268" y="-19" type="line"/>
      <point x="408" y="-19" type="line"/>
      <point x="411" y="0" type="line"/>
      <point x="271" y="0" type="line"/>
      <point x="553" y="516" type="line"/>
      <point x="531" y="516" type="line"/>
      <point x="399" y="273" type="line"/>
      <point x="266" y="30" type="line"/>
      <point x="263" y="30" type="line"/>
      <point x="212" y="273" type="line"/>
      <point x="160" y="516" type="line"/>
      <point x="139" y="516" type="line"/>
      <point x="250" y="0" type="line"/>
      <point x="110" y="0" type="line"/>
      <point x="107" y="-19" type="line"/>
      <point x="247" y="-19" type="line"/>
    </contour>
  </outline>
</glyph>
<glyph name="uni04B2" format="2">
  <advance width="600"/>
  <unicode hex="04B2"/>
  <outline>
    <contour>
      <point x="531" y="-150" type="line"/>
      <point x="553" y="-150" type="line"/>
      <point x="581" y="20" type="line"/>
      <point x="500" y="20" type="line"/>
      <point x="332" y="355" type="line"/>
      <point x="617" y="698" type="line"/>
      <point x="589" y="698" type="line"/>
      <point x="451" y="531" type="line"/>
      <point x="322" y="375" type="line"/>
      <point x="319" y="375" type="line"/>
      <point x="241" y="531" type="line"/>
      <point x="157" y="698" type="line"/>
      <point x="133" y="698" type="line"/>
      <point x="305" y="356" type="line"/>
      <point x="8" y="0" type="line"/>
      <point x="36" y="0" type="line"/>
      <point x="187" y="182" type="line"/>
      <point x="315" y="336" type="line"/>
      <point x="318" y="336" type="line"/>
      <point x="486" y="0" type="line"/>
      <point x="556" y="0" type="line"/>
    </contour>
  </outline>
</glyph>
<glyph name="uni04B4" format="2">
  <advance width="600"/>
  <unicode hex="04B4"/>
  <outline>
    <contour>
      <point x="475" y="-190" type="curve" smooth="yes"/>
      <point x="494" y="-190"/>
      <point x="499" y="-169"/>
      <point x="503" y="-143" type="curve" smooth="yes"/>
      <point x="529" y="20" type="line"/>
      <point x="440" y="20" type="line"/>
      <point x="553" y="698" type="line"/>
      <point x="531" y="698" type="line"/>
      <point x="418" y="20" type="line"/>
      <point x="158" y="20" type="line"/>
      <point x="268" y="678" type="line"/>
      <point x="416" y="678" type="line"/>
      <point x="419" y="698" type="line"/>
      <point x="101" y="698" type="line"/>
      <point x="98" y="678" type="line"/>
      <point x="246" y="678" type="line"/>
      <point x="133" y="0" type="line"/>
      <point x="505" y="0" type="line"/>
      <point x="477" y="-169" type="line"/>
      <point x="473" y="-173" type="line"/>
      <point x="257" y="-110" type="line" smooth="yes"/>
      <point x="237" y="-104"/>
      <point x="225" y="-101"/>
      <point x="213" y="-101" type="curve" smooth="yes"/>
      <point x="194" y="-101"/>
      <point x="189" y="-122"/>
      <point x="185" y="-148" type="curve" smooth="yes"/>
      <point x="179" y="-186" type="line"/>
      <point x="200" y="-186" type="line"/>
      <point x="211" y="-122" type="line"/>
      <point x="215" y="-118" type="line"/>
      <point x="431" y="-181" type="line" smooth="yes"/>
      <point x="451" y="-187"/>
      <point x="463" y="-190"/>
    </contour>
  </outline>
</glyph>
<glyph name="uni04B7" format="2">
  <advance width="600"/>
  <unicode hex="04B7"/>
  <outline>
    <contour>
      <point x="460" y="-140" type="line"/>
      <point x="481" y="-140" type="line"/>
      <point x="507" y="19" type="line"/>
      <point x="414" y="19" type="line"/>
      <point x="497" y="516" type="line"/>
      <point x="476" y="516" type="line"/>
      <point x="451" y="366" type="line" smooth="yes"/>
      <point x="440" y="302"/>
      <point x="380" y="214"/>
      <point x="254" y="214" type="curve" smooth="yes"/>
      <point x="170" y="214"/>
      <point x="138" y="253"/>
      <point x="138" y="310" type="curve" smooth="yes"/>
      <point x="138" y="326"/>
      <point x="140" y="343"/>
      <point x="143" y="361" type="curve" smooth="yes"/>
      <point x="169" y="516" type="line"/>
      <point x="148" y="516" type="line"/>
      <point x="122" y="361" type="line" smooth="yes"/>
      <point x="119" y="343"/>
      <point x="117" y="326"/>
      <point x="117" y="310" type="curve" smooth="yes"/>
      <point x="117" y="238"/>
      <point x="158" y="195"/>
      <point x="253" y="195" type="curve" smooth="yes"/>
      <point x="337" y="195"/>
      <point x="395" y="229"/>
      <point x="436" y="294" type="curve"/>
      <point x="439" y="294" type="line"/>
      <point x="390" y="0" type="line"/>
      <point x="483" y="0" type="line"/>
    </contour>
  </outline>
</glyph>
